<?xml version="1.0" encoding="UTF-8" standalone="no"?><!DOCTYPE svg PUBLIC "-//W3C//DTD SVG 1.1//EN" "http://www.w3.org/Graphics/SVG/1.1/DTD/svg11.dtd"><svg width="100%" height="100%" viewBox="0 0 2910 1162" version="1.1" xmlns="http://www.w3.org/2000/svg" xmlns:xlink="http://www.w3.org/1999/xlink" xml:space="preserve" xmlns:serif="http://www.serif.com/" style="fill-rule:evenodd;clip-rule:evenodd;stroke-linejoin:round;stroke-miterlimit:2;"><rect id="Artboard1" x="-548" y="-293" width="4000" height="4000" style="fill:none;"/><g id="Artboard11" serif:id="Artboard1"><g><path d="M1251.27,58.738c-141.937,-7.918 -161.022,-20.545 -411.941,128.225c-250.919,148.769 -371.596,357.812 -628.178,509.407c-350.665,207.182 -173.525,513.834 459.777,377.574c573.95,-123.491 517.328,-220.285 954.301,-196.82c436.973,23.465 760.923,71.957 934.37,-20.895c173.446,-92.852 438.666,-182.602 240.004,-318.962c-198.662,-136.359 56.272,-262.152 -473.023,-271.859c-392.907,-7.206 -474.805,79.527 -635.626,-30.936c-159.838,-109.788 -297.746,-167.816 -439.684,-175.734Z" style="fill:#fff3db;"/><rect x="190.664" y="273.355" width="2326.37" height="644.207" style="fill:#f2c6dd;"/><path d="M2517.04,249.267l4.183,0.366l4.056,1.087l3.805,1.774l3.44,2.409l2.969,2.969l2.408,3.439l1.775,3.806l1.086,4.055l0.366,4.183l0,644.208l-0.366,4.183l-1.086,4.055l-1.775,3.806l-2.408,3.439l-2.969,2.969l-3.44,2.409l-3.805,1.774l-4.056,1.087l-4.183,0.366l-2326.37,0l-4.183,-0.366l-4.055,-1.087l-3.806,-1.774l-3.439,-2.409l-2.969,-2.969l-2.409,-3.439l-1.774,-3.806l-1.087,-4.055l-0.366,-4.183l0,-644.208l0.366,-4.183l1.087,-4.055l1.774,-3.806l2.409,-3.439l2.969,-2.969l3.439,-2.409l3.806,-1.774l4.055,-1.087l4.183,-0.366l2326.37,0Zm-2326.37,24.088l0,644.208l2326.37,0l0,-644.208l-2326.37,0Z" style="fill:#662d91;"/><rect x="788.013" y="438.911" width="1664.71" height="315.244" style="fill:#eaaacc;"/><g><path d="M547.158,484.792l174.289,358.112l-348.578,0l174.289,-358.112Z" style="fill:#edce9e;"/><clipPath id="_clip1"><path d="M547.158,484.792l174.289,358.112l-348.578,0l174.289,-358.112Z"/></clipPath><g clip-path="url(#_clip1)"><path d="M547.158,484.792l49.652,358.112l-99.305,0l49.653,-358.112Z" style="fill:#fff3db;"/><path d="M551.715,467.155l2.895,1.015l2.683,1.486l2.396,1.916l2.041,2.29l1.627,2.6l1.168,2.836l0.676,2.992l49.653,358.112l0.162,3.105l-0.367,3.086l-0.887,2.98l-1.381,2.785l-1.834,2.51l-2.234,2.161l-2.569,1.75l-2.829,1.288l-3.007,0.788l-3.098,0.265l-99.305,0l-3.097,-0.265l-3.007,-0.788l-2.829,-1.288l-2.57,-1.75l-2.234,-2.161l-1.834,-2.51l-1.38,-2.785l-0.887,-2.98l-0.368,-3.086l0.163,-3.105l49.652,-358.112l0.676,-2.992l1.168,-2.836l1.627,-2.6l2.041,-2.29l2.396,-1.916l2.683,-1.486l2.895,-1.015l3.024,-0.514l3.067,0l3.024,0.514Zm-54.21,375.749l99.305,0l-49.652,-358.112l-49.653,358.112Z" style="fill:#662d91;"/></g><path d="M552.383,464.987l3.312,1.186l3.061,1.736l2.718,2.234l2.296,2.666l1.805,3.019l174.289,358.112l1.244,3.219l0.685,3.381l0.108,3.449l-0.472,3.418l-1.039,3.29l-1.577,3.069l-2.07,2.761l-2.503,2.374l-2.867,1.92l-3.148,1.412l-3.34,0.864l-3.438,0.29l-348.578,0l-3.438,-0.29l-3.341,-0.864l-3.148,-1.412l-2.867,-1.92l-2.503,-2.374l-2.069,-2.761l-1.577,-3.069l-1.039,-3.29l-0.473,-3.418l0.108,-3.449l0.686,-3.381l1.243,-3.219l174.289,-358.112l1.806,-3.019l2.295,-2.666l2.719,-2.234l3.06,-1.736l3.312,-1.186l3.467,-0.602l3.518,0l3.466,0.602Zm-179.514,377.917l348.578,0l-174.289,-358.112l-174.289,358.112Z" style="fill:#662d91;"/><g><circle cx="547.158" cy="496.838" r="89.796" style="fill:#ff9eb1;"/><path d="M547.512,386.854l0.354,0.002l0.354,0.003l0.354,0.004l0.353,0.005l0.353,0.006l0.353,0.007l0.353,0.008l0.352,0.01l0.353,0.011l0.352,0.011l0.351,0.013l0.352,0.014l0.351,0.015l0.351,0.016l0.351,0.017l0.351,0.019l0.35,0.019l0.35,0.021l0.35,0.021l0.349,0.023l0.349,0.024l0.349,0.025l0.349,0.026l0.349,0.027l0.348,0.028l0.348,0.03l0.347,0.03l0.348,0.031l0.347,0.033l0.346,0.033l0.347,0.035l0.346,0.036l0.346,0.037l0.345,0.038l0.346,0.039l0.345,0.04l0.344,0.041l0.345,0.042l0.344,0.043l0.344,0.044l0.343,0.046l0.343,0.046l0.343,0.048l0.342,0.048l0.343,0.05l0.341,0.05l0.342,0.052l0.341,0.053l0.341,0.054l0.341,0.055l0.34,0.055l0.34,0.057l0.339,0.058l0.34,0.059l0.338,0.06l0.339,0.061l0.338,0.063l0.338,0.063l0.337,0.064l0.338,0.065l0.336,0.066l0.337,0.068l0.336,0.068l0.335,0.069l0.336,0.071l0.335,0.071l0.334,0.072l0.335,0.074l0.333,0.074l0.334,0.076l0.333,0.076l0.333,0.077l0.332,0.079l0.332,0.079l0.332,0.081l0.331,0.081l0.331,0.083l0.33,0.083l0.33,0.085l0.33,0.085l0.329,0.087l0.329,0.087l0.328,0.088l0.328,0.09l0.328,0.09l0.327,0.092l0.327,0.092l0.327,0.093l0.326,0.095l0.325,0.095l0.325,0.096l0.325,0.097l0.325,0.099l0.323,0.099l0.324,0.1l0.323,0.101l0.323,0.102l0.322,0.103l0.322,0.104l0.321,0.105l0.321,0.106l0.32,0.107l0.32,0.108l0.32,0.109l0.319,0.109l0.319,0.111l0.318,0.112l0.318,0.112l0.317,0.114l0.317,0.114l0.317,0.116l0.316,0.116l0.315,0.117l0.315,0.119l0.315,0.119l0.314,0.12l0.314,0.121l0.313,0.122l0.313,0.123l0.312,0.123l0.312,0.125l0.311,0.126l0.311,0.126l0.31,0.128l0.31,0.128l0.31,0.129l0.309,0.131l0.308,0.131l0.308,0.132l0.308,0.133l0.307,0.134l0.306,0.134l0.306,0.136l0.306,0.137l0.305,0.137l0.304,0.138l0.304,0.139l0.304,0.141l0.303,0.141l0.302,0.142l0.302,0.142l0.302,0.144l0.301,0.144l0.3,0.146l0.3,0.146l0.299,0.147l0.299,0.148l0.299,0.149l0.298,0.15l0.297,0.151l0.297,0.151l0.296,0.153l0.296,0.153l0.295,0.154l0.295,0.155l0.294,0.156l0.293,0.157l0.294,0.157l0.292,0.159l0.292,0.159l0.292,0.16l0.291,0.161l0.29,0.162l0.29,0.163l0.289,0.163l0.289,0.165l0.288,0.165l0.288,0.166l0.287,0.167l0.286,0.168l0.286,0.168l0.286,0.17l0.284,0.17l0.285,0.171l0.283,0.172l0.283,0.172l0.283,0.174l0.282,0.174l0.281,0.175l0.281,0.176l0.281,0.177l0.279,0.178l0.279,0.178l0.279,0.18l0.278,0.18l0.277,0.18l0.277,0.182l0.276,0.183l0.276,0.183l0.275,0.184l0.274,0.185l0.274,0.185l0.274,0.187l0.272,0.187l0.272,0.188l0.272,0.189l0.271,0.19l0.27,0.19l0.27,0.191l0.269,0.192l0.268,0.193l0.268,0.194l0.267,0.194l0.267,0.195l0.266,0.196l0.265,0.197l0.265,0.197l0.264,0.198l0.264,0.199l0.263,0.2l0.262,0.201l0.262,0.201l0.261,0.202l0.26,0.203l0.26,0.203l0.259,0.205l0.258,0.205l0.258,0.206l0.258,0.206l0.256,0.208l0.256,0.208l0.256,0.209l0.254,0.209l0.254,0.211l0.254,0.211l0.252,0.211l0.253,0.213l0.251,0.213l0.251,0.214l0.25,0.215l0.249,0.216l0.249,0.216l0.249,0.217l0.247,0.218l0.247,0.218l0.246,0.219l0.246,0.22l0.245,0.221l0.244,0.221l0.243,0.222l0.243,0.223l0.242,0.223l0.242,0.224l0.241,0.225l0.24,0.226l0.24,0.226l0.238,0.227l0.238,0.228l0.238,0.228l0.237,0.23l0.236,0.229l0.235,0.231l0.235,0.231l0.234,0.232l0.233,0.233l0.233,0.233l0.232,0.234l0.231,0.235l0.231,0.235l0.229,0.236l0.23,0.237l0.228,0.238l0.228,0.238l0.227,0.239l0.226,0.239l0.226,0.24l0.225,0.241l0.224,0.242l0.223,0.242l0.223,0.243l0.222,0.243l0.221,0.245l0.221,0.244l0.22,0.246l0.219,0.246l0.219,0.247l0.217,0.248l0.217,0.248l0.216,0.249l0.216,0.249l0.215,0.25l0.214,0.251l0.213,0.252l0.213,0.252l0.211,0.252l0.212,0.254l0.21,0.254l0.209,0.255l0.209,0.255l0.208,0.256l0.208,0.257l0.206,0.257l0.206,0.258l0.205,0.258l0.205,0.259l0.203,0.26l0.203,0.261l0.202,0.261l0.201,0.261l0.201,0.263l0.2,0.262l0.199,0.264l0.198,0.264l0.197,0.265l0.197,0.265l0.196,0.266l0.195,0.267l0.194,0.267l0.194,0.268l0.193,0.268l0.192,0.27l0.191,0.269l0.19,0.27l0.19,0.271l0.189,0.272l0.188,0.272l0.187,0.272l0.187,0.274l0.185,0.274l0.185,0.274l0.184,0.275l0.184,0.276l0.182,0.276l0.182,0.277l0.181,0.277l0.18,0.278l0.179,0.279l0.178,0.279l0.178,0.279l0.177,0.281l0.176,0.281l0.175,0.281l0.174,0.282l0.174,0.283l0.172,0.283l0.172,0.283l0.171,0.285l0.171,0.285l0.169,0.285l0.168,0.286l0.168,0.286l0.167,0.288l0.166,0.287l0.165,0.288l0.165,0.289l0.163,0.289l0.163,0.29l0.162,0.291l0.161,0.29l0.16,0.292l0.159,0.292l0.159,0.293l0.157,0.293l0.157,0.293l0.156,0.294l0.155,0.295l0.154,0.295l0.153,0.296l0.153,0.296l0.151,0.297l0.151,0.298l0.15,0.297l0.149,0.299l0.148,0.299l0.147,0.299l0.146,0.3l0.146,0.3l0.144,0.301l0.144,0.302l0.143,0.302l0.141,0.302l0.141,0.303l0.141,0.304l0.139,0.304l0.138,0.304l0.138,0.305l0.136,0.306l0.136,0.306l0.135,0.306l0.133,0.307l0.133,0.308l0.132,0.308l0.131,0.308l0.131,0.309l0.129,0.31l0.128,0.31l0.128,0.31l0.126,0.311l0.126,0.311l0.125,0.312l0.123,0.312l0.123,0.313l0.122,0.313l0.121,0.314l0.12,0.314l0.12,0.315l0.118,0.315l0.117,0.315l0.116,0.316l0.116,0.317l0.114,0.317l0.114,0.317l0.112,0.318l0.112,0.318l0.111,0.319l0.109,0.319l0.109,0.32l0.108,0.32l0.107,0.32l0.106,0.321l0.105,0.321l0.104,0.322l0.103,0.322l0.102,0.323l0.101,0.323l0.1,0.324l0.1,0.324l0.098,0.324l0.097,0.325l0.096,0.325l0.096,0.325l0.094,0.326l0.093,0.327l0.093,0.327l0.091,0.327l0.09,0.328l0.09,0.328l0.088,0.328l0.088,0.329l0.086,0.329l0.085,0.33l0.085,0.33l0.083,0.33l0.083,0.331l0.081,0.331l0.081,0.332l0.079,0.332l0.079,0.332l0.077,0.333l0.077,0.333l0.075,0.334l0.074,0.333l0.074,0.335l0.072,0.334l0.071,0.335l0.071,0.336l0.069,0.335l0.068,0.336l0.068,0.337l0.066,0.337l0.065,0.337l0.064,0.337l0.063,0.338l0.063,0.338l0.061,0.339l0.06,0.339l0.059,0.339l0.058,0.339l0.057,0.34l0.056,0.34l0.054,0.341l0.054,0.341l0.053,0.341l0.052,0.342l0.05,0.341l0.05,0.343l0.048,0.342l0.048,0.343l0.046,0.343l0.046,0.344l0.044,0.343l0.043,0.344l0.042,0.345l0.042,0.344l0.04,0.345l0.039,0.346l0.037,0.345l0.037,0.346l0.036,0.346l0.035,0.347l0.033,0.347l0.033,0.347l0.031,0.347l0.031,0.348l0.029,0.347l0.028,0.349l0.027,0.348l0.026,0.349l0.025,0.349l0.024,0.349l0.023,0.349l0.021,0.35l0.021,0.35l0.019,0.35l0.019,0.351l0.017,0.351l0.016,0.351l0.015,0.351l0.014,0.352l0.013,0.351l0.012,0.352l0.01,0.353l0.01,0.352l0.008,0.353l0.007,0.353l0.007,0.353l0.005,0.353l0.003,0.354l0.003,0.354l0.002,0.354l0.001,0.354l-0.001,0.355l-0.002,0.354l-0.003,0.354l-0.003,0.353l-0.005,0.354l-0.007,0.353l-0.007,0.353l-0.008,0.353l-0.01,0.352l-0.01,0.352l-0.012,0.352l-0.013,0.352l-0.014,0.352l-0.015,0.351l-0.016,0.351l-0.017,0.351l-0.019,0.35l-0.019,0.351l-0.021,0.35l-0.021,0.349l-0.023,0.35l-0.024,0.349l-0.025,0.349l-0.026,0.349l-0.027,0.348l-0.028,0.348l-0.029,0.348l-0.031,0.348l-0.031,0.347l-0.033,0.347l-0.033,0.347l-0.035,0.346l-0.036,0.347l-0.037,0.345l-0.037,0.346l-0.039,0.345l-0.04,0.345l-0.042,0.345l-0.042,0.344l-0.043,0.344l-0.044,0.344l-0.046,0.344l-0.046,0.343l-0.048,0.343l-0.048,0.342l-0.05,0.342l-0.05,0.342l-0.052,0.342l-0.053,0.341l-0.054,0.341l-0.054,0.34l-0.056,0.341l-0.057,0.339l-0.058,0.34l-0.059,0.339l-0.06,0.339l-0.061,0.339l-0.063,0.338l-0.063,0.338l-0.064,0.337l-0.065,0.337l-0.066,0.337l-0.068,0.336l-0.068,0.337l-0.069,0.335l-0.071,0.336l-0.071,0.335l-0.072,0.334l-0.074,0.334l-0.074,0.334l-0.075,0.334l-0.077,0.333l-0.077,0.333l-0.079,0.332l-0.079,0.332l-0.081,0.331l-0.081,0.332l-0.083,0.331l-0.083,0.33l-0.085,0.33l-0.085,0.33l-0.086,0.329l-0.088,0.329l-0.088,0.328l-0.09,0.328l-0.09,0.328l-0.091,0.327l-0.093,0.327l-0.093,0.326l-0.094,0.326l-0.096,0.326l-0.096,0.325l-0.097,0.325l-0.098,0.324l-0.1,0.324l-0.1,0.324l-0.101,0.323l-0.102,0.322l-0.103,0.323l-0.104,0.321l-0.105,0.322l-0.106,0.321l-0.107,0.32l-0.108,0.32l-0.109,0.32l-0.109,0.319l-0.111,0.319l-0.112,0.318l-0.112,0.318l-0.114,0.317l-0.114,0.317l-0.116,0.316l-0.116,0.316l-0.117,0.316l-0.118,0.315l-0.12,0.315l-0.12,0.314l-0.121,0.313l-0.122,0.314l-0.123,0.312l-0.123,0.313l-0.125,0.312l-0.126,0.311l-0.126,0.311l-0.128,0.31l-0.128,0.31l-0.129,0.309l-0.131,0.309l-0.131,0.309l-0.132,0.308l-0.133,0.307l-0.133,0.307l-0.135,0.307l-0.136,0.306l-0.136,0.305l-0.138,0.305l-0.138,0.305l-0.139,0.304l-0.141,0.303l-0.141,0.303l-0.141,0.303l-0.143,0.302l-0.144,0.301l-0.144,0.301l-0.146,0.301l-0.146,0.3l-0.147,0.299l-0.148,0.299l-0.149,0.298l-0.15,0.298l-0.151,0.298l-0.151,0.296l-0.153,0.297l-0.153,0.295l-0.154,0.296l-0.155,0.294l-0.156,0.295l-0.157,0.293l-0.157,0.293l-0.159,0.293l-0.159,0.292l-0.16,0.291l-0.161,0.291l-0.162,0.291l-0.163,0.289l-0.163,0.29l-0.165,0.288l-0.165,0.289l-0.166,0.287l-0.167,0.287l-0.168,0.287l-0.168,0.286l-0.169,0.285l-0.171,0.285l-0.171,0.284l-0.172,0.284l-0.172,0.283l-0.174,0.283l-0.174,0.282l-0.175,0.281l-0.176,0.281l-0.177,0.28l-0.178,0.28l-0.178,0.279l-0.179,0.279l-0.18,0.278l-0.181,0.277l-0.182,0.277l-0.182,0.276l-0.184,0.276l-0.184,0.275l-0.185,0.274l-0.185,0.274l-0.187,0.273l-0.187,0.273l-0.188,0.272l-0.189,0.272l-0.19,0.27l-0.19,0.271l-0.191,0.269l-0.192,0.269l-0.193,0.269l-0.194,0.268l-0.194,0.267l-0.195,0.267l-0.196,0.266l-0.197,0.265l-0.197,0.265l-0.198,0.264l-0.199,0.263l-0.2,0.263l-0.201,0.263l-0.201,0.261l-0.202,0.261l-0.203,0.261l-0.203,0.259l-0.205,0.26l-0.205,0.258l-0.206,0.258l-0.206,0.257l-0.208,0.257l-0.208,0.256l-0.209,0.255l-0.209,0.255l-0.21,0.254l-0.212,0.253l-0.211,0.253l-0.213,0.252l-0.213,0.252l-0.214,0.251l-0.215,0.25l-0.216,0.249l-0.216,0.249l-0.217,0.248l-0.217,0.248l-0.219,0.247l-0.219,0.246l-0.22,0.245l-0.221,0.245l-0.221,0.245l-0.222,0.243l-0.223,0.243l-0.223,0.242l-0.224,0.242l-0.225,0.241l-0.226,0.24l-0.226,0.239l-0.227,0.239l-0.228,0.238l-0.228,0.238l-0.23,0.236l-0.229,0.237l-0.231,0.235l-0.231,0.235l-0.232,0.234l-0.233,0.233l-0.233,0.233l-0.234,0.232l-0.235,0.231l-0.235,0.23l-0.236,0.23l-0.237,0.229l-0.238,0.229l-0.238,0.228l-0.238,0.227l-0.24,0.226l-0.24,0.225l-0.241,0.225l-0.242,0.225l-0.242,0.223l-0.243,0.223l-0.243,0.222l-0.244,0.221l-0.245,0.221l-0.246,0.22l-0.246,0.219l-0.247,0.218l-0.247,0.218l-0.249,0.217l-0.249,0.216l-0.249,0.216l-0.25,0.214l-0.251,0.214l-0.251,0.214l-0.253,0.212l-0.252,0.212l-0.254,0.211l-0.254,0.211l-0.254,0.209l-0.256,0.209l-0.256,0.208l-0.256,0.207l-0.258,0.207l-0.258,0.206l-0.258,0.205l-0.259,0.204l-0.26,0.204l-0.26,0.203l-0.261,0.202l-0.262,0.201l-0.262,0.201l-0.263,0.199l-0.264,0.199l-0.264,0.199l-0.265,0.197l-0.265,0.197l-0.266,0.196l-0.267,0.195l-0.267,0.194l-0.268,0.194l-0.268,0.192l-0.269,0.192l-0.27,0.192l-0.27,0.19l-0.271,0.19l-0.272,0.189l-0.272,0.188l-0.272,0.187l-0.274,0.186l-0.274,0.186l-0.274,0.185l-0.275,0.184l-0.276,0.183l-0.276,0.183l-0.277,0.181l-0.277,0.181l-0.278,0.18l-0.279,0.18l-0.279,0.178l-0.279,0.178l-0.281,0.176l-0.281,0.176l-0.281,0.176l-0.282,0.174l-0.283,0.173l-0.283,0.173l-0.283,0.172l-0.285,0.171l-0.284,0.17l-0.286,0.17l-0.286,0.168l-0.286,0.168l-0.287,0.167l-0.288,0.166l-0.288,0.165l-0.289,0.164l-0.289,0.164l-0.29,0.163l-0.29,0.162l-0.291,0.16l-0.292,0.161l-0.292,0.159l-0.292,0.158l-0.294,0.158l-0.293,0.157l-0.294,0.156l-0.295,0.155l-0.295,0.154l-0.296,0.153l-0.296,0.152l-0.297,0.152l-0.297,0.151l-0.298,0.149l-0.299,0.149l-0.299,0.148l-0.299,0.148l-0.3,0.146l-0.3,0.145l-0.301,0.145l-0.302,0.144l-0.302,0.142l-0.302,0.142l-0.303,0.141l-0.304,0.14l-0.304,0.14l-0.304,0.138l-0.305,0.137l-0.306,0.137l-0.306,0.135l-0.306,0.135l-0.307,0.134l-0.308,0.133l-0.308,0.132l-0.308,0.131l-0.309,0.13l-0.31,0.13l-0.31,0.128l-0.31,0.127l-0.311,0.127l-0.311,0.126l-0.312,0.124l-0.312,0.124l-0.313,0.123l-0.313,0.122l-0.314,0.121l-0.314,0.12l-0.315,0.119l-0.315,0.118l-0.315,0.118l-0.316,0.116l-0.317,0.115l-0.317,0.115l-0.317,0.113l-0.318,0.113l-0.318,0.112l-0.319,0.11l-0.319,0.11l-0.32,0.109l-0.32,0.108l-0.32,0.107l-0.321,0.106l-0.321,0.105l-0.322,0.104l-0.322,0.103l-0.323,0.102l-0.323,0.101l-0.324,0.1l-0.323,0.099l-0.325,0.098l-0.325,0.098l-0.325,0.096l-0.325,0.095l-0.326,0.095l-0.327,0.093l-0.327,0.092l-0.327,0.092l-0.328,0.09l-0.328,0.089l-0.328,0.089l-0.329,0.087l-0.329,0.087l-0.33,0.085l-0.33,0.085l-0.33,0.083l-0.331,0.083l-0.331,0.081l-0.332,0.08l-0.332,0.08l-0.332,0.078l-0.333,0.078l-0.333,0.076l-0.334,0.076l-0.333,0.074l-0.335,0.073l-0.334,0.073l-0.335,0.071l-0.336,0.071l-0.335,0.069l-0.336,0.068l-0.337,0.067l-0.336,0.067l-0.338,0.065l-0.337,0.064l-0.338,0.063l-0.338,0.062l-0.339,0.061l-0.338,0.06l-0.34,0.059l-0.339,0.058l-0.34,0.057l-0.34,0.056l-0.341,0.055l-0.341,0.054l-0.341,0.053l-0.342,0.051l-0.341,0.051l-0.343,0.05l-0.342,0.048l-0.343,0.048l-0.343,0.046l-0.343,0.045l-0.344,0.045l-0.344,0.043l-0.345,0.042l-0.344,0.041l-0.345,0.04l-0.346,0.039l-0.345,0.038l-0.346,0.037l-0.346,0.036l-0.347,0.034l-0.346,0.034l-0.347,0.033l-0.348,0.031l-0.347,0.03l-0.348,0.03l-0.348,0.028l-0.349,0.027l-0.349,0.026l-0.349,0.025l-0.349,0.024l-0.349,0.022l-0.35,0.022l-0.35,0.021l-0.35,0.019l-0.351,0.018l-0.351,0.018l-0.351,0.016l-0.351,0.015l-0.352,0.014l-0.351,0.013l-0.352,0.011l-0.353,0.011l-0.352,0.009l-0.353,0.009l-0.353,0.007l-0.353,0.006l-0.353,0.005l-0.354,0.004l-0.354,0.003l-0.354,0.002l-0.354,0l-0.355,0l-0.354,-0.002l-0.354,-0.003l-0.353,-0.004l-0.354,-0.005l-0.353,-0.006l-0.353,-0.007l-0.353,-0.009l-0.352,-0.009l-0.352,-0.011l-0.352,-0.011l-0.352,-0.013l-0.352,-0.014l-0.351,-0.015l-0.351,-0.016l-0.351,-0.018l-0.35,-0.018l-0.351,-0.019l-0.35,-0.021l-0.349,-0.022l-0.35,-0.022l-0.349,-0.024l-0.349,-0.025l-0.349,-0.026l-0.348,-0.027l-0.348,-0.028l-0.348,-0.03l-0.348,-0.03l-0.347,-0.031l-0.347,-0.033l-0.347,-0.034l-0.346,-0.034l-0.347,-0.036l-0.345,-0.037l-0.346,-0.038l-0.345,-0.039l-0.345,-0.04l-0.345,-0.041l-0.344,-0.042l-0.344,-0.043l-0.344,-0.045l-0.344,-0.045l-0.343,-0.046l-0.343,-0.048l-0.342,-0.048l-0.342,-0.05l-0.342,-0.051l-0.342,-0.051l-0.341,-0.053l-0.341,-0.054l-0.34,-0.055l-0.341,-0.056l-0.339,-0.057l-0.34,-0.058l-0.339,-0.059l-0.339,-0.06l-0.339,-0.061l-0.338,-0.062l-0.338,-0.063l-0.337,-0.064l-0.337,-0.065l-0.337,-0.067l-0.336,-0.067l-0.336,-0.068l-0.336,-0.069l-0.335,-0.071l-0.335,-0.071l-0.335,-0.073l-0.334,-0.073l-0.334,-0.074l-0.334,-0.076l-0.333,-0.076l-0.332,-0.078l-0.333,-0.078l-0.332,-0.08l-0.331,-0.08l-0.332,-0.081l-0.33,-0.083l-0.331,-0.083l-0.33,-0.085l-0.33,-0.085l-0.329,-0.087l-0.329,-0.087l-0.328,-0.089l-0.328,-0.089l-0.328,-0.09l-0.327,-0.092l-0.327,-0.092l-0.326,-0.093l-0.326,-0.095l-0.326,-0.095l-0.325,-0.096l-0.325,-0.098l-0.324,-0.098l-0.324,-0.099l-0.324,-0.1l-0.323,-0.101l-0.322,-0.102l-0.322,-0.103l-0.322,-0.104l-0.322,-0.105l-0.321,-0.106l-0.32,-0.107l-0.32,-0.108l-0.32,-0.109l-0.319,-0.11l-0.318,-0.11l-0.319,-0.112l-0.318,-0.113l-0.317,-0.113l-0.317,-0.115l-0.316,-0.115l-0.316,-0.116l-0.316,-0.118l-0.315,-0.118l-0.315,-0.119l-0.314,-0.12l-0.313,-0.121l-0.314,-0.122l-0.312,-0.123l-0.313,-0.124l-0.311,-0.124l-0.312,-0.126l-0.311,-0.127l-0.31,-0.127l-0.31,-0.128l-0.309,-0.13l-0.309,-0.13l-0.309,-0.131l-0.308,-0.132l-0.307,-0.133l-0.307,-0.134l-0.307,-0.135l-0.306,-0.135l-0.305,-0.137l-0.305,-0.137l-0.305,-0.138l-0.304,-0.14l-0.303,-0.14l-0.303,-0.141l-0.303,-0.142l-0.302,-0.142l-0.301,-0.144l-0.301,-0.145l-0.301,-0.145l-0.3,-0.146l-0.299,-0.148l-0.299,-0.148l-0.298,-0.149l-0.298,-0.149l-0.298,-0.151l-0.296,-0.152l-0.297,-0.152l-0.295,-0.153l-0.296,-0.154l-0.294,-0.155l-0.294,-0.156l-0.294,-0.157l-0.293,-0.158l-0.293,-0.158l-0.292,-0.159l-0.291,-0.161l-0.291,-0.16l-0.291,-0.162l-0.289,-0.163l-0.29,-0.164l-0.288,-0.164l-0.289,-0.165l-0.287,-0.166l-0.287,-0.167l-0.287,-0.168l-0.286,-0.168l-0.285,-0.17l-0.285,-0.17l-0.284,-0.171l-0.284,-0.172l-0.283,-0.173l-0.283,-0.173l-0.282,-0.174l-0.281,-0.176l-0.281,-0.176l-0.28,-0.176l-0.28,-0.178l-0.279,-0.178l-0.279,-0.18l-0.278,-0.18l-0.277,-0.181l-0.277,-0.181l-0.276,-0.183l-0.276,-0.183l-0.275,-0.184l-0.274,-0.185l-0.274,-0.186l-0.273,-0.186l-0.273,-0.187l-0.272,-0.188l-0.271,-0.189l-0.271,-0.19l-0.271,-0.19l-0.269,-0.192l-0.269,-0.192l-0.269,-0.192l-0.268,-0.194l-0.267,-0.194l-0.266,-0.195l-0.266,-0.196l-0.266,-0.197l-0.265,-0.197l-0.264,-0.199l-0.263,-0.199l-0.263,-0.199l-0.262,-0.201l-0.262,-0.201l-0.261,-0.202l-0.261,-0.203l-0.259,-0.204l-0.26,-0.204l-0.258,-0.205l-0.258,-0.206l-0.257,-0.207l-0.257,-0.207l-0.256,-0.208l-0.255,-0.209l-0.255,-0.209l-0.254,-0.211l-0.253,-0.211l-0.253,-0.212l-0.252,-0.212l-0.252,-0.214l-0.25,-0.214l-0.251,-0.214l-0.249,-0.216l-0.249,-0.216l-0.248,-0.217l-0.248,-0.218l-0.247,-0.218l-0.246,-0.219l-0.245,-0.22l-0.245,-0.221l-0.244,-0.221l-0.244,-0.222l-0.243,-0.223l-0.242,-0.223l-0.242,-0.225l-0.24,-0.225l-0.241,-0.225l-0.239,-0.226l-0.239,-0.227l-0.238,-0.228l-0.238,-0.229l-0.236,-0.229l-0.236,-0.23l-0.236,-0.23l-0.235,-0.231l-0.234,-0.232l-0.233,-0.233l-0.233,-0.233l-0.231,-0.234l-0.232,-0.235l-0.23,-0.235l-0.23,-0.237l-0.229,-0.236l-0.229,-0.238l-0.227,-0.238l-0.227,-0.239l-0.227,-0.239l-0.225,-0.24l-0.225,-0.241l-0.224,-0.242l-0.224,-0.242l-0.223,-0.243l-0.222,-0.243l-0.221,-0.245l-0.221,-0.245l-0.22,-0.245l-0.219,-0.246l-0.218,-0.247l-0.218,-0.248l-0.217,-0.248l-0.216,-0.249l-0.216,-0.249l-0.214,-0.25l-0.214,-0.251l-0.214,-0.252l-0.212,-0.252l-0.212,-0.253l-0.211,-0.253l-0.21,-0.254l-0.21,-0.255l-0.209,-0.255l-0.208,-0.256l-0.207,-0.257l-0.207,-0.257l-0.206,-0.258l-0.205,-0.258l-0.204,-0.26l-0.204,-0.259l-0.203,-0.261l-0.202,-0.261l-0.201,-0.261l-0.2,-0.263l-0.2,-0.263l-0.199,-0.263l-0.198,-0.264l-0.198,-0.265l-0.197,-0.265l-0.195,-0.266l-0.196,-0.267l-0.194,-0.267l-0.193,-0.268l-0.193,-0.269l-0.192,-0.269l-0.191,-0.269l-0.191,-0.271l-0.19,-0.27l-0.188,-0.272l-0.188,-0.272l-0.188,-0.273l-0.186,-0.273l-0.186,-0.274l-0.185,-0.274l-0.184,-0.275l-0.183,-0.276l-0.183,-0.276l-0.181,-0.277l-0.181,-0.277l-0.18,-0.278l-0.179,-0.279l-0.179,-0.279l-0.177,-0.28l-0.177,-0.28l-0.176,-0.281l-0.175,-0.281l-0.175,-0.282l-0.173,-0.283l-0.173,-0.283l-0.172,-0.284l-0.171,-0.284l-0.17,-0.285l-0.17,-0.285l-0.168,-0.286l-0.168,-0.287l-0.167,-0.287l-0.166,-0.287l-0.165,-0.289l-0.164,-0.288l-0.164,-0.29l-0.163,-0.289l-0.161,-0.291l-0.161,-0.291l-0.161,-0.291l-0.159,-0.292l-0.158,-0.293l-0.158,-0.293l-0.157,-0.293l-0.155,-0.295l-0.155,-0.294l-0.155,-0.296l-0.153,-0.295l-0.152,-0.297l-0.152,-0.296l-0.15,-0.298l-0.15,-0.298l-0.149,-0.298l-0.148,-0.299l-0.147,-0.299l-0.147,-0.3l-0.145,-0.301l-0.145,-0.301l-0.143,-0.301l-0.143,-0.302l-0.142,-0.303l-0.141,-0.303l-0.14,-0.303l-0.139,-0.304l-0.139,-0.305l-0.137,-0.305l-0.137,-0.305l-0.135,-0.306l-0.135,-0.307l-0.134,-0.307l-0.133,-0.307l-0.132,-0.308l-0.131,-0.309l-0.13,-0.309l-0.13,-0.309l-0.128,-0.31l-0.127,-0.31l-0.127,-0.311l-0.126,-0.311l-0.124,-0.312l-0.124,-0.313l-0.123,-0.312l-0.122,-0.314l-0.121,-0.313l-0.12,-0.314l-0.119,-0.315l-0.118,-0.315l-0.118,-0.316l-0.116,-0.316l-0.115,-0.316l-0.115,-0.317l-0.113,-0.317l-0.113,-0.318l-0.112,-0.318l-0.11,-0.319l-0.11,-0.319l-0.109,-0.32l-0.108,-0.32l-0.107,-0.32l-0.106,-0.321l-0.104,-0.322l-0.105,-0.321l-0.103,-0.323l-0.102,-0.322l-0.101,-0.323l-0.1,-0.324l-0.099,-0.324l-0.098,-0.324l-0.098,-0.325l-0.096,-0.325l-0.095,-0.326l-0.094,-0.326l-0.094,-0.326l-0.092,-0.327l-0.092,-0.327l-0.09,-0.328l-0.089,-0.328l-0.089,-0.328l-0.087,-0.329l-0.087,-0.329l-0.085,-0.33l-0.085,-0.33l-0.083,-0.33l-0.082,-0.331l-0.082,-0.332l-0.08,-0.331l-0.08,-0.332l-0.078,-0.332l-0.078,-0.333l-0.076,-0.333l-0.076,-0.334l-0.074,-0.334l-0.073,-0.334l-0.073,-0.334l-0.071,-0.335l-0.07,-0.336l-0.07,-0.335l-0.068,-0.337l-0.067,-0.336l-0.067,-0.337l-0.065,-0.337l-0.064,-0.337l-0.063,-0.338l-0.062,-0.338l-0.061,-0.339l-0.06,-0.339l-0.059,-0.339l-0.058,-0.34l-0.057,-0.339l-0.056,-0.341l-0.055,-0.34l-0.054,-0.341l-0.053,-0.341l-0.051,-0.342l-0.051,-0.342l-0.049,-0.342l-0.049,-0.342l-0.048,-0.343l-0.046,-0.343l-0.045,-0.344l-0.045,-0.344l-0.043,-0.344l-0.042,-0.344l-0.041,-0.345l-0.04,-0.345l-0.039,-0.345l-0.038,-0.346l-0.037,-0.345l-0.036,-0.347l-0.034,-0.346l-0.034,-0.347l-0.032,-0.347l-0.032,-0.347l-0.03,-0.348l-0.029,-0.348l-0.029,-0.348l-0.027,-0.348l-0.026,-0.349l-0.025,-0.349l-0.024,-0.349l-0.022,-0.35l-0.022,-0.349l-0.02,-0.35l-0.02,-0.351l-0.018,-0.35l-0.018,-0.351l-0.016,-0.351l-0.015,-0.351l-0.014,-0.352l-0.012,-0.352l-0.012,-0.352l-0.011,-0.352l-0.009,-0.352l-0.009,-0.353l-0.007,-0.353l-0.006,-0.353l-0.005,-0.354l-0.004,-0.353l-0.003,-0.354l-0.002,-0.354l0,-0.355l0,-0.354l0.002,-0.354l0.003,-0.354l0.004,-0.354l0.005,-0.353l0.006,-0.353l0.007,-0.353l0.009,-0.353l0.009,-0.352l0.011,-0.353l0.012,-0.352l0.012,-0.351l0.014,-0.352l0.015,-0.351l0.016,-0.351l0.018,-0.351l0.018,-0.351l0.02,-0.35l0.02,-0.35l0.022,-0.35l0.022,-0.349l0.024,-0.349l0.025,-0.349l0.026,-0.349l0.027,-0.348l0.029,-0.349l0.029,-0.347l0.03,-0.348l0.032,-0.347l0.032,-0.347l0.034,-0.347l0.034,-0.347l0.036,-0.346l0.037,-0.346l0.038,-0.345l0.039,-0.346l0.04,-0.345l0.041,-0.344l0.042,-0.345l0.043,-0.344l0.045,-0.343l0.045,-0.344l0.046,-0.343l0.048,-0.343l0.049,-0.342l0.049,-0.343l0.051,-0.341l0.051,-0.342l0.053,-0.341l0.054,-0.341l0.055,-0.341l0.056,-0.34l0.057,-0.34l0.058,-0.339l0.059,-0.339l0.06,-0.339l0.061,-0.339l0.062,-0.338l0.063,-0.338l0.064,-0.337l0.065,-0.337l0.067,-0.337l0.067,-0.337l0.068,-0.336l0.07,-0.335l0.07,-0.336l0.071,-0.335l0.073,-0.334l0.073,-0.335l0.074,-0.333l0.076,-0.334l0.076,-0.333l0.078,-0.333l0.078,-0.332l0.08,-0.332l0.08,-0.332l0.082,-0.331l0.082,-0.331l0.083,-0.33l0.085,-0.33l0.085,-0.33l0.087,-0.329l0.087,-0.329l0.089,-0.328l0.089,-0.328l0.09,-0.328l0.092,-0.327l0.092,-0.327l0.094,-0.327l0.094,-0.326l0.095,-0.325l0.096,-0.325l0.098,-0.325l0.098,-0.324l0.099,-0.324l0.1,-0.324l0.101,-0.323l0.102,-0.323l0.103,-0.322l0.105,-0.322l0.104,-0.321l0.106,-0.321l0.107,-0.32l0.108,-0.32l0.109,-0.32l0.11,-0.319l0.11,-0.319l0.112,-0.318l0.113,-0.318l0.113,-0.317l0.115,-0.317l0.115,-0.317l0.116,-0.316l0.118,-0.315l0.118,-0.315l0.119,-0.315l0.12,-0.314l0.121,-0.314l0.122,-0.313l0.123,-0.313l0.124,-0.312l0.124,-0.312l0.126,-0.311l0.127,-0.311l0.127,-0.31l0.128,-0.31l0.13,-0.31l0.13,-0.309l0.131,-0.308l0.132,-0.308l0.133,-0.308l0.134,-0.307l0.135,-0.306l0.135,-0.306l0.137,-0.306l0.137,-0.305l0.139,-0.304l0.139,-0.304l0.14,-0.304l0.141,-0.303l0.142,-0.302l0.143,-0.302l0.143,-0.302l0.145,-0.301l0.145,-0.3l0.147,-0.3l0.147,-0.299l0.148,-0.299l0.149,-0.299l0.15,-0.297l0.15,-0.298l0.152,-0.297l0.152,-0.296l0.153,-0.296l0.155,-0.295l0.155,-0.295l0.155,-0.294l0.157,-0.293l0.158,-0.293l0.158,-0.293l0.159,-0.292l0.161,-0.292l0.161,-0.29l0.161,-0.291l0.163,-0.29l0.164,-0.289l0.164,-0.289l0.165,-0.288l0.166,-0.287l0.167,-0.288l0.168,-0.286l0.168,-0.286l0.17,-0.285l0.17,-0.285l0.171,-0.285l0.172,-0.283l0.173,-0.283l0.173,-0.283l0.175,-0.282l0.175,-0.281l0.176,-0.281l0.177,-0.281l0.177,-0.279l0.179,-0.279l0.179,-0.279l0.18,-0.278l0.181,-0.277l0.181,-0.277l0.183,-0.276l0.183,-0.276l0.184,-0.275l0.185,-0.274l0.186,-0.274l0.186,-0.274l0.188,-0.272l0.188,-0.272l0.188,-0.272l0.19,-0.271l0.191,-0.27l0.191,-0.269l0.192,-0.27l0.193,-0.268l0.193,-0.268l0.194,-0.267l0.196,-0.267l0.195,-0.266l0.197,-0.265l0.198,-0.265l0.198,-0.264l0.199,-0.264l0.2,-0.262l0.2,-0.263l0.201,-0.261l0.202,-0.261l0.203,-0.261l0.204,-0.26l0.204,-0.259l0.205,-0.258l0.206,-0.258l0.207,-0.257l0.207,-0.257l0.208,-0.256l0.209,-0.255l0.21,-0.255l0.21,-0.254l0.211,-0.254l0.212,-0.252l0.212,-0.252l0.214,-0.252l0.214,-0.251l0.214,-0.25l0.216,-0.249l0.216,-0.249l0.217,-0.248l0.218,-0.248l0.218,-0.247l0.219,-0.246l0.22,-0.246l0.221,-0.244l0.221,-0.245l0.222,-0.243l0.223,-0.243l0.224,-0.242l0.224,-0.242l0.225,-0.241l0.225,-0.24l0.227,-0.239l0.227,-0.239l0.227,-0.238l0.229,-0.238l0.229,-0.237l0.23,-0.236l0.23,-0.235l0.232,-0.235l0.231,-0.234l0.233,-0.233l0.233,-0.233l0.234,-0.232l0.235,-0.231l0.236,-0.231l0.236,-0.229l0.236,-0.23l0.238,-0.228l0.238,-0.228l0.239,-0.227l0.239,-0.226l0.241,-0.226l0.24,-0.225l0.242,-0.224l0.242,-0.223l0.243,-0.223l0.244,-0.222l0.244,-0.221l0.245,-0.221l0.245,-0.22l0.246,-0.219l0.247,-0.218l0.248,-0.218l0.248,-0.217l0.249,-0.216l0.249,-0.216l0.251,-0.215l0.25,-0.214l0.252,-0.213l0.252,-0.213l0.253,-0.211l0.253,-0.211l0.254,-0.211l0.255,-0.209l0.255,-0.209l0.256,-0.208l0.257,-0.208l0.257,-0.206l0.258,-0.206l0.258,-0.205l0.26,-0.205l0.259,-0.203l0.261,-0.203l0.261,-0.202l0.262,-0.201l0.262,-0.201l0.263,-0.2l0.263,-0.199l0.264,-0.198l0.265,-0.197l0.266,-0.197l0.266,-0.196l0.266,-0.195l0.267,-0.194l0.268,-0.194l0.269,-0.193l0.269,-0.192l0.269,-0.191l0.271,-0.19l0.271,-0.19l0.271,-0.189l0.272,-0.188l0.273,-0.187l0.273,-0.187l0.274,-0.185l0.274,-0.185l0.275,-0.184l0.276,-0.183l0.276,-0.183l0.277,-0.182l0.277,-0.18l0.278,-0.18l0.279,-0.18l0.279,-0.178l0.28,-0.178l0.28,-0.177l0.281,-0.176l0.281,-0.175l0.282,-0.174l0.283,-0.174l0.283,-0.172l0.284,-0.172l0.284,-0.171l0.285,-0.17l0.285,-0.17l0.286,-0.168l0.287,-0.168l0.287,-0.167l0.287,-0.166l0.289,-0.165l0.288,-0.165l0.29,-0.163l0.289,-0.163l0.291,-0.162l0.291,-0.161l0.291,-0.16l0.292,-0.159l0.293,-0.159l0.293,-0.157l0.294,-0.157l0.294,-0.156l0.294,-0.155l0.296,-0.154l0.295,-0.153l0.297,-0.153l0.296,-0.151l0.298,-0.151l0.298,-0.15l0.298,-0.149l0.299,-0.148l0.299,-0.147l0.3,-0.146l0.301,-0.146l0.301,-0.144l0.301,-0.144l0.302,-0.142l0.303,-0.142l0.303,-0.141l0.303,-0.141l0.304,-0.139l0.305,-0.138l0.305,-0.137l0.305,-0.137l0.306,-0.136l0.307,-0.134l0.307,-0.134l0.307,-0.133l0.308,-0.132l0.309,-0.131l0.309,-0.131l0.309,-0.129l0.31,-0.128l0.31,-0.128l0.311,-0.126l0.312,-0.126l0.311,-0.125l0.313,-0.123l0.312,-0.123l0.314,-0.122l0.313,-0.121l0.314,-0.12l0.315,-0.119l0.315,-0.119l0.316,-0.117l0.316,-0.116l0.316,-0.116l0.317,-0.114l0.317,-0.114l0.318,-0.112l0.319,-0.112l0.318,-0.111l0.319,-0.109l0.32,-0.109l0.32,-0.108l0.32,-0.107l0.321,-0.106l0.322,-0.105l0.322,-0.104l0.322,-0.103l0.322,-0.102l0.323,-0.101l0.324,-0.1l0.324,-0.099l0.324,-0.099l0.325,-0.097l0.325,-0.096l0.326,-0.095l0.326,-0.095l0.326,-0.093l0.327,-0.092l0.327,-0.092l0.328,-0.09l0.328,-0.09l0.328,-0.088l0.329,-0.087l0.329,-0.087l0.33,-0.085l0.33,-0.085l0.331,-0.083l0.33,-0.083l0.332,-0.081l0.331,-0.081l0.332,-0.079l0.333,-0.079l0.332,-0.077l0.333,-0.076l0.334,-0.076l0.334,-0.074l0.334,-0.074l0.335,-0.072l0.335,-0.071l0.335,-0.071l0.336,-0.069l0.336,-0.068l0.336,-0.068l0.337,-0.066l0.337,-0.065l0.337,-0.064l0.338,-0.063l0.338,-0.063l0.339,-0.061l0.339,-0.06l0.339,-0.059l0.34,-0.058l0.339,-0.057l0.341,-0.055l0.34,-0.055l0.341,-0.054l0.341,-0.053l0.342,-0.052l0.342,-0.05l0.342,-0.05l0.342,-0.048l0.343,-0.048l0.343,-0.046l0.344,-0.046l0.344,-0.044l0.344,-0.043l0.344,-0.042l0.345,-0.041l0.345,-0.04l0.345,-0.039l0.346,-0.038l0.345,-0.037l0.347,-0.036l0.346,-0.035l0.347,-0.033l0.347,-0.033l0.347,-0.031l0.348,-0.03l0.348,-0.03l0.348,-0.028l0.348,-0.027l0.349,-0.026l0.349,-0.025l0.349,-0.024l0.35,-0.023l0.349,-0.021l0.35,-0.021l0.351,-0.019l0.35,-0.019l0.351,-0.017l0.351,-0.016l0.351,-0.015l0.352,-0.014l0.352,-0.013l0.352,-0.011l0.352,-0.011l0.352,-0.01l0.353,-0.008l0.353,-0.007l0.353,-0.006l0.354,-0.005l0.353,-0.004l0.354,-0.003l0.354,-0.002l0.355,0l0.354,0Zm-0.645,20.189l-0.29,0.001l-0.29,0.003l-0.289,0.003l-0.29,0.004l-0.289,0.005l-0.289,0.006l-0.288,0.007l-0.289,0.008l-0.288,0.008l-0.288,0.01l-0.288,0.01l-0.288,0.012l-0.287,0.012l-0.287,0.013l-0.287,0.014l-0.287,0.015l-0.286,0.016l-0.287,0.017l-0.286,0.018l-0.285,0.018l-0.286,0.02l-0.285,0.02l-0.285,0.021l-0.285,0.023l-0.284,0.023l-0.284,0.024l-0.284,0.024l-0.284,0.026l-0.284,0.027l-0.283,0.027l-0.283,0.028l-0.283,0.03l-0.282,0.03l-0.282,0.031l-0.282,0.031l-0.282,0.033l-0.281,0.034l-0.282,0.034l-0.28,0.035l-0.281,0.037l-0.28,0.037l-0.28,0.038l-0.28,0.038l-0.28,0.04l-0.279,0.04l-0.279,0.042l-0.279,0.042l-0.278,0.043l-0.278,0.044l-0.278,0.045l-0.278,0.045l-0.277,0.047l-0.277,0.047l-0.277,0.048l-0.276,0.049l-0.276,0.05l-0.276,0.05l-0.276,0.052l-0.275,0.052l-0.275,0.054l-0.274,0.054l-0.275,0.054l-0.274,0.056l-0.274,0.057l-0.273,0.057l-0.273,0.058l-0.273,0.059l-0.273,0.06l-0.272,0.061l-0.272,0.061l-0.271,0.063l-0.272,0.063l-0.27,0.064l-0.271,0.064l-0.27,0.066l-0.271,0.066l-0.269,0.068l-0.27,0.068l-0.269,0.068l-0.268,0.07l-0.269,0.071l-0.268,0.071l-0.268,0.072l-0.267,0.073l-0.267,0.074l-0.267,0.074l-0.266,0.075l-0.266,0.076l-0.266,0.077l-0.266,0.078l-0.265,0.078l-0.264,0.08l-0.265,0.08l-0.264,0.081l-0.264,0.081l-0.263,0.083l-0.263,0.083l-0.263,0.084l-0.262,0.085l-0.262,0.085l-0.261,0.087l-0.262,0.087l-0.261,0.088l-0.26,0.088l-0.26,0.09l-0.26,0.09l-0.26,0.091l-0.259,0.092l-0.259,0.093l-0.258,0.093l-0.258,0.094l-0.258,0.095l-0.257,0.095l-0.257,0.097l-0.256,0.097l-0.256,0.098l-0.256,0.099l-0.256,0.099l-0.255,0.1l-0.254,0.101l-0.254,0.102l-0.254,0.102l-0.254,0.103l-0.253,0.104l-0.253,0.105l-0.252,0.106l-0.252,0.106l-0.252,0.107l-0.251,0.107l-0.25,0.109l-0.251,0.109l-0.25,0.11l-0.249,0.11l-0.25,0.112l-0.248,0.112l-0.249,0.113l-0.248,0.113l-0.247,0.115l-0.247,0.115l-0.247,0.115l-0.247,0.117l-0.246,0.117l-0.245,0.118l-0.245,0.119l-0.245,0.119l-0.244,0.12l-0.244,0.121l-0.244,0.121l-0.243,0.123l-0.242,0.123l-0.242,0.123l-0.242,0.125l-0.242,0.125l-0.241,0.125l-0.24,0.127l-0.24,0.127l-0.24,0.128l-0.239,0.129l-0.239,0.129l-0.238,0.13l-0.238,0.131l-0.237,0.131l-0.237,0.132l-0.237,0.133l-0.236,0.134l-0.236,0.134l-0.235,0.135l-0.235,0.135l-0.234,0.136l-0.234,0.137l-0.234,0.138l-0.233,0.138l-0.232,0.139l-0.232,0.14l-0.232,0.14l-0.231,0.141l-0.231,0.142l-0.23,0.142l-0.23,0.143l-0.229,0.144l-0.229,0.144l-0.229,0.146l-0.228,0.145l-0.227,0.147l-0.227,0.147l-0.227,0.147l-0.226,0.149l-0.226,0.149l-0.225,0.15l-0.224,0.15l-0.225,0.151l-0.223,0.152l-0.223,0.152l-0.223,0.153l-0.222,0.154l-0.222,0.154l-0.222,0.155l-0.22,0.155l-0.221,0.157l-0.219,0.156l-0.22,0.158l-0.219,0.158l-0.218,0.159l-0.218,0.159l-0.217,0.16l-0.217,0.161l-0.216,0.161l-0.216,0.162l-0.216,0.163l-0.214,0.163l-0.215,0.164l-0.214,0.165l-0.213,0.165l-0.213,0.166l-0.212,0.166l-0.212,0.167l-0.211,0.168l-0.211,0.168l-0.21,0.169l-0.21,0.169l-0.209,0.17l-0.209,0.171l-0.208,0.171l-0.208,0.172l-0.207,0.173l-0.207,0.173l-0.206,0.174l-0.205,0.174l-0.205,0.175l-0.205,0.175l-0.204,0.177l-0.203,0.176l-0.203,0.178l-0.202,0.178l-0.202,0.178l-0.201,0.179l-0.201,0.18l-0.2,0.18l-0.2,0.181l-0.199,0.182l-0.199,0.182l-0.198,0.183l-0.197,0.183l-0.197,0.184l-0.196,0.184l-0.196,0.185l-0.195,0.186l-0.195,0.186l-0.194,0.187l-0.194,0.187l-0.193,0.188l-0.192,0.189l-0.192,0.189l-0.191,0.189l-0.191,0.191l-0.19,0.19l-0.19,0.192l-0.189,0.191l-0.189,0.193l-0.187,0.193l-0.188,0.194l-0.187,0.194l-0.186,0.194l-0.185,0.196l-0.185,0.195l-0.185,0.197l-0.184,0.197l-0.183,0.197l-0.183,0.198l-0.182,0.199l-0.181,0.199l-0.181,0.199l-0.181,0.201l-0.179,0.2l-0.179,0.202l-0.179,0.201l-0.178,0.203l-0.177,0.203l-0.177,0.203l-0.176,0.204l-0.176,0.205l-0.175,0.205l-0.174,0.205l-0.174,0.206l-0.173,0.207l-0.173,0.207l-0.172,0.208l-0.171,0.208l-0.171,0.208l-0.17,0.21l-0.169,0.209l-0.169,0.211l-0.168,0.21l-0.168,0.212l-0.167,0.212l-0.166,0.212l-0.166,0.213l-0.165,0.213l-0.165,0.214l-0.163,0.214l-0.164,0.215l-0.162,0.215l-0.162,0.216l-0.162,0.217l-0.16,0.217l-0.16,0.217l-0.16,0.218l-0.159,0.218l-0.158,0.219l-0.157,0.219l-0.157,0.22l-0.156,0.22l-0.156,0.221l-0.155,0.221l-0.154,0.222l-0.154,0.223l-0.153,0.222l-0.152,0.224l-0.152,0.223l-0.151,0.224l-0.15,0.225l-0.15,0.225l-0.149,0.226l-0.148,0.226l-0.148,0.226l-0.147,0.227l-0.146,0.228l-0.146,0.228l-0.145,0.228l-0.145,0.229l-0.143,0.23l-0.143,0.229l-0.143,0.231l-0.141,0.23l-0.142,0.232l-0.14,0.231l-0.14,0.232l-0.138,0.233l-0.139,0.233l-0.137,0.233l-0.137,0.234l-0.137,0.235l-0.135,0.235l-0.135,0.235l-0.134,0.236l-0.134,0.236l-0.132,0.236l-0.133,0.237l-0.131,0.238l-0.131,0.238l-0.13,0.238l-0.129,0.239l-0.129,0.239l-0.128,0.24l-0.127,0.24l-0.126,0.24l-0.126,0.241l-0.125,0.241l-0.124,0.242l-0.124,0.242l-0.123,0.243l-0.122,0.243l-0.122,0.244l-0.121,0.243l-0.12,0.245l-0.119,0.244l-0.119,0.246l-0.118,0.245l-0.117,0.246l-0.116,0.246l-0.116,0.247l-0.115,0.247l-0.114,0.248l-0.114,0.248l-0.113,0.248l-0.112,0.249l-0.111,0.249l-0.111,0.25l-0.11,0.25l-0.109,0.25l-0.108,0.251l-0.108,0.251l-0.107,0.252l-0.106,0.252l-0.106,0.252l-0.104,0.253l-0.104,0.253l-0.103,0.253l-0.103,0.254l-0.102,0.255l-0.101,0.254l-0.1,0.255l-0.099,0.256l-0.099,0.255l-0.098,0.257l-0.097,0.256l-0.096,0.257l-0.096,0.257l-0.095,0.258l-0.094,0.258l-0.093,0.258l-0.093,0.259l-0.092,0.259l-0.091,0.26l-0.09,0.259l-0.089,0.261l-0.089,0.26l-0.088,0.261l-0.087,0.261l-0.086,0.262l-0.086,0.262l-0.085,0.262l-0.084,0.263l-0.083,0.263l-0.082,0.263l-0.082,0.264l-0.081,0.264l-0.08,0.264l-0.079,0.265l-0.079,0.265l-0.077,0.266l-0.077,0.265l-0.076,0.266l-0.076,0.267l-0.074,0.267l-0.074,0.267l-0.073,0.267l-0.072,0.268l-0.071,0.268l-0.071,0.268l-0.069,0.269l-0.069,0.269l-0.068,0.27l-0.067,0.269l-0.067,0.27l-0.065,0.271l-0.065,0.27l-0.064,0.271l-0.063,0.271l-0.063,0.272l-0.061,0.272l-0.061,0.272l-0.06,0.273l-0.059,0.273l-0.058,0.273l-0.057,0.273l-0.057,0.274l-0.055,0.274l-0.055,0.274l-0.054,0.275l-0.053,0.275l-0.053,0.275l-0.051,0.276l-0.051,0.276l-0.05,0.276l-0.049,0.276l-0.048,0.277l-0.047,0.277l-0.047,0.277l-0.045,0.278l-0.045,0.277l-0.044,0.279l-0.043,0.278l-0.042,0.279l-0.041,0.279l-0.041,0.279l-0.039,0.279l-0.039,0.28l-0.038,0.28l-0.037,0.281l-0.036,0.28l-0.036,0.281l-0.034,0.281l-0.034,0.282l-0.032,0.281l-0.032,0.282l-0.031,0.283l-0.03,0.282l-0.029,0.283l-0.029,0.283l-0.027,0.283l-0.027,0.283l-0.025,0.284l-0.025,0.284l-0.024,0.284l-0.023,0.285l-0.022,0.285l-0.022,0.285l-0.02,0.285l-0.019,0.285l-0.019,0.286l-0.018,0.286l-0.016,0.286l-0.016,0.287l-0.015,0.286l-0.014,0.287l-0.014,0.288l-0.012,0.287l-0.011,0.287l-0.011,0.288l-0.009,0.288l-0.009,0.289l-0.008,0.288l-0.007,0.289l-0.006,0.289l-0.005,0.289l-0.004,0.29l-0.003,0.289l-0.002,0.29l-0.002,0.29l0,0.29l0,0.291l0.002,0.29l0.002,0.29l0.003,0.289l0.004,0.29l0.005,0.289l0.006,0.289l0.007,0.289l0.008,0.288l0.009,0.288l0.009,0.288l0.011,0.288l0.011,0.288l0.012,0.287l0.014,0.287l0.014,0.287l0.015,0.287l0.016,0.286l0.016,0.287l0.018,0.286l0.019,0.285l0.019,0.286l0.02,0.285l0.022,0.285l0.022,0.285l0.023,0.284l0.024,0.285l0.025,0.284l0.025,0.283l0.027,0.284l0.027,0.283l0.029,0.283l0.029,0.283l0.03,0.282l0.031,0.282l0.032,0.282l0.032,0.282l0.034,0.281l0.034,0.282l0.036,0.281l0.036,0.28l0.037,0.28l0.038,0.281l0.039,0.279l0.039,0.28l0.041,0.279l0.041,0.279l0.042,0.279l0.043,0.278l0.044,0.278l0.045,0.278l0.045,0.278l0.047,0.277l0.047,0.277l0.048,0.277l0.049,0.276l0.05,0.276l0.051,0.276l0.051,0.276l0.053,0.275l0.053,0.275l0.054,0.274l0.055,0.275l0.055,0.274l0.057,0.274l0.057,0.273l0.058,0.273l0.059,0.273l0.06,0.273l0.061,0.272l0.061,0.272l0.063,0.271l0.063,0.272l0.064,0.271l0.065,0.27l0.065,0.271l0.067,0.27l0.067,0.269l0.068,0.27l0.069,0.269l0.069,0.268l0.071,0.269l0.071,0.268l0.072,0.268l0.073,0.267l0.074,0.267l0.074,0.267l0.076,0.266l0.076,0.267l0.077,0.265l0.077,0.266l0.079,0.265l0.079,0.265l0.08,0.264l0.081,0.264l0.082,0.264l0.082,0.263l0.083,0.263l0.084,0.263l0.085,0.262l0.086,0.262l0.086,0.262l0.087,0.261l0.088,0.261l0.089,0.26l0.089,0.26l0.09,0.26l0.091,0.26l0.092,0.259l0.093,0.259l0.093,0.258l0.094,0.258l0.095,0.258l0.096,0.257l0.096,0.257l0.097,0.256l0.098,0.256l0.099,0.256l0.099,0.256l0.1,0.255l0.101,0.254l0.102,0.255l0.103,0.253l0.103,0.254l0.104,0.253l0.104,0.253l0.106,0.252l0.106,0.252l0.107,0.252l0.108,0.251l0.108,0.251l0.109,0.25l0.11,0.25l0.111,0.249l0.111,0.25l0.112,0.248l0.113,0.249l0.114,0.248l0.114,0.247l0.115,0.248l0.116,0.246l0.116,0.247l0.117,0.246l0.118,0.245l0.119,0.245l0.119,0.245l0.12,0.244l0.121,0.244l0.122,0.244l0.122,0.243l0.123,0.242l0.124,0.243l0.124,0.241l0.125,0.242l0.126,0.241l0.126,0.24l0.127,0.24l0.128,0.24l0.129,0.239l0.129,0.239l0.13,0.238l0.131,0.238l0.131,0.238l0.133,0.237l0.132,0.236l0.134,0.236l0.134,0.236l0.135,0.235l0.135,0.235l0.137,0.234l0.137,0.234l0.137,0.234l0.139,0.233l0.138,0.232l0.14,0.232l0.14,0.232l0.142,0.231l0.141,0.231l0.143,0.23l0.143,0.23l0.143,0.23l0.145,0.228l0.145,0.229l0.146,0.228l0.146,0.227l0.147,0.227l0.148,0.227l0.148,0.226l0.149,0.226l0.15,0.225l0.15,0.224l0.151,0.225l0.152,0.223l0.152,0.224l0.153,0.222l0.154,0.223l0.154,0.221l0.155,0.222l0.156,0.22l0.156,0.221l0.157,0.22l0.157,0.219l0.158,0.219l0.159,0.218l0.16,0.218l0.16,0.217l0.16,0.217l0.162,0.217l0.162,0.215l0.162,0.216l0.164,0.215l0.163,0.214l0.165,0.214l0.165,0.213l0.166,0.213l0.166,0.212l0.167,0.212l0.168,0.211l0.168,0.211l0.169,0.21l0.169,0.21l0.17,0.209l0.171,0.209l0.171,0.208l0.172,0.208l0.173,0.207l0.173,0.207l0.174,0.206l0.174,0.205l0.175,0.205l0.176,0.205l0.176,0.204l0.177,0.203l0.177,0.203l0.178,0.202l0.179,0.202l0.179,0.201l0.179,0.201l0.181,0.2l0.181,0.2l0.181,0.199l0.182,0.199l0.183,0.198l0.183,0.197l0.184,0.197l0.185,0.196l0.185,0.196l0.185,0.195l0.186,0.195l0.187,0.194l0.188,0.194l0.187,0.193l0.189,0.192l0.189,0.192l0.19,0.192l0.19,0.19l0.191,0.191l0.191,0.189l0.192,0.189l0.192,0.189l0.193,0.188l0.194,0.187l0.194,0.187l0.195,0.186l0.195,0.185l0.196,0.185l0.196,0.185l0.197,0.184l0.197,0.183l0.198,0.183l0.199,0.182l0.199,0.181l0.2,0.181l0.2,0.181l0.201,0.179l0.201,0.18l0.202,0.178l0.202,0.178l0.203,0.177l0.203,0.177l0.204,0.176l0.205,0.176l0.205,0.175l0.205,0.174l0.206,0.174l0.207,0.173l0.207,0.173l0.208,0.172l0.208,0.171l0.209,0.171l0.209,0.17l0.21,0.169l0.21,0.169l0.211,0.168l0.211,0.168l0.212,0.167l0.212,0.166l0.213,0.166l0.213,0.165l0.214,0.165l0.215,0.164l0.214,0.163l0.216,0.162l0.216,0.162l0.216,0.162l0.217,0.16l0.217,0.16l0.218,0.16l0.218,0.159l0.219,0.158l0.22,0.157l0.219,0.157l0.221,0.156l0.22,0.156l0.222,0.155l0.222,0.154l0.222,0.154l0.223,0.153l0.223,0.152l0.223,0.152l0.225,0.151l0.224,0.15l0.225,0.15l0.226,0.149l0.226,0.148l0.227,0.148l0.227,0.147l0.227,0.147l0.228,0.145l0.229,0.145l0.229,0.145l0.229,0.143l0.23,0.144l0.23,0.142l0.231,0.142l0.231,0.141l0.232,0.14l0.232,0.14l0.232,0.139l0.233,0.138l0.234,0.138l0.234,0.136l0.234,0.137l0.235,0.135l0.235,0.135l0.236,0.134l0.236,0.134l0.237,0.133l0.237,0.132l0.237,0.131l0.238,0.131l0.238,0.13l0.239,0.129l0.239,0.129l0.24,0.128l0.24,0.127l0.24,0.126l0.241,0.126l0.242,0.125l0.242,0.125l0.242,0.123l0.242,0.123l0.243,0.122l0.244,0.122l0.244,0.121l0.244,0.12l0.245,0.119l0.245,0.119l0.245,0.118l0.246,0.117l0.247,0.116l0.247,0.116l0.247,0.115l0.247,0.115l0.248,0.113l0.249,0.113l0.248,0.112l0.25,0.111l0.249,0.111l0.25,0.11l0.251,0.109l0.25,0.109l0.251,0.107l0.252,0.107l0.252,0.106l0.252,0.106l0.253,0.104l0.253,0.104l0.254,0.104l0.254,0.102l0.254,0.102l0.254,0.101l0.255,0.1l0.256,0.099l0.256,0.099l0.256,0.098l0.256,0.097l0.257,0.096l0.257,0.096l0.258,0.095l0.258,0.094l0.258,0.093l0.259,0.093l0.259,0.092l0.26,0.091l0.26,0.09l0.26,0.089l0.26,0.089l0.261,0.088l0.262,0.087l0.261,0.086l0.262,0.086l0.262,0.085l0.263,0.084l0.263,0.083l0.263,0.082l0.264,0.082l0.264,0.081l0.265,0.08l0.264,0.079l0.265,0.079l0.266,0.078l0.266,0.076l0.266,0.076l0.266,0.076l0.267,0.074l0.267,0.074l0.267,0.073l0.268,0.072l0.268,0.071l0.269,0.071l0.268,0.069l0.269,0.069l0.27,0.068l0.269,0.067l0.271,0.067l0.27,0.065l0.271,0.065l0.27,0.064l0.272,0.063l0.271,0.063l0.272,0.061l0.272,0.061l0.273,0.06l0.273,0.059l0.273,0.058l0.273,0.057l0.274,0.057l0.274,0.055l0.275,0.055l0.274,0.054l0.275,0.053l0.275,0.053l0.276,0.051l0.276,0.051l0.276,0.05l0.276,0.049l0.277,0.048l0.277,0.047l0.277,0.047l0.278,0.045l0.278,0.045l0.278,0.044l0.278,0.043l0.279,0.042l0.279,0.041l0.279,0.041l0.28,0.04l0.28,0.038l0.28,0.038l0.28,0.037l0.281,0.036l0.28,0.036l0.282,0.034l0.281,0.034l0.282,0.032l0.282,0.032l0.282,0.031l0.282,0.03l0.283,0.029l0.283,0.029l0.283,0.027l0.284,0.027l0.284,0.025l0.284,0.025l0.284,0.024l0.284,0.023l0.285,0.022l0.285,0.022l0.285,0.02l0.286,0.019l0.285,0.019l0.286,0.018l0.287,0.017l0.286,0.015l0.287,0.015l0.287,0.015l0.287,0.013l0.287,0.012l0.288,0.011l0.288,0.011l0.288,0.01l0.288,0.008l0.289,0.008l0.288,0.007l0.289,0.006l0.289,0.005l0.29,0.004l0.289,0.003l0.29,0.003l0.29,0.001l0.291,0l0.29,0l0.29,-0.001l0.29,-0.003l0.29,-0.003l0.289,-0.004l0.289,-0.005l0.289,-0.006l0.289,-0.007l0.288,-0.008l0.289,-0.008l0.288,-0.01l0.288,-0.011l0.287,-0.011l0.288,-0.012l0.287,-0.013l0.287,-0.015l0.286,-0.015l0.287,-0.015l0.286,-0.017l0.286,-0.018l0.286,-0.019l0.285,-0.019l0.285,-0.02l0.285,-0.022l0.285,-0.022l0.285,-0.023l0.284,-0.024l0.284,-0.025l0.284,-0.025l0.283,-0.027l0.283,-0.027l0.283,-0.029l0.283,-0.029l0.283,-0.03l0.282,-0.031l0.282,-0.032l0.281,-0.032l0.282,-0.034l0.281,-0.034l0.281,-0.036l0.28,-0.036l0.281,-0.037l0.28,-0.038l0.28,-0.038l0.279,-0.04l0.279,-0.041l0.279,-0.041l0.279,-0.042l0.278,-0.043l0.279,-0.044l0.277,-0.045l0.278,-0.045l0.277,-0.047l0.277,-0.047l0.277,-0.048l0.276,-0.049l0.277,-0.05l0.275,-0.051l0.276,-0.051l0.275,-0.053l0.275,-0.053l0.275,-0.054l0.274,-0.055l0.274,-0.055l0.274,-0.057l0.273,-0.057l0.274,-0.058l0.272,-0.059l0.273,-0.06l0.272,-0.061l0.272,-0.061l0.272,-0.063l0.271,-0.063l0.271,-0.064l0.271,-0.065l0.27,-0.065l0.27,-0.067l0.27,-0.067l0.269,-0.068l0.269,-0.069l0.269,-0.069l0.268,-0.071l0.268,-0.071l0.268,-0.072l0.267,-0.073l0.268,-0.074l0.266,-0.074l0.267,-0.076l0.266,-0.076l0.266,-0.076l0.265,-0.078l0.265,-0.079l0.265,-0.079l0.264,-0.08l0.264,-0.081l0.264,-0.082l0.263,-0.082l0.263,-0.083l0.263,-0.084l0.262,-0.085l0.262,-0.086l0.262,-0.086l0.261,-0.087l0.261,-0.088l0.261,-0.089l0.26,-0.089l0.26,-0.09l0.259,-0.091l0.259,-0.092l0.259,-0.093l0.258,-0.093l0.258,-0.094l0.258,-0.095l0.257,-0.096l0.257,-0.096l0.257,-0.097l0.256,-0.098l0.256,-0.099l0.255,-0.099l0.255,-0.1l0.255,-0.101l0.254,-0.102l0.254,-0.102l0.253,-0.104l0.253,-0.104l0.253,-0.104l0.252,-0.106l0.252,-0.106l0.252,-0.107l0.251,-0.107l0.251,-0.109l0.25,-0.109l0.25,-0.11l0.25,-0.111l0.249,-0.111l0.249,-0.112l0.248,-0.113l0.248,-0.113l0.248,-0.115l0.247,-0.115l0.247,-0.116l0.246,-0.116l0.246,-0.117l0.245,-0.118l0.246,-0.119l0.244,-0.119l0.245,-0.12l0.244,-0.121l0.243,-0.122l0.243,-0.122l0.243,-0.123l0.242,-0.123l0.242,-0.125l0.241,-0.125l0.241,-0.126l0.24,-0.126l0.24,-0.127l0.24,-0.128l0.239,-0.129l0.239,-0.129l0.238,-0.13l0.238,-0.131l0.238,-0.131l0.237,-0.132l0.236,-0.133l0.237,-0.134l0.235,-0.134l0.236,-0.135l0.234,-0.135l0.235,-0.137l0.234,-0.136l0.233,-0.138l0.233,-0.138l0.233,-0.139l0.232,-0.14l0.231,-0.14l0.232,-0.141l0.23,-0.142l0.231,-0.142l0.229,-0.144l0.23,-0.143l0.229,-0.145l0.228,-0.145l0.228,-0.145l0.228,-0.147l0.227,-0.147l0.226,-0.148l0.226,-0.148l0.226,-0.149l0.225,-0.15l0.225,-0.15l0.224,-0.151l0.224,-0.152l0.223,-0.152l0.223,-0.153l0.222,-0.154l0.222,-0.154l0.221,-0.155l0.221,-0.156l0.22,-0.156l0.22,-0.157l0.219,-0.157l0.219,-0.158l0.218,-0.159l0.218,-0.16l0.218,-0.16l0.216,-0.16l0.217,-0.162l0.216,-0.162l0.215,-0.162l0.215,-0.163l0.214,-0.164l0.214,-0.165l0.213,-0.165l0.213,-0.166l0.213,-0.166l0.211,-0.167l0.212,-0.168l0.21,-0.168l0.211,-0.169l0.209,-0.169l0.21,-0.17l0.208,-0.171l0.208,-0.171l0.208,-0.172l0.207,-0.173l0.207,-0.173l0.206,-0.174l0.206,-0.174l0.205,-0.175l0.204,-0.176l0.204,-0.176l0.203,-0.177l0.203,-0.177l0.203,-0.178l0.201,-0.178l0.202,-0.18l0.2,-0.179l0.201,-0.181l0.199,-0.181l0.199,-0.181l0.199,-0.182l0.198,-0.183l0.197,-0.183l0.197,-0.184l0.197,-0.185l0.195,-0.185l0.196,-0.185l0.194,-0.186l0.195,-0.187l0.193,-0.187l0.193,-0.188l0.193,-0.189l0.192,-0.189l0.191,-0.189l0.191,-0.191l0.19,-0.19l0.189,-0.192l0.189,-0.192l0.189,-0.192l0.188,-0.193l0.187,-0.194l0.187,-0.194l0.186,-0.195l0.186,-0.195l0.185,-0.196l0.184,-0.196l0.184,-0.197l0.183,-0.197l0.183,-0.198l0.182,-0.199l0.182,-0.199l0.181,-0.2l0.18,-0.2l0.18,-0.201l0.179,-0.201l0.178,-0.202l0.178,-0.202l0.178,-0.203l0.177,-0.203l0.176,-0.204l0.175,-0.205l0.175,-0.205l0.175,-0.205l0.173,-0.206l0.173,-0.207l0.173,-0.207l0.172,-0.208l0.171,-0.208l0.171,-0.209l0.17,-0.209l0.169,-0.21l0.169,-0.21l0.169,-0.211l0.167,-0.211l0.167,-0.212l0.167,-0.212l0.165,-0.213l0.165,-0.213l0.165,-0.214l0.164,-0.214l0.163,-0.215l0.163,-0.216l0.162,-0.215l0.161,-0.217l0.161,-0.217l0.16,-0.217l0.159,-0.218l0.159,-0.218l0.158,-0.219l0.158,-0.219l0.157,-0.22l0.156,-0.221l0.155,-0.22l0.155,-0.222l0.155,-0.221l0.153,-0.223l0.153,-0.222l0.153,-0.224l0.151,-0.223l0.151,-0.225l0.151,-0.224l0.149,-0.225l0.149,-0.226l0.149,-0.226l0.147,-0.227l0.147,-0.227l0.147,-0.227l0.146,-0.228l0.145,-0.229l0.144,-0.228l0.144,-0.23l0.143,-0.23l0.142,-0.23l0.142,-0.231l0.141,-0.231l0.14,-0.232l0.14,-0.232l0.139,-0.232l0.138,-0.233l0.138,-0.234l0.137,-0.234l0.136,-0.234l0.136,-0.235l0.134,-0.235l0.135,-0.236l0.133,-0.236l0.133,-0.236l0.132,-0.237l0.131,-0.238l0.131,-0.238l0.13,-0.238l0.129,-0.239l0.129,-0.239l0.128,-0.24l0.127,-0.24l0.127,-0.24l0.125,-0.241l0.126,-0.242l0.124,-0.241l0.124,-0.243l0.122,-0.242l0.123,-0.243l0.121,-0.244l0.121,-0.244l0.12,-0.244l0.12,-0.245l0.118,-0.245l0.118,-0.245l0.117,-0.246l0.117,-0.247l0.116,-0.246l0.115,-0.248l0.114,-0.247l0.113,-0.248l0.113,-0.249l0.112,-0.248l0.112,-0.25l0.11,-0.249l0.11,-0.25l0.109,-0.25l0.109,-0.251l0.107,-0.251l0.107,-0.252l0.107,-0.252l0.105,-0.252l0.105,-0.253l0.104,-0.253l0.103,-0.254l0.102,-0.253l0.102,-0.255l0.101,-0.254l0.1,-0.255l0.1,-0.256l0.098,-0.256l0.098,-0.256l0.097,-0.256l0.097,-0.257l0.095,-0.257l0.095,-0.258l0.094,-0.258l0.094,-0.258l0.092,-0.259l0.092,-0.259l0.091,-0.26l0.09,-0.26l0.09,-0.26l0.088,-0.26l0.088,-0.261l0.087,-0.261l0.087,-0.262l0.085,-0.262l0.085,-0.262l0.084,-0.263l0.083,-0.263l0.083,-0.263l0.081,-0.264l0.081,-0.264l0.08,-0.264l0.08,-0.265l0.078,-0.265l0.078,-0.266l0.077,-0.265l0.076,-0.267l0.075,-0.266l0.075,-0.267l0.073,-0.267l0.073,-0.267l0.072,-0.268l0.071,-0.268l0.071,-0.269l0.07,-0.268l0.068,-0.269l0.068,-0.27l0.068,-0.269l0.066,-0.27l0.066,-0.271l0.064,-0.27l0.064,-0.271l0.064,-0.272l0.062,-0.271l0.061,-0.272l0.061,-0.272l0.06,-0.273l0.059,-0.273l0.058,-0.273l0.057,-0.273l0.057,-0.274l0.056,-0.274l0.055,-0.275l0.054,-0.274l0.053,-0.275l0.052,-0.275l0.052,-0.276l0.05,-0.276l0.05,-0.276l0.049,-0.276l0.048,-0.277l0.048,-0.277l0.046,-0.277l0.046,-0.278l0.044,-0.278l0.044,-0.278l0.043,-0.278l0.042,-0.279l0.042,-0.279l0.04,-0.279l0.04,-0.28l0.039,-0.279l0.037,-0.281l0.038,-0.28l0.036,-0.28l0.035,-0.281l0.034,-0.282l0.034,-0.281l0.033,-0.282l0.031,-0.282l0.031,-0.282l0.031,-0.282l0.029,-0.283l0.028,-0.283l0.027,-0.283l0.027,-0.284l0.026,-0.283l0.025,-0.284l0.023,-0.285l0.023,-0.284l0.023,-0.285l0.021,-0.285l0.02,-0.285l0.02,-0.286l0.018,-0.285l0.018,-0.286l0.017,-0.287l0.016,-0.286l0.015,-0.287l0.014,-0.287l0.013,-0.287l0.012,-0.287l0.012,-0.288l0.01,-0.288l0.01,-0.288l0.009,-0.288l0.007,-0.288l0.007,-0.289l0.006,-0.289l0.005,-0.289l0.004,-0.29l0.004,-0.289l0.002,-0.29l0.001,-0.29l0.001,-0.291l-0.001,-0.29l-0.001,-0.29l-0.002,-0.29l-0.004,-0.289l-0.004,-0.29l-0.005,-0.289l-0.006,-0.289l-0.007,-0.289l-0.007,-0.288l-0.009,-0.289l-0.01,-0.288l-0.01,-0.288l-0.012,-0.287l-0.012,-0.287l-0.013,-0.288l-0.014,-0.287l-0.015,-0.286l-0.016,-0.287l-0.017,-0.286l-0.018,-0.286l-0.018,-0.286l-0.02,-0.285l-0.02,-0.285l-0.021,-0.285l-0.023,-0.285l-0.023,-0.285l-0.023,-0.284l-0.025,-0.284l-0.026,-0.284l-0.027,-0.283l-0.027,-0.283l-0.028,-0.283l-0.029,-0.283l-0.031,-0.282l-0.031,-0.283l-0.031,-0.282l-0.033,-0.281l-0.034,-0.282l-0.034,-0.281l-0.035,-0.281l-0.036,-0.28l-0.038,-0.281l-0.037,-0.28l-0.039,-0.28l-0.04,-0.279l-0.04,-0.279l-0.042,-0.279l-0.042,-0.279l-0.043,-0.278l-0.044,-0.279l-0.044,-0.277l-0.046,-0.278l-0.046,-0.277l-0.048,-0.277l-0.048,-0.277l-0.049,-0.276l-0.05,-0.276l-0.05,-0.276l-0.052,-0.276l-0.052,-0.275l-0.053,-0.275l-0.054,-0.275l-0.055,-0.274l-0.056,-0.274l-0.057,-0.274l-0.057,-0.273l-0.058,-0.273l-0.059,-0.273l-0.06,-0.273l-0.061,-0.272l-0.061,-0.272l-0.062,-0.272l-0.064,-0.271l-0.064,-0.271l-0.064,-0.27l-0.066,-0.271l-0.066,-0.27l-0.068,-0.269l-0.068,-0.27l-0.068,-0.269l-0.07,-0.269l-0.071,-0.268l-0.071,-0.268l-0.072,-0.268l-0.073,-0.267l-0.073,-0.267l-0.075,-0.267l-0.075,-0.267l-0.076,-0.266l-0.077,-0.265l-0.078,-0.266l-0.078,-0.265l-0.08,-0.265l-0.08,-0.264l-0.081,-0.264l-0.081,-0.264l-0.083,-0.263l-0.083,-0.263l-0.084,-0.263l-0.085,-0.262l-0.085,-0.262l-0.087,-0.262l-0.087,-0.261l-0.088,-0.261l-0.088,-0.26l-0.09,-0.261l-0.09,-0.259l-0.091,-0.26l-0.092,-0.259l-0.092,-0.259l-0.094,-0.258l-0.094,-0.258l-0.095,-0.258l-0.095,-0.257l-0.097,-0.257l-0.097,-0.256l-0.098,-0.257l-0.098,-0.255l-0.1,-0.256l-0.1,-0.255l-0.101,-0.254l-0.102,-0.255l-0.102,-0.254l-0.103,-0.253l-0.104,-0.253l-0.105,-0.253l-0.105,-0.252l-0.107,-0.252l-0.107,-0.252l-0.107,-0.251l-0.109,-0.251l-0.109,-0.25l-0.11,-0.25l-0.11,-0.25l-0.112,-0.249l-0.112,-0.249l-0.113,-0.248l-0.113,-0.248l-0.114,-0.248l-0.115,-0.247l-0.116,-0.247l-0.117,-0.246l-0.117,-0.246l-0.118,-0.245l-0.118,-0.246l-0.12,-0.244l-0.12,-0.245l-0.121,-0.243l-0.121,-0.244l-0.123,-0.243l-0.122,-0.243l-0.124,-0.242l-0.124,-0.242l-0.126,-0.241l-0.125,-0.241l-0.127,-0.24l-0.127,-0.24l-0.128,-0.24l-0.129,-0.239l-0.129,-0.239l-0.13,-0.238l-0.131,-0.238l-0.131,-0.238l-0.132,-0.237l-0.133,-0.236l-0.133,-0.236l-0.135,-0.236l-0.134,-0.235l-0.136,-0.235l-0.136,-0.235l-0.137,-0.234l-0.138,-0.233l-0.138,-0.233l-0.139,-0.233l-0.14,-0.232l-0.14,-0.231l-0.141,-0.232l-0.142,-0.23l-0.142,-0.231l-0.143,-0.229l-0.144,-0.23l-0.144,-0.229l-0.145,-0.228l-0.146,-0.228l-0.147,-0.228l-0.147,-0.227l-0.147,-0.226l-0.149,-0.226l-0.149,-0.226l-0.149,-0.225l-0.151,-0.225l-0.151,-0.224l-0.151,-0.223l-0.153,-0.224l-0.153,-0.222l-0.153,-0.223l-0.155,-0.222l-0.155,-0.221l-0.155,-0.221l-0.156,-0.22l-0.157,-0.22l-0.158,-0.219l-0.158,-0.219l-0.159,-0.218l-0.159,-0.218l-0.16,-0.217l-0.161,-0.217l-0.161,-0.217l-0.162,-0.216l-0.163,-0.215l-0.163,-0.215l-0.164,-0.214l-0.165,-0.214l-0.165,-0.213l-0.165,-0.213l-0.167,-0.212l-0.167,-0.212l-0.167,-0.212l-0.169,-0.21l-0.169,-0.211l-0.169,-0.209l-0.17,-0.21l-0.171,-0.208l-0.171,-0.208l-0.172,-0.208l-0.173,-0.207l-0.173,-0.207l-0.173,-0.206l-0.175,-0.205l-0.175,-0.205l-0.175,-0.205l-0.176,-0.204l-0.177,-0.203l-0.178,-0.203l-0.178,-0.203l-0.178,-0.201l-0.179,-0.202l-0.18,-0.2l-0.18,-0.201l-0.181,-0.199l-0.182,-0.199l-0.182,-0.199l-0.183,-0.198l-0.183,-0.197l-0.184,-0.197l-0.184,-0.197l-0.185,-0.195l-0.186,-0.196l-0.186,-0.194l-0.187,-0.194l-0.187,-0.194l-0.188,-0.193l-0.189,-0.193l-0.189,-0.191l-0.189,-0.192l-0.19,-0.19l-0.191,-0.191l-0.191,-0.189l-0.192,-0.189l-0.193,-0.189l-0.193,-0.188l-0.193,-0.187l-0.195,-0.187l-0.194,-0.186l-0.196,-0.186l-0.195,-0.185l-0.197,-0.184l-0.197,-0.184l-0.197,-0.183l-0.198,-0.183l-0.199,-0.182l-0.199,-0.182l-0.199,-0.181l-0.201,-0.18l-0.2,-0.18l-0.202,-0.179l-0.201,-0.178l-0.203,-0.178l-0.203,-0.178l-0.203,-0.176l-0.204,-0.177l-0.204,-0.175l-0.205,-0.175l-0.206,-0.174l-0.206,-0.174l-0.207,-0.173l-0.207,-0.173l-0.208,-0.172l-0.208,-0.171l-0.208,-0.171l-0.21,-0.17l-0.209,-0.169l-0.211,-0.169l-0.21,-0.168l-0.212,-0.168l-0.211,-0.167l-0.213,-0.166l-0.213,-0.166l-0.213,-0.165l-0.214,-0.165l-0.214,-0.164l-0.215,-0.163l-0.215,-0.163l-0.216,-0.162l-0.217,-0.161l-0.216,-0.161l-0.218,-0.16l-0.218,-0.159l-0.218,-0.159l-0.219,-0.158l-0.219,-0.158l-0.22,-0.156l-0.22,-0.157l-0.221,-0.155l-0.221,-0.155l-0.222,-0.154l-0.222,-0.154l-0.223,-0.153l-0.223,-0.152l-0.224,-0.152l-0.224,-0.151l-0.225,-0.15l-0.225,-0.15l-0.226,-0.149l-0.226,-0.149l-0.226,-0.147l-0.227,-0.147l-0.228,-0.147l-0.228,-0.145l-0.228,-0.146l-0.229,-0.144l-0.23,-0.144l-0.229,-0.143l-0.231,-0.142l-0.23,-0.142l-0.232,-0.141l-0.231,-0.14l-0.232,-0.14l-0.233,-0.139l-0.233,-0.138l-0.233,-0.138l-0.234,-0.137l-0.235,-0.136l-0.234,-0.135l-0.236,-0.135l-0.235,-0.134l-0.237,-0.134l-0.236,-0.133l-0.237,-0.132l-0.238,-0.131l-0.238,-0.131l-0.238,-0.13l-0.239,-0.129l-0.239,-0.129l-0.24,-0.128l-0.24,-0.127l-0.24,-0.127l-0.241,-0.125l-0.241,-0.125l-0.242,-0.125l-0.242,-0.123l-0.243,-0.123l-0.243,-0.123l-0.243,-0.121l-0.244,-0.121l-0.245,-0.12l-0.244,-0.119l-0.246,-0.119l-0.245,-0.118l-0.246,-0.117l-0.246,-0.117l-0.247,-0.115l-0.247,-0.115l-0.248,-0.115l-0.248,-0.113l-0.248,-0.113l-0.249,-0.112l-0.249,-0.112l-0.25,-0.11l-0.25,-0.11l-0.25,-0.109l-0.251,-0.109l-0.251,-0.107l-0.252,-0.107l-0.252,-0.106l-0.252,-0.106l-0.253,-0.105l-0.253,-0.104l-0.253,-0.103l-0.254,-0.102l-0.254,-0.102l-0.255,-0.101l-0.255,-0.1l-0.255,-0.099l-0.256,-0.099l-0.256,-0.098l-0.257,-0.097l-0.257,-0.097l-0.257,-0.095l-0.258,-0.095l-0.258,-0.094l-0.258,-0.093l-0.259,-0.093l-0.259,-0.092l-0.259,-0.091l-0.26,-0.09l-0.26,-0.09l-0.261,-0.088l-0.261,-0.088l-0.261,-0.087l-0.262,-0.087l-0.262,-0.085l-0.262,-0.085l-0.263,-0.084l-0.263,-0.083l-0.263,-0.083l-0.264,-0.081l-0.264,-0.081l-0.264,-0.08l-0.265,-0.08l-0.265,-0.078l-0.265,-0.078l-0.266,-0.077l-0.266,-0.076l-0.267,-0.075l-0.266,-0.074l-0.268,-0.074l-0.267,-0.073l-0.268,-0.072l-0.268,-0.071l-0.268,-0.071l-0.269,-0.07l-0.269,-0.068l-0.269,-0.068l-0.27,-0.068l-0.27,-0.066l-0.27,-0.066l-0.271,-0.064l-0.271,-0.064l-0.271,-0.063l-0.272,-0.063l-0.272,-0.061l-0.272,-0.061l-0.273,-0.06l-0.272,-0.059l-0.274,-0.058l-0.273,-0.057l-0.274,-0.057l-0.274,-0.056l-0.274,-0.054l-0.275,-0.054l-0.275,-0.054l-0.275,-0.052l-0.276,-0.052l-0.275,-0.05l-0.277,-0.05l-0.276,-0.049l-0.277,-0.048l-0.277,-0.047l-0.277,-0.047l-0.278,-0.045l-0.277,-0.045l-0.279,-0.044l-0.278,-0.043l-0.279,-0.042l-0.279,-0.042l-0.279,-0.04l-0.279,-0.04l-0.28,-0.038l-0.28,-0.038l-0.281,-0.037l-0.28,-0.037l-0.281,-0.035l-0.281,-0.034l-0.282,-0.034l-0.281,-0.033l-0.282,-0.031l-0.282,-0.031l-0.283,-0.03l-0.283,-0.03l-0.283,-0.028l-0.283,-0.027l-0.283,-0.027l-0.284,-0.026l-0.284,-0.024l-0.284,-0.024l-0.285,-0.023l-0.285,-0.023l-0.285,-0.021l-0.285,-0.02l-0.285,-0.02l-0.286,-0.018l-0.286,-0.018l-0.286,-0.017l-0.287,-0.016l-0.286,-0.015l-0.287,-0.014l-0.287,-0.013l-0.288,-0.012l-0.287,-0.012l-0.288,-0.01l-0.288,-0.01l-0.289,-0.008l-0.288,-0.008l-0.289,-0.007l-0.289,-0.006l-0.289,-0.005l-0.289,-0.004l-0.29,-0.003l-0.29,-0.003l-0.29,-0.001l-0.29,-0.001l-0.291,0.001Z" style="fill:#662d91;"/><path d="M539.308,310.603l3.276,2.277l0.014,0.014l2.124,3.378l0.648,3.819l-0.823,3.785l-2.277,3.276l-0.007,0.007l-0.345,0.33l-0.332,0.319l-0.33,0.318l-0.328,0.319l-0.325,0.319l-0.324,0.318l-0.321,0.319l-0.319,0.318l-0.318,0.319l-0.315,0.318l-0.313,0.318l-0.311,0.318l-0.309,0.318l-0.307,0.318l-0.305,0.317l-0.303,0.318l-0.301,0.317l-0.298,0.318l-0.297,0.317l-0.295,0.317l-0.293,0.317l-0.291,0.317l-0.289,0.316l-0.287,0.317l-0.285,0.316l-0.283,0.317l-0.281,0.316l-0.279,0.316l-0.277,0.316l-0.275,0.315l-0.273,0.316l-0.272,0.315l-0.269,0.315l-0.268,0.315l-0.265,0.315l-0.264,0.315l-0.262,0.315l-0.26,0.314l-0.258,0.314l-0.256,0.314l-0.254,0.314l-0.253,0.314l-0.251,0.313l-0.248,0.314l-0.247,0.313l-0.245,0.313l-0.244,0.313l-0.241,0.312l-0.24,0.313l-0.238,0.312l-0.236,0.312l-0.234,0.312l-0.233,0.311l-0.231,0.312l-0.228,0.311l-0.228,0.311l-0.225,0.31l-0.224,0.311l-0.222,0.31l-0.22,0.31l-0.219,0.31l-0.216,0.31l-0.215,0.309l-0.214,0.309l-0.211,0.309l-0.21,0.309l-0.209,0.309l-0.206,0.308l-0.205,0.308l-0.203,0.308l-0.202,0.307l-0.2,0.308l-0.198,0.307l-0.197,0.307l-0.195,0.306l-0.193,0.306l-0.192,0.307l-0.19,0.305l-0.188,0.306l-0.187,0.305l-0.185,0.305l-0.184,0.305l-0.182,0.305l-0.181,0.304l-0.179,0.304l-0.177,0.304l-0.176,0.303l-0.174,0.303l-0.173,0.303l-0.171,0.303l-0.17,0.302l-0.168,0.302l-0.166,0.302l-0.165,0.301l-0.164,0.302l-0.162,0.301l-0.161,0.3l-0.159,0.301l-0.157,0.3l-0.156,0.299l-0.155,0.3l-0.153,0.299l-0.152,0.299l-0.15,0.298l-0.149,0.299l-0.147,0.298l-0.146,0.297l-0.145,0.298l-0.143,0.297l-0.142,0.297l-0.14,0.296l-0.139,0.296l-0.137,0.296l-0.136,0.295l-0.135,0.296l-0.133,0.295l-0.132,0.294l-0.131,0.294l-0.129,0.294l-0.128,0.294l-0.126,0.293l-0.125,0.293l-0.124,0.292l-0.123,0.293l-0.121,0.292l-0.12,0.291l-0.118,0.291l-0.117,0.291l-0.116,0.291l-0.115,0.29l-0.113,0.29l-0.112,0.29l-0.111,0.289l-0.11,0.289l-0.108,0.288l-0.107,0.288l-0.106,0.288l-0.104,0.288l-0.103,0.287l-0.102,0.286l-0.101,0.287l-0.1,0.286l-0.098,0.285l-0.097,0.286l-0.096,0.285l-0.095,0.284l-0.093,0.284l-0.093,0.284l-0.091,0.284l-0.09,0.283l-0.088,0.283l-0.088,0.282l-0.086,0.282l-0.086,0.281l-0.084,0.282l-0.083,0.28l-0.082,0.281l-0.08,0.28l-0.08,0.28l-0.078,0.279l-0.078,0.279l-0.076,0.278l-0.075,0.278l-0.074,0.278l-0.073,0.277l-0.072,0.277l-0.071,0.277l-0.069,0.276l-0.069,0.276l-0.067,0.275l-0.067,0.275l-0.065,0.274l-0.065,0.274l-0.063,0.274l-0.062,0.273l-0.061,0.273l-0.061,0.273l-0.059,0.272l-0.058,0.271l-0.057,0.271l-0.056,0.271l-0.055,0.271l-0.054,0.269l-0.054,0.27l-0.052,0.269l-0.051,0.269l-0.05,0.268l-0.049,0.268l-0.048,0.267l-0.048,0.267l-0.046,0.266l-0.045,0.266l-0.045,0.266l-0.043,0.265l-0.043,0.264l-0.041,0.265l-0.041,0.263l-0.04,0.264l-0.039,0.262l-0.038,0.263l-0.037,0.262l-0.036,0.261l-0.035,0.261l-0.034,0.261l-0.034,0.26l-0.032,0.259l-0.032,0.259l-0.031,0.259l-0.03,0.258l-0.029,0.258l-0.028,0.257l-0.027,0.257l-0.027,0.256l-0.026,0.256l-0.025,0.255l-0.024,0.255l-0.023,0.254l-0.022,0.254l-0.022,0.253l-0.021,0.253l-0.02,0.252l-0.019,0.252l-0.018,0.251l-0.018,0.251l-0.017,0.25l-0.016,0.25l-0.015,0.249l-0.014,0.249l-0.014,0.248l-0.013,0.248l-0.012,0.247l-0.012,0.246l-0.01,0.247l-0.01,0.245l-0.01,0.245l-0.008,0.245l-0.008,0.244l-0.007,0.243l-0.006,0.243l-0.006,0.242l-0.005,0.242l-0.004,0.241l-0.004,0.241l-0.002,0.24l-0.003,0.24l-0.001,0.232l-0.001,0.483l0.002,0.474l0.004,0.472l0.007,0.47l0.009,0.467l0.012,0.465l0.014,0.462l0.017,0.461l0.019,0.457l0.022,0.456l0.024,0.453l0.026,0.45l0.028,0.448l0.031,0.445l0.032,0.443l0.035,0.441l0.037,0.438l0.038,0.435l0.041,0.432l0.043,0.43l0.044,0.428l0.047,0.424l0.048,0.422l0.05,0.42l0.052,0.416l0.053,0.414l0.055,0.411l0.057,0.408l0.058,0.405l0.06,0.403l0.062,0.399l0.062,0.397l0.065,0.394l0.065,0.391l0.067,0.388l0.068,0.385l0.069,0.382l0.071,0.378l0.072,0.376l0.073,0.373l0.074,0.37l0.075,0.366l0.076,0.363l0.005,0.023l0.072,0.338l0.078,0.357l0.078,0.353l0.08,0.351l0.08,0.347l0.081,0.344l0.082,0.341l0.083,0.337l0.083,0.334l0.084,0.331l0.084,0.327l0.085,0.323l0.085,0.321l0.085,0.316l0.086,0.314l0.087,0.31l0.086,0.306l0.087,0.302l0.087,0.299l0.087,0.296l0.088,0.292l0.087,0.288l0.087,0.284l0.088,0.281l0.087,0.277l0.087,0.273l0.087,0.269l0.087,0.266l0.087,0.261l0.086,0.258l0.087,0.254l0.085,0.25l0.086,0.246l0.085,0.242l0.084,0.239l0.084,0.234l0.083,0.23l0.083,0.226l0.082,0.222l0.081,0.218l0.081,0.214l0.08,0.209l0.079,0.206l0.078,0.201l0.077,0.197l0.073,0.185l0.153,0.38l0.145,0.356l0.14,0.337l0.135,0.321l0.13,0.302l0.124,0.284l0.118,0.266l0.111,0.248l0.105,0.229l0.097,0.21l0.09,0.191l0.082,0.172l0.074,0.152l0.065,0.133l0.056,0.113l0.042,0.083l0.071,0.139l0.026,0.049l0.007,0.015l1.142,3.823l-0.399,3.853l-1.807,3.426l-3.072,2.546l-0.018,0.01l-3.823,1.141l-3.853,-0.398l-3.426,-1.808l-2.546,-3.072l-0.005,-0.008l-0.043,-0.082l-0.111,-0.211l-0.149,-0.291l-0.098,-0.195l-0.102,-0.206l-0.111,-0.227l-0.12,-0.249l-0.129,-0.269l-0.136,-0.29l-0.144,-0.311l-0.152,-0.332l-0.158,-0.351l-0.165,-0.372l-0.171,-0.392l-0.177,-0.412l-0.182,-0.431l-0.187,-0.451l-0.192,-0.47l-0.193,-0.482l-0.102,-0.259l-0.101,-0.256l-0.101,-0.261l-0.103,-0.266l-0.103,-0.271l-0.103,-0.275l-0.105,-0.28l-0.105,-0.285l-0.106,-0.289l-0.106,-0.293l-0.107,-0.299l-0.107,-0.302l-0.108,-0.308l-0.108,-0.311l-0.109,-0.317l-0.109,-0.32l-0.109,-0.326l-0.109,-0.329l-0.109,-0.334l-0.109,-0.338l-0.11,-0.343l-0.109,-0.347l-0.11,-0.351l-0.109,-0.356l-0.109,-0.36l-0.109,-0.364l-0.109,-0.368l-0.108,-0.373l-0.108,-0.377l-0.108,-0.381l-0.107,-0.385l-0.107,-0.389l-0.106,-0.393l-0.106,-0.398l-0.105,-0.401l-0.105,-0.406l-0.103,-0.409l-0.103,-0.414l-0.102,-0.417l-0.102,-0.422l-0.1,-0.425l-0.099,-0.43l-0.099,-0.433l-0.097,-0.437l-0.096,-0.441l-0.089,-0.417l-0.006,-0.028l-0.094,-0.449l-0.093,-0.452l-0.091,-0.457l-0.09,-0.46l-0.089,-0.464l-0.087,-0.467l-0.086,-0.471l-0.084,-0.475l-0.082,-0.479l-0.081,-0.482l-0.079,-0.486l-0.078,-0.489l-0.075,-0.493l-0.074,-0.497l-0.072,-0.5l-0.07,-0.503l-0.068,-0.507l-0.066,-0.511l-0.064,-0.514l-0.061,-0.517l-0.06,-0.521l-0.057,-0.524l-0.055,-0.527l-0.053,-0.531l-0.05,-0.534l-0.048,-0.538l-0.046,-0.54l-0.042,-0.544l-0.041,-0.547l-0.037,-0.55l-0.035,-0.554l-0.032,-0.556l-0.03,-0.56l-0.026,-0.563l-0.024,-0.566l-0.021,-0.569l-0.018,-0.572l-0.014,-0.575l-0.012,-0.578l-0.009,-0.581l-0.005,-0.584l-0.002,-0.586l0.001,-0.583l0.002,-0.303l0.003,-0.296l0.003,-0.298l0.005,-0.298l0.005,-0.298l0.006,-0.3l0.007,-0.3l0.008,-0.301l0.009,-0.301l0.009,-0.302l0.011,-0.303l0.011,-0.304l0.013,-0.304l0.013,-0.305l0.014,-0.305l0.015,-0.307l0.016,-0.306l0.017,-0.308l0.018,-0.308l0.019,-0.309l0.02,-0.309l0.021,-0.311l0.022,-0.31l0.022,-0.312l0.024,-0.312l0.025,-0.313l0.026,-0.313l0.026,-0.314l0.028,-0.314l0.029,-0.316l0.03,-0.315l0.031,-0.317l0.031,-0.317l0.033,-0.317l0.034,-0.319l0.035,-0.319l0.036,-0.319l0.037,-0.32l0.039,-0.321l0.039,-0.321l0.04,-0.322l0.042,-0.322l0.042,-0.323l0.044,-0.323l0.045,-0.324l0.046,-0.325l0.047,-0.325l0.048,-0.326l0.049,-0.326l0.05,-0.327l0.052,-0.328l0.053,-0.327l0.054,-0.329l0.055,-0.329l0.056,-0.329l0.057,-0.331l0.059,-0.33l0.059,-0.331l0.061,-0.332l0.063,-0.332l0.063,-0.333l0.064,-0.333l0.066,-0.333l0.067,-0.335l0.068,-0.334l0.07,-0.335l0.071,-0.336l0.072,-0.336l0.073,-0.337l0.074,-0.337l0.076,-0.337l0.077,-0.338l0.078,-0.339l0.08,-0.339l0.081,-0.339l0.082,-0.34l0.083,-0.34l0.085,-0.341l0.086,-0.341l0.088,-0.341l0.088,-0.343l0.09,-0.342l0.092,-0.343l0.092,-0.343l0.095,-0.344l0.095,-0.344l0.097,-0.345l0.098,-0.345l0.099,-0.345l0.101,-0.346l0.103,-0.346l0.103,-0.346l0.105,-0.347l0.107,-0.347l0.108,-0.348l0.109,-0.348l0.111,-0.349l0.112,-0.348l0.114,-0.35l0.115,-0.349l0.116,-0.35l0.118,-0.35l0.119,-0.351l0.121,-0.351l0.122,-0.351l0.124,-0.351l0.125,-0.352l0.127,-0.353l0.128,-0.352l0.13,-0.353l0.131,-0.353l0.132,-0.354l0.134,-0.354l0.136,-0.354l0.137,-0.354l0.139,-0.355l0.14,-0.355l0.142,-0.355l0.143,-0.356l0.145,-0.355l0.146,-0.357l0.148,-0.356l0.15,-0.357l0.151,-0.357l0.152,-0.357l0.155,-0.357l0.155,-0.358l0.158,-0.358l0.159,-0.358l0.16,-0.358l0.162,-0.359l0.164,-0.359l0.165,-0.359l0.167,-0.359l0.169,-0.36l0.17,-0.36l0.172,-0.36l0.174,-0.36l0.175,-0.36l0.177,-0.361l0.178,-0.361l0.18,-0.361l0.182,-0.361l0.183,-0.361l0.185,-0.362l0.187,-0.361l0.189,-0.362l0.19,-0.362l0.192,-0.363l0.193,-0.362l0.195,-0.363l0.197,-0.362l0.199,-0.363l0.2,-0.363l0.202,-0.363l0.204,-0.364l0.206,-0.363l0.207,-0.363l0.209,-0.364l0.211,-0.364l0.212,-0.364l0.215,-0.364l0.216,-0.364l0.218,-0.364l0.219,-0.365l0.222,-0.364l0.223,-0.365l0.225,-0.364l0.226,-0.365l0.229,-0.365l0.23,-0.365l0.232,-0.365l0.234,-0.365l0.236,-0.365l0.238,-0.365l0.239,-0.365l0.241,-0.366l0.243,-0.365l0.245,-0.366l0.247,-0.365l0.248,-0.366l0.251,-0.365l0.252,-0.366l0.254,-0.365l0.256,-0.366l0.258,-0.366l0.26,-0.366l0.261,-0.365l0.264,-0.366l0.265,-0.366l0.268,-0.366l0.269,-0.366l0.271,-0.365l0.273,-0.366l0.275,-0.366l0.277,-0.366l0.279,-0.366l0.28,-0.365l0.283,-0.366l0.284,-0.366l0.287,-0.366l0.288,-0.366l0.291,-0.365l0.292,-0.366l0.294,-0.366l0.297,-0.365l0.298,-0.366l0.3,-0.365l0.302,-0.366l0.304,-0.365l0.307,-0.366l0.308,-0.365l0.31,-0.365l0.312,-0.365l0.314,-0.365l0.316,-0.365l0.319,-0.365l0.32,-0.365l0.322,-0.365l0.324,-0.365l0.326,-0.365l0.329,-0.364l0.33,-0.365l0.333,-0.364l0.334,-0.364l0.337,-0.365l0.338,-0.364l0.341,-0.364l0.343,-0.364l0.344,-0.363l0.347,-0.364l0.349,-0.364l0.351,-0.363l0.353,-0.363l0.356,-0.364l0.357,-0.363l0.359,-0.362l0.362,-0.363l0.364,-0.363l0.365,-0.362l0.368,-0.363l0.37,-0.362l0.373,-0.362l0.374,-0.362l0.376,-0.362l0.368,-0.351l0.007,-0.007l3.377,-2.124l3.819,-0.648l3.786,0.823Z" style="fill:#662d91;"/></g></g><text x="847.196px" y="683.721px" style="font-family:'Rockwell-Regular', 'Rockwell', serif;font-size:284px;fill:#662d91;">sweet alert</text></g></g></svg>