<?xml version="1.0" encoding="UTF-8" standalone="no"?><!DOCTYPE svg PUBLIC "-//W3C//DTD SVG 1.1//EN" "http://www.w3.org/Graphics/SVG/1.1/DTD/svg11.dtd"><svg width="100%" height="100%" viewBox="0 0 1299 452" version="1.1" xmlns="http://www.w3.org/2000/svg" xmlns:xlink="http://www.w3.org/1999/xlink" xml:space="preserve" xmlns:serif="http://www.serif.com/" style="fill-rule:evenodd;clip-rule:evenodd;stroke-linejoin:round;stroke-miterlimit:2;"><rect id="Artboard1" x="-548" y="-1755" width="4000" height="4000" style="fill:none;"/><g id="Artboard11" serif:id="Artboard1"><g><path d="M571.369,80.104c-62.679,-2.499 -71.106,-6.485 -181.911,40.477c-110.805,46.962 -164.095,112.95 -277.401,160.804c-154.852,65.4 -76.627,162.201 203.036,119.188c253.453,-38.982 228.449,-69.537 421.414,-62.13c192.966,7.407 336.02,22.714 412.614,-6.596c76.593,-29.31 193.712,-57.642 105.984,-100.686c-87.728,-43.044 24.85,-82.753 -208.884,-85.818c-173.506,-2.274 -209.672,25.105 -280.69,-9.765c-70.583,-34.657 -131.483,-52.974 -194.162,-55.474Z" style="fill:#fff4eb;"/><rect x="210.322" y="143.708" width="867.108" height="202.585" style="fill:#f2c6dd;"/><path d="M1080.72,125.054l3.189,0.855l2.993,1.395l2.704,1.894l2.335,2.334l1.894,2.705l1.395,2.992l0.854,3.189l0.288,3.29l0,202.584l-0.288,3.29l-0.854,3.189l-1.395,2.992l-1.894,2.705l-2.335,2.334l-2.704,1.894l-2.993,1.395l-3.189,0.855l-3.289,0.288l-867.108,0l-3.289,-0.288l-3.189,-0.855l-2.992,-1.395l-2.705,-1.894l-2.335,-2.334l-1.893,-2.705l-1.396,-2.992l-0.854,-3.189l-0.288,-3.29l0,-202.584l0.288,-3.29l0.854,-3.189l1.396,-2.992l1.893,-2.705l2.335,-2.334l2.705,-1.894l2.992,-1.395l3.189,-0.855l3.289,-0.288l867.108,0l3.289,0.288Zm-870.397,18.654l0,202.584l867.108,0l0,-202.584l-867.108,0Z" style="fill:#662d91;"/><g><path d="M336.249,210.91l52.448,107.766l-104.896,0l52.448,-107.766Z" style="fill:#edce9e;"/><clipPath id="_clip1"><path d="M336.249,210.91l52.448,107.766l-104.896,0l52.448,-107.766Z"/></clipPath><g clip-path="url(#_clip1)"><path d="M336.249,210.91l14.942,107.766l-29.884,0l14.942,-107.766Z" style="fill:#fff3db;"/><path d="M337.621,205.603l0.871,0.305l0.807,0.447l0.721,0.577l0.614,0.689l0.49,0.782l0.351,0.854l0.204,0.9l14.942,107.766l0.049,0.934l-0.111,0.929l-0.267,0.896l-0.415,0.838l-0.552,0.756l-0.673,0.65l-0.773,0.527l-0.851,0.387l-0.905,0.237l-0.932,0.08l-29.884,0l-0.932,-0.08l-0.905,-0.237l-0.851,-0.387l-0.773,-0.527l-0.672,-0.65l-0.552,-0.756l-0.416,-0.838l-0.267,-0.896l-0.11,-0.929l0.049,-0.934l14.941,-107.766l0.204,-0.9l0.351,-0.854l0.49,-0.782l0.614,-0.689l0.721,-0.577l0.807,-0.447l0.872,-0.305l0.91,-0.155l0.923,0l0.91,0.155Zm-16.314,113.073l29.884,0l-14.942,-107.766l-14.942,107.766Z" style="fill:#662d91;"/></g><path d="M337.822,204.95l0.996,0.357l0.921,0.523l0.818,0.672l0.691,0.802l0.543,0.909l52.449,107.765l0.374,0.969l0.206,1.017l0.033,1.038l-0.143,1.029l-0.312,0.99l-0.475,0.923l-0.623,0.831l-0.753,0.714l-0.863,0.578l-0.947,0.425l-1.005,0.26l-1.035,0.088l-104.896,0l-1.035,-0.088l-1.005,-0.26l-0.947,-0.425l-0.863,-0.578l-0.753,-0.714l-0.623,-0.831l-0.475,-0.923l-0.312,-0.99l-0.142,-1.029l0.032,-1.038l0.206,-1.017l0.374,-0.969l52.449,-107.765l0.543,-0.909l0.691,-0.802l0.818,-0.672l0.921,-0.523l0.997,-0.357l1.043,-0.181l1.058,0l1.044,0.181Zm-54.021,113.726l104.896,0l-52.448,-107.766l-52.448,107.766Z" style="fill:#662d91;"/><g><circle cx="336.249" cy="214.535" r="27.022" style="fill:#ff9eb1;"/><path d="M336.462,181.439l0.213,0.002l0.213,0.003l0.212,0.005l0.212,0.006l0.212,0.007l0.212,0.009l0.211,0.01l0.211,0.011l0.21,0.013l0.21,0.014l0.21,0.015l0.21,0.017l0.209,0.018l0.209,0.019l0.209,0.021l0.208,0.021l0.208,0.024l0.208,0.024l0.207,0.026l0.207,0.027l0.206,0.028l0.206,0.029l0.206,0.031l0.205,0.032l0.205,0.034l0.204,0.034l0.204,0.036l0.204,0.037l0.203,0.038l0.203,0.04l0.202,0.041l0.202,0.042l0.202,0.043l0.201,0.045l0.2,0.045l0.201,0.047l0.199,0.048l0.199,0.05l0.199,0.05l0.198,0.052l0.198,0.053l0.198,0.054l0.196,0.055l0.197,0.057l0.196,0.057l0.195,0.059l0.195,0.06l0.194,0.061l0.194,0.063l0.193,0.063l0.193,0.065l0.192,0.065l0.192,0.067l0.191,0.068l0.19,0.07l0.191,0.07l0.189,0.071l0.189,0.073l0.188,0.074l0.188,0.074l0.187,0.076l0.187,0.077l0.186,0.078l0.186,0.079l0.185,0.081l0.184,0.081l0.184,0.083l0.183,0.083l0.182,0.085l0.182,0.085l0.181,0.087l0.181,0.088l0.18,0.089l0.18,0.09l0.178,0.091l0.179,0.092l0.177,0.093l0.177,0.094l0.176,0.095l0.176,0.096l0.175,0.097l0.174,0.098l0.174,0.099l0.173,0.101l0.172,0.101l0.171,0.102l0.171,0.103l0.171,0.104l0.169,0.106l0.169,0.106l0.168,0.107l0.168,0.108l0.166,0.109l0.166,0.11l0.166,0.111l0.164,0.112l0.164,0.113l0.164,0.114l0.162,0.115l0.162,0.116l0.161,0.116l0.16,0.118l0.16,0.119l0.158,0.119l0.158,0.121l0.158,0.121l0.156,0.122l0.156,0.123l0.155,0.125l0.154,0.125l0.154,0.126l0.153,0.126l0.151,0.128l0.152,0.129l0.15,0.129l0.15,0.131l0.148,0.131l0.148,0.132l0.148,0.133l0.146,0.134l0.145,0.134l0.145,0.136l0.144,0.136l0.143,0.138l0.143,0.138l0.141,0.139l0.141,0.14l0.14,0.14l0.138,0.142l0.139,0.142l0.137,0.143l0.136,0.144l0.136,0.145l0.135,0.145l0.133,0.147l0.133,0.147l0.133,0.148l0.131,0.149l0.13,0.149l0.13,0.151l0.128,0.151l0.128,0.152l0.127,0.152l0.126,0.154l0.125,0.154l0.124,0.155l0.123,0.156l0.122,0.157l0.122,0.157l0.12,0.158l0.12,0.159l0.118,0.159l0.118,0.16l0.117,0.161l0.115,0.162l0.115,0.163l0.114,0.163l0.113,0.164l0.112,0.164l0.111,0.166l0.11,0.166l0.109,0.167l0.108,0.167l0.108,0.168l0.106,0.169l0.105,0.17l0.104,0.17l0.103,0.171l0.103,0.171l0.101,0.173l0.1,0.173l0.099,0.173l0.098,0.175l0.097,0.175l0.097,0.175l0.095,0.176l0.094,0.177l0.093,0.178l0.092,0.178l0.091,0.179l0.09,0.179l0.088,0.18l0.088,0.181l0.087,0.181l0.086,0.182l0.084,0.183l0.084,0.183l0.082,0.183l0.082,0.185l0.08,0.185l0.079,0.185l0.078,0.186l0.077,0.187l0.076,0.187l0.075,0.188l0.073,0.188l0.073,0.189l0.071,0.19l0.071,0.19l0.069,0.19l0.068,0.192l0.067,0.191l0.066,0.192l0.064,0.193l0.064,0.193l0.062,0.194l0.061,0.195l0.06,0.194l0.059,0.196l0.058,0.196l0.056,0.196l0.055,0.197l0.054,0.197l0.053,0.198l0.052,0.198l0.051,0.199l0.049,0.199l0.048,0.2l0.047,0.2l0.046,0.201l0.044,0.201l0.043,0.201l0.042,0.202l0.041,0.202l0.04,0.203l0.038,0.203l0.037,0.204l0.036,0.204l0.035,0.205l0.033,0.204l0.032,0.206l0.031,0.205l0.029,0.206l0.029,0.207l0.027,0.207l0.025,0.207l0.025,0.207l0.023,0.208l0.022,0.208l0.02,0.209l0.019,0.209l0.018,0.209l0.017,0.21l0.015,0.21l0.014,0.21l0.013,0.211l0.011,0.211l0.01,0.211l0.009,0.211l0.008,0.212l0.006,0.212l0.004,0.213l0.004,0.212l0.002,0.213l0,0.213l0,0.213l-0.002,0.213l-0.004,0.213l-0.004,0.212l-0.006,0.212l-0.008,0.212l-0.009,0.212l-0.01,0.211l-0.011,0.211l-0.013,0.21l-0.014,0.211l-0.015,0.21l-0.017,0.209l-0.018,0.209l-0.019,0.209l-0.02,0.209l-0.022,0.208l-0.023,0.208l-0.025,0.208l-0.025,0.207l-0.027,0.207l-0.029,0.206l-0.029,0.206l-0.031,0.206l-0.032,0.205l-0.033,0.205l-0.035,0.204l-0.036,0.204l-0.037,0.204l-0.038,0.203l-0.04,0.203l-0.041,0.202l-0.042,0.202l-0.043,0.202l-0.044,0.201l-0.046,0.201l-0.047,0.2l-0.048,0.199l-0.049,0.2l-0.051,0.198l-0.052,0.199l-0.053,0.197l-0.054,0.198l-0.055,0.197l-0.056,0.196l-0.058,0.196l-0.059,0.195l-0.06,0.195l-0.061,0.194l-0.062,0.194l-0.064,0.193l-0.064,0.193l-0.066,0.192l-0.067,0.192l-0.068,0.191l-0.069,0.191l-0.071,0.19l-0.071,0.189l-0.073,0.189l-0.073,0.189l-0.075,0.187l-0.076,0.188l-0.077,0.186l-0.078,0.186l-0.079,0.186l-0.08,0.185l-0.082,0.184l-0.082,0.184l-0.084,0.183l-0.084,0.182l-0.086,0.182l-0.087,0.182l-0.088,0.18l-0.088,0.18l-0.09,0.18l-0.091,0.179l-0.092,0.178l-0.093,0.177l-0.094,0.177l-0.095,0.176l-0.097,0.176l-0.097,0.175l-0.098,0.174l-0.099,0.174l-0.1,0.173l-0.101,0.172l-0.103,0.172l-0.103,0.17l-0.104,0.171l-0.105,0.169l-0.106,0.169l-0.108,0.168l-0.108,0.168l-0.109,0.167l-0.11,0.166l-0.111,0.165l-0.112,0.165l-0.113,0.164l-0.114,0.163l-0.115,0.162l-0.115,0.162l-0.117,0.161l-0.118,0.16l-0.118,0.16l-0.12,0.159l-0.12,0.158l-0.122,0.157l-0.122,0.156l-0.123,0.156l-0.124,0.155l-0.125,0.155l-0.126,0.153l-0.127,0.153l-0.128,0.152l-0.128,0.151l-0.13,0.15l-0.13,0.15l-0.131,0.149l-0.133,0.148l-0.133,0.147l-0.133,0.146l-0.135,0.146l-0.136,0.144l-0.136,0.144l-0.137,0.143l-0.139,0.143l-0.138,0.141l-0.14,0.141l-0.141,0.14l-0.141,0.139l-0.143,0.138l-0.143,0.137l-0.144,0.136l-0.145,0.136l-0.145,0.135l-0.146,0.134l-0.148,0.133l-0.148,0.132l-0.148,0.131l-0.15,0.13l-0.15,0.13l-0.152,0.128l-0.151,0.128l-0.153,0.127l-0.154,0.126l-0.154,0.125l-0.155,0.124l-0.156,0.123l-0.156,0.122l-0.158,0.122l-0.158,0.12l-0.158,0.12l-0.16,0.118l-0.16,0.118l-0.161,0.117l-0.162,0.116l-0.162,0.114l-0.164,0.114l-0.164,0.113l-0.164,0.112l-0.166,0.111l-0.166,0.11l-0.166,0.109l-0.168,0.109l-0.168,0.107l-0.169,0.106l-0.169,0.105l-0.171,0.104l-0.171,0.103l-0.171,0.103l-0.172,0.101l-0.173,0.1l-0.174,0.099l-0.174,0.098l-0.175,0.098l-0.176,0.096l-0.176,0.095l-0.177,0.094l-0.177,0.093l-0.179,0.092l-0.178,0.091l-0.18,0.09l-0.18,0.089l-0.181,0.087l-0.181,0.087l-0.182,0.086l-0.182,0.084l-0.183,0.084l-0.184,0.082l-0.184,0.082l-0.185,0.08l-0.186,0.079l-0.186,0.078l-0.187,0.077l-0.187,0.076l-0.188,0.075l-0.188,0.074l-0.189,0.072l-0.189,0.072l-0.191,0.07l-0.19,0.069l-0.191,0.068l-0.192,0.067l-0.192,0.066l-0.193,0.064l-0.193,0.064l-0.194,0.062l-0.194,0.061l-0.195,0.06l-0.195,0.059l-0.196,0.058l-0.197,0.056l-0.196,0.056l-0.198,0.054l-0.198,0.053l-0.198,0.051l-0.199,0.051l-0.199,0.049l-0.199,0.048l-0.201,0.047l-0.2,0.046l-0.201,0.044l-0.202,0.044l-0.202,0.042l-0.202,0.04l-0.203,0.04l-0.203,0.038l-0.204,0.037l-0.204,0.036l-0.204,0.035l-0.205,0.033l-0.205,0.032l-0.206,0.031l-0.206,0.029l-0.206,0.029l-0.207,0.027l-0.207,0.025l-0.208,0.025l-0.208,0.023l-0.208,0.022l-0.209,0.02l-0.209,0.02l-0.209,0.018l-0.21,0.016l-0.21,0.016l-0.21,0.014l-0.21,0.012l-0.211,0.012l-0.211,0.01l-0.212,0.008l-0.212,0.008l-0.212,0.006l-0.212,0.005l-0.213,0.003l-0.213,0.002l-0.213,0.001l-0.213,-0.001l-0.213,-0.002l-0.213,-0.003l-0.212,-0.005l-0.212,-0.006l-0.212,-0.008l-0.211,-0.008l-0.212,-0.01l-0.21,-0.012l-0.211,-0.012l-0.21,-0.014l-0.21,-0.016l-0.21,-0.016l-0.209,-0.018l-0.209,-0.02l-0.209,-0.02l-0.208,-0.022l-0.208,-0.023l-0.207,-0.025l-0.208,-0.025l-0.206,-0.027l-0.207,-0.029l-0.206,-0.029l-0.206,-0.031l-0.205,-0.032l-0.205,-0.033l-0.204,-0.035l-0.204,-0.036l-0.204,-0.037l-0.203,-0.038l-0.203,-0.04l-0.202,-0.04l-0.202,-0.042l-0.202,-0.044l-0.201,-0.044l-0.2,-0.046l-0.2,-0.047l-0.2,-0.048l-0.199,-0.049l-0.199,-0.051l-0.198,-0.051l-0.198,-0.053l-0.197,-0.054l-0.197,-0.056l-0.197,-0.056l-0.195,-0.058l-0.196,-0.059l-0.195,-0.06l-0.194,-0.061l-0.194,-0.062l-0.193,-0.064l-0.193,-0.064l-0.192,-0.066l-0.192,-0.067l-0.191,-0.068l-0.19,-0.069l-0.19,-0.07l-0.19,-0.072l-0.189,-0.072l-0.188,-0.074l-0.188,-0.075l-0.187,-0.076l-0.187,-0.077l-0.186,-0.078l-0.186,-0.079l-0.184,-0.08l-0.185,-0.082l-0.183,-0.082l-0.184,-0.084l-0.182,-0.084l-0.182,-0.086l-0.181,-0.087l-0.181,-0.087l-0.18,-0.089l-0.179,-0.09l-0.179,-0.091l-0.178,-0.092l-0.178,-0.093l-0.177,-0.094l-0.176,-0.095l-0.176,-0.096l-0.175,-0.098l-0.174,-0.098l-0.173,-0.099l-0.173,-0.1l-0.173,-0.101l-0.171,-0.103l-0.171,-0.103l-0.17,-0.104l-0.17,-0.105l-0.169,-0.106l-0.168,-0.107l-0.167,-0.109l-0.167,-0.109l-0.166,-0.11l-0.166,-0.111l-0.164,-0.112l-0.164,-0.113l-0.163,-0.114l-0.163,-0.114l-0.162,-0.116l-0.161,-0.117l-0.16,-0.118l-0.16,-0.118l-0.158,-0.12l-0.158,-0.12l-0.158,-0.122l-0.156,-0.122l-0.156,-0.123l-0.155,-0.124l-0.154,-0.125l-0.154,-0.126l-0.152,-0.127l-0.152,-0.128l-0.152,-0.128l-0.15,-0.13l-0.149,-0.13l-0.149,-0.131l-0.148,-0.132l-0.147,-0.133l-0.147,-0.134l-0.145,-0.135l-0.145,-0.136l-0.144,-0.136l-0.143,-0.137l-0.142,-0.138l-0.142,-0.139l-0.141,-0.14l-0.139,-0.141l-0.139,-0.141l-0.138,-0.143l-0.138,-0.143l-0.136,-0.144l-0.136,-0.144l-0.134,-0.146l-0.134,-0.146l-0.133,-0.147l-0.132,-0.148l-0.132,-0.149l-0.13,-0.15l-0.13,-0.15l-0.128,-0.151l-0.128,-0.152l-0.127,-0.153l-0.126,-0.153l-0.125,-0.155l-0.124,-0.155l-0.123,-0.156l-0.122,-0.156l-0.122,-0.157l-0.12,-0.158l-0.12,-0.159l-0.118,-0.16l-0.118,-0.16l-0.117,-0.161l-0.115,-0.162l-0.115,-0.162l-0.114,-0.163l-0.113,-0.164l-0.112,-0.165l-0.111,-0.165l-0.11,-0.166l-0.109,-0.167l-0.108,-0.168l-0.107,-0.168l-0.107,-0.169l-0.105,-0.169l-0.104,-0.171l-0.103,-0.17l-0.102,-0.172l-0.102,-0.172l-0.1,-0.173l-0.099,-0.174l-0.098,-0.174l-0.097,-0.175l-0.096,-0.176l-0.096,-0.176l-0.094,-0.177l-0.093,-0.177l-0.092,-0.178l-0.091,-0.179l-0.089,-0.18l-0.089,-0.18l-0.088,-0.18l-0.087,-0.182l-0.085,-0.182l-0.085,-0.182l-0.084,-0.183l-0.082,-0.184l-0.081,-0.184l-0.081,-0.185l-0.079,-0.186l-0.078,-0.186l-0.077,-0.186l-0.076,-0.188l-0.075,-0.187l-0.073,-0.189l-0.073,-0.189l-0.071,-0.189l-0.071,-0.19l-0.069,-0.191l-0.068,-0.191l-0.067,-0.192l-0.065,-0.192l-0.065,-0.193l-0.064,-0.193l-0.062,-0.194l-0.061,-0.194l-0.06,-0.195l-0.059,-0.195l-0.057,-0.196l-0.057,-0.196l-0.055,-0.197l-0.054,-0.198l-0.053,-0.197l-0.052,-0.199l-0.051,-0.198l-0.049,-0.2l-0.048,-0.199l-0.047,-0.2l-0.046,-0.201l-0.044,-0.201l-0.043,-0.202l-0.042,-0.202l-0.041,-0.202l-0.04,-0.203l-0.038,-0.203l-0.037,-0.204l-0.036,-0.204l-0.034,-0.204l-0.034,-0.205l-0.032,-0.205l-0.031,-0.206l-0.029,-0.206l-0.028,-0.206l-0.027,-0.207l-0.026,-0.207l-0.025,-0.208l-0.023,-0.208l-0.022,-0.208l-0.02,-0.209l-0.019,-0.209l-0.018,-0.209l-0.017,-0.209l-0.015,-0.21l-0.014,-0.211l-0.013,-0.21l-0.011,-0.211l-0.01,-0.211l-0.009,-0.212l-0.007,-0.212l-0.007,-0.212l-0.004,-0.212l-0.004,-0.213l-0.002,-0.213l0,-0.213l0,-0.213l0.002,-0.213l0.004,-0.212l0.004,-0.213l0.007,-0.212l0.007,-0.212l0.009,-0.211l0.01,-0.211l0.011,-0.211l0.013,-0.211l0.014,-0.21l0.015,-0.21l0.017,-0.21l0.018,-0.209l0.019,-0.209l0.02,-0.209l0.022,-0.208l0.023,-0.208l0.025,-0.207l0.026,-0.207l0.027,-0.207l0.028,-0.207l0.029,-0.206l0.031,-0.205l0.032,-0.206l0.034,-0.204l0.034,-0.205l0.036,-0.204l0.037,-0.204l0.038,-0.203l0.04,-0.203l0.041,-0.202l0.042,-0.202l0.043,-0.201l0.044,-0.201l0.046,-0.201l0.047,-0.2l0.048,-0.2l0.049,-0.199l0.051,-0.199l0.052,-0.198l0.053,-0.198l0.054,-0.197l0.055,-0.197l0.057,-0.196l0.057,-0.196l0.059,-0.196l0.06,-0.194l0.061,-0.195l0.062,-0.194l0.064,-0.193l0.065,-0.193l0.065,-0.192l0.067,-0.191l0.068,-0.192l0.069,-0.19l0.071,-0.19l0.071,-0.19l0.073,-0.189l0.073,-0.188l0.075,-0.188l0.076,-0.187l0.077,-0.187l0.078,-0.186l0.079,-0.185l0.081,-0.185l0.081,-0.185l0.082,-0.183l0.084,-0.183l0.085,-0.183l0.085,-0.182l0.087,-0.181l0.088,-0.181l0.089,-0.18l0.089,-0.179l0.091,-0.179l0.092,-0.178l0.093,-0.178l0.094,-0.177l0.096,-0.176l0.096,-0.175l0.097,-0.175l0.098,-0.175l0.099,-0.173l0.1,-0.173l0.102,-0.173l0.102,-0.171l0.103,-0.171l0.104,-0.17l0.105,-0.17l0.107,-0.169l0.107,-0.168l0.108,-0.167l0.109,-0.167l0.11,-0.166l0.111,-0.166l0.112,-0.164l0.113,-0.164l0.114,-0.163l0.115,-0.163l0.115,-0.162l0.117,-0.161l0.118,-0.16l0.118,-0.159l0.12,-0.159l0.12,-0.158l0.122,-0.157l0.122,-0.157l0.123,-0.156l0.124,-0.155l0.125,-0.154l0.126,-0.154l0.127,-0.152l0.128,-0.152l0.128,-0.151l0.13,-0.151l0.13,-0.149l0.132,-0.149l0.132,-0.148l0.133,-0.147l0.134,-0.147l0.134,-0.145l0.136,-0.145l0.136,-0.144l0.138,-0.143l0.138,-0.142l0.139,-0.142l0.139,-0.14l0.141,-0.14l0.142,-0.139l0.142,-0.138l0.143,-0.138l0.144,-0.136l0.145,-0.136l0.145,-0.134l0.147,-0.134l0.147,-0.133l0.148,-0.132l0.149,-0.131l0.149,-0.131l0.15,-0.129l0.152,-0.129l0.152,-0.128l0.152,-0.126l0.154,-0.126l0.154,-0.125l0.155,-0.125l0.156,-0.123l0.156,-0.122l0.158,-0.121l0.158,-0.121l0.158,-0.119l0.16,-0.119l0.16,-0.118l0.161,-0.116l0.162,-0.116l0.163,-0.115l0.163,-0.114l0.164,-0.113l0.164,-0.112l0.166,-0.111l0.166,-0.11l0.167,-0.109l0.167,-0.108l0.168,-0.107l0.169,-0.106l0.17,-0.106l0.17,-0.104l0.171,-0.103l0.171,-0.102l0.173,-0.101l0.173,-0.101l0.173,-0.099l0.174,-0.098l0.175,-0.097l0.176,-0.096l0.176,-0.095l0.177,-0.094l0.178,-0.093l0.178,-0.092l0.179,-0.091l0.179,-0.09l0.18,-0.089l0.181,-0.088l0.181,-0.087l0.182,-0.085l0.182,-0.085l0.184,-0.083l0.183,-0.083l0.185,-0.081l0.184,-0.081l0.186,-0.079l0.186,-0.078l0.187,-0.077l0.187,-0.076l0.188,-0.074l0.188,-0.074l0.189,-0.073l0.19,-0.071l0.19,-0.07l0.19,-0.07l0.191,-0.068l0.192,-0.067l0.192,-0.065l0.193,-0.065l0.193,-0.063l0.194,-0.063l0.194,-0.061l0.195,-0.06l0.196,-0.059l0.195,-0.057l0.197,-0.057l0.197,-0.055l0.197,-0.054l0.198,-0.053l0.198,-0.052l0.199,-0.05l0.199,-0.05l0.2,-0.048l0.2,-0.047l0.2,-0.045l0.201,-0.045l0.202,-0.043l0.202,-0.042l0.202,-0.041l0.203,-0.04l0.203,-0.038l0.204,-0.037l0.204,-0.036l0.204,-0.034l0.205,-0.034l0.205,-0.032l0.206,-0.031l0.206,-0.029l0.207,-0.028l0.206,-0.027l0.208,-0.026l0.207,-0.024l0.208,-0.024l0.208,-0.021l0.209,-0.021l0.209,-0.019l0.209,-0.018l0.21,-0.017l0.21,-0.015l0.21,-0.014l0.211,-0.013l0.21,-0.011l0.212,-0.01l0.211,-0.009l0.212,-0.007l0.212,-0.006l0.212,-0.005l0.213,-0.003l0.213,-0.002l0.213,-0.001l0.213,0.001Zm-0.388,6.075l-0.174,0.001l-0.174,0.003l-0.174,0.004l-0.174,0.005l-0.173,0.006l-0.173,0.007l-0.173,0.008l-0.172,0.01l-0.172,0.01l-0.172,0.012l-0.172,0.012l-0.171,0.014l-0.171,0.014l-0.171,0.016l-0.17,0.017l-0.17,0.018l-0.17,0.019l-0.169,0.02l-0.17,0.02l-0.168,0.023l-0.169,0.023l-0.168,0.024l-0.168,0.025l-0.167,0.026l-0.167,0.027l-0.167,0.028l-0.167,0.03l-0.166,0.03l-0.166,0.031l-0.165,0.032l-0.165,0.034l-0.165,0.034l-0.164,0.035l-0.164,0.036l-0.163,0.038l-0.164,0.038l-0.162,0.039l-0.163,0.04l-0.162,0.042l-0.161,0.042l-0.162,0.043l-0.161,0.044l-0.16,0.045l-0.16,0.046l-0.16,0.047l-0.159,0.048l-0.159,0.049l-0.158,0.05l-0.158,0.051l-0.158,0.051l-0.157,0.053l-0.157,0.054l-0.156,0.054l-0.156,0.056l-0.155,0.056l-0.155,0.057l-0.154,0.059l-0.155,0.059l-0.153,0.06l-0.153,0.061l-0.153,0.062l-0.152,0.062l-0.152,0.064l-0.151,0.065l-0.151,0.065l-0.15,0.067l-0.15,0.067l-0.15,0.068l-0.148,0.069l-0.149,0.07l-0.148,0.071l-0.147,0.071l-0.147,0.073l-0.146,0.073l-0.146,0.074l-0.146,0.075l-0.145,0.076l-0.144,0.077l-0.144,0.078l-0.143,0.078l-0.143,0.079l-0.142,0.081l-0.142,0.08l-0.141,0.082l-0.141,0.083l-0.14,0.083l-0.139,0.085l-0.139,0.085l-0.139,0.086l-0.138,0.086l-0.137,0.088l-0.137,0.088l-0.136,0.089l-0.136,0.09l-0.135,0.091l-0.134,0.091l-0.134,0.093l-0.134,0.093l-0.132,0.093l-0.132,0.095l-0.132,0.095l-0.131,0.097l-0.13,0.096l-0.13,0.098l-0.129,0.099l-0.129,0.099l-0.128,0.1l-0.127,0.1l-0.127,0.102l-0.126,0.102l-0.125,0.103l-0.125,0.104l-0.124,0.104l-0.124,0.105l-0.123,0.106l-0.122,0.107l-0.122,0.107l-0.121,0.108l-0.12,0.109l-0.12,0.109l-0.119,0.11l-0.118,0.111l-0.118,0.111l-0.117,0.113l-0.116,0.113l-0.116,0.113l-0.115,0.115l-0.114,0.115l-0.114,0.115l-0.112,0.117l-0.113,0.117l-0.111,0.117l-0.111,0.119l-0.11,0.119l-0.11,0.119l-0.108,0.121l-0.108,0.121l-0.108,0.121l-0.106,0.122l-0.106,0.123l-0.105,0.124l-0.105,0.124l-0.103,0.125l-0.103,0.125l-0.102,0.126l-0.102,0.127l-0.1,0.127l-0.1,0.128l-0.1,0.129l-0.098,0.129l-0.098,0.13l-0.097,0.13l-0.096,0.131l-0.095,0.132l-0.095,0.132l-0.094,0.133l-0.093,0.133l-0.092,0.134l-0.091,0.134l-0.091,0.135l-0.09,0.136l-0.089,0.136l-0.088,0.137l-0.088,0.137l-0.087,0.138l-0.085,0.139l-0.086,0.139l-0.084,0.139l-0.083,0.14l-0.083,0.141l-0.082,0.141l-0.081,0.142l-0.08,0.142l-0.079,0.143l-0.079,0.143l-0.077,0.144l-0.077,0.145l-0.076,0.144l-0.075,0.146l-0.074,0.146l-0.073,0.146l-0.073,0.147l-0.072,0.147l-0.07,0.148l-0.07,0.149l-0.069,0.149l-0.068,0.149l-0.068,0.15l-0.066,0.15l-0.065,0.151l-0.065,0.151l-0.064,0.152l-0.062,0.152l-0.062,0.153l-0.061,0.153l-0.06,0.154l-0.06,0.154l-0.058,0.154l-0.057,0.155l-0.057,0.156l-0.055,0.155l-0.055,0.157l-0.053,0.156l-0.053,0.157l-0.052,0.158l-0.05,0.158l-0.05,0.158l-0.049,0.159l-0.048,0.159l-0.047,0.16l-0.046,0.16l-0.045,0.161l-0.044,0.16l-0.043,0.162l-0.043,0.161l-0.041,0.162l-0.04,0.163l-0.039,0.163l-0.038,0.163l-0.038,0.163l-0.036,0.164l-0.035,0.165l-0.035,0.164l-0.033,0.165l-0.032,0.166l-0.031,0.165l-0.031,0.166l-0.029,0.167l-0.028,0.167l-0.027,0.167l-0.026,0.167l-0.025,0.168l-0.025,0.168l-0.023,0.169l-0.022,0.169l-0.021,0.169l-0.02,0.169l-0.018,0.17l-0.018,0.17l-0.017,0.17l-0.016,0.171l-0.014,0.171l-0.014,0.171l-0.013,0.172l-0.011,0.172l-0.01,0.172l-0.01,0.173l-0.008,0.172l-0.007,0.173l-0.006,0.174l-0.005,0.173l-0.004,0.174l-0.003,0.174l-0.001,0.175l-0.001,0.174l0.001,0.175l0.001,0.174l0.003,0.174l0.004,0.174l0.005,0.174l0.006,0.173l0.007,0.173l0.008,0.173l0.01,0.172l0.01,0.173l0.011,0.171l0.013,0.172l0.014,0.171l0.014,0.171l0.016,0.171l0.017,0.17l0.018,0.171l0.018,0.169l0.02,0.17l0.021,0.169l0.022,0.169l0.023,0.168l0.025,0.168l0.025,0.168l0.026,0.168l0.027,0.167l0.028,0.167l0.029,0.166l0.031,0.166l0.031,0.166l0.032,0.165l0.033,0.165l0.035,0.165l0.035,0.164l0.036,0.164l0.038,0.164l0.038,0.163l0.039,0.163l0.04,0.162l0.041,0.162l0.043,0.162l0.043,0.161l0.044,0.161l0.045,0.16l0.046,0.16l0.047,0.16l0.048,0.159l0.049,0.159l0.05,0.158l0.05,0.158l0.052,0.158l0.053,0.157l0.053,0.157l0.055,0.156l0.055,0.156l0.057,0.155l0.057,0.155l0.058,0.155l0.06,0.154l0.06,0.153l0.061,0.154l0.062,0.152l0.062,0.152l0.064,0.152l0.065,0.151l0.065,0.151l0.066,0.151l0.068,0.149l0.068,0.15l0.069,0.149l0.07,0.148l0.07,0.148l0.072,0.147l0.073,0.147l0.073,0.147l0.074,0.146l0.075,0.145l0.076,0.145l0.077,0.144l0.077,0.144l0.079,0.143l0.079,0.143l0.08,0.142l0.081,0.142l0.082,0.141l0.083,0.141l0.083,0.14l0.084,0.14l0.086,0.139l0.085,0.138l0.087,0.138l0.088,0.137l0.088,0.137l0.089,0.136l0.09,0.136l0.091,0.135l0.091,0.135l0.092,0.134l0.093,0.133l0.094,0.133l0.095,0.132l0.095,0.131l0.096,0.131l0.097,0.131l0.098,0.129l0.098,0.13l0.1,0.128l0.1,0.128l0.1,0.127l0.102,0.127l0.102,0.126l0.103,0.126l0.103,0.124l0.105,0.125l0.105,0.123l0.106,0.123l0.106,0.122l0.108,0.122l0.108,0.121l0.108,0.12l0.11,0.12l0.11,0.119l0.111,0.118l0.111,0.118l0.113,0.117l0.112,0.116l0.114,0.116l0.114,0.115l0.115,0.114l0.116,0.114l0.116,0.113l0.117,0.112l0.118,0.112l0.118,0.11l0.119,0.11l0.12,0.11l0.12,0.109l0.121,0.108l0.122,0.107l0.122,0.106l0.123,0.106l0.124,0.105l0.124,0.105l0.125,0.103l0.125,0.103l0.126,0.103l0.127,0.101l0.127,0.101l0.128,0.1l0.129,0.099l0.129,0.098l0.13,0.098l0.13,0.097l0.131,0.096l0.132,0.095l0.132,0.095l0.132,0.094l0.134,0.093l0.134,0.092l0.134,0.092l0.135,0.09l0.136,0.09l0.136,0.089l0.137,0.089l0.137,0.087l0.138,0.087l0.139,0.086l0.139,0.085l0.139,0.084l0.14,0.084l0.141,0.082l0.141,0.082l0.142,0.081l0.142,0.08l0.143,0.079l0.143,0.079l0.144,0.077l0.144,0.077l0.145,0.076l0.146,0.075l0.146,0.074l0.146,0.074l0.147,0.072l0.147,0.072l0.148,0.071l0.149,0.07l0.148,0.069l0.15,0.068l0.15,0.067l0.15,0.066l0.151,0.066l0.151,0.064l0.152,0.064l0.152,0.063l0.153,0.062l0.153,0.061l0.153,0.06l0.155,0.059l0.154,0.058l0.155,0.057l0.155,0.057l0.156,0.055l0.156,0.055l0.157,0.053l0.157,0.053l0.158,0.052l0.158,0.051l0.158,0.05l0.159,0.048l0.159,0.048l0.16,0.047l0.16,0.046l0.16,0.045l0.161,0.045l0.162,0.043l0.161,0.042l0.162,0.041l0.163,0.04l0.162,0.04l0.164,0.038l0.163,0.037l0.164,0.036l0.164,0.036l0.165,0.034l0.165,0.033l0.165,0.032l0.166,0.032l0.166,0.03l0.167,0.029l0.167,0.028l0.167,0.027l0.167,0.027l0.168,0.025l0.168,0.024l0.169,0.023l0.168,0.022l0.17,0.021l0.169,0.02l0.17,0.019l0.17,0.018l0.17,0.016l0.171,0.016l0.171,0.015l0.171,0.013l0.172,0.013l0.172,0.011l0.172,0.011l0.172,0.009l0.173,0.008l0.173,0.007l0.173,0.006l0.174,0.005l0.174,0.004l0.174,0.003l0.174,0.002l0.175,0l0.175,0l0.174,-0.002l0.174,-0.003l0.174,-0.004l0.174,-0.005l0.173,-0.006l0.173,-0.007l0.173,-0.008l0.172,-0.009l0.172,-0.011l0.172,-0.011l0.172,-0.013l0.171,-0.013l0.171,-0.015l0.171,-0.016l0.17,-0.016l0.17,-0.018l0.17,-0.019l0.17,-0.02l0.169,-0.021l0.168,-0.022l0.169,-0.023l0.168,-0.024l0.168,-0.025l0.167,-0.027l0.168,-0.027l0.166,-0.028l0.167,-0.029l0.166,-0.03l0.166,-0.032l0.165,-0.032l0.165,-0.033l0.165,-0.034l0.164,-0.036l0.164,-0.036l0.164,-0.037l0.163,-0.038l0.162,-0.04l0.163,-0.04l0.162,-0.041l0.162,-0.042l0.161,-0.043l0.161,-0.045l0.16,-0.045l0.16,-0.046l0.16,-0.047l0.159,-0.048l0.159,-0.048l0.158,-0.05l0.158,-0.051l0.158,-0.052l0.157,-0.053l0.157,-0.053l0.156,-0.055l0.156,-0.055l0.155,-0.057l0.155,-0.057l0.155,-0.058l0.154,-0.059l0.153,-0.06l0.153,-0.061l0.153,-0.062l0.152,-0.063l0.152,-0.064l0.151,-0.064l0.151,-0.066l0.15,-0.066l0.15,-0.067l0.15,-0.068l0.149,-0.069l0.148,-0.07l0.148,-0.071l0.147,-0.072l0.147,-0.072l0.147,-0.074l0.145,-0.074l0.146,-0.075l0.145,-0.076l0.144,-0.077l0.144,-0.077l0.143,-0.079l0.143,-0.079l0.142,-0.08l0.142,-0.081l0.141,-0.082l0.141,-0.082l0.14,-0.084l0.14,-0.084l0.139,-0.085l0.138,-0.086l0.138,-0.087l0.137,-0.087l0.137,-0.089l0.136,-0.089l0.136,-0.09l0.135,-0.09l0.134,-0.092l0.134,-0.092l0.134,-0.093l0.132,-0.094l0.133,-0.095l0.131,-0.095l0.131,-0.096l0.13,-0.097l0.13,-0.098l0.129,-0.098l0.129,-0.099l0.128,-0.1l0.127,-0.101l0.127,-0.101l0.126,-0.103l0.125,-0.103l0.125,-0.103l0.124,-0.105l0.124,-0.105l0.123,-0.106l0.122,-0.106l0.122,-0.107l0.121,-0.108l0.12,-0.109l0.12,-0.11l0.119,-0.11l0.118,-0.11l0.118,-0.112l0.117,-0.112l0.116,-0.113l0.116,-0.114l0.115,-0.114l0.114,-0.115l0.114,-0.116l0.113,-0.116l0.112,-0.117l0.111,-0.118l0.111,-0.118l0.11,-0.119l0.11,-0.12l0.108,-0.12l0.108,-0.121l0.108,-0.122l0.106,-0.122l0.106,-0.123l0.105,-0.123l0.105,-0.125l0.103,-0.124l0.103,-0.126l0.102,-0.126l0.102,-0.127l0.101,-0.127l0.1,-0.128l0.099,-0.128l0.098,-0.13l0.098,-0.129l0.097,-0.131l0.096,-0.131l0.095,-0.131l0.095,-0.132l0.094,-0.133l0.093,-0.133l0.092,-0.134l0.091,-0.135l0.091,-0.135l0.09,-0.136l0.089,-0.136l0.089,-0.137l0.087,-0.137l0.087,-0.138l0.086,-0.138l0.085,-0.139l0.084,-0.14l0.083,-0.14l0.083,-0.141l0.082,-0.141l0.081,-0.142l0.08,-0.142l0.079,-0.143l0.079,-0.143l0.077,-0.144l0.077,-0.144l0.076,-0.145l0.075,-0.145l0.074,-0.146l0.074,-0.147l0.072,-0.147l0.072,-0.147l0.07,-0.148l0.07,-0.148l0.069,-0.149l0.068,-0.15l0.068,-0.149l0.066,-0.151l0.066,-0.151l0.064,-0.151l0.064,-0.152l0.063,-0.152l0.061,-0.152l0.061,-0.154l0.061,-0.153l0.059,-0.154l0.058,-0.155l0.057,-0.155l0.057,-0.155l0.055,-0.156l0.055,-0.156l0.053,-0.157l0.053,-0.157l0.052,-0.158l0.05,-0.158l0.05,-0.158l0.049,-0.159l0.048,-0.159l0.047,-0.16l0.046,-0.16l0.045,-0.16l0.044,-0.161l0.044,-0.161l0.042,-0.162l0.041,-0.162l0.04,-0.162l0.039,-0.163l0.039,-0.163l0.037,-0.164l0.036,-0.164l0.035,-0.164l0.035,-0.165l0.033,-0.165l0.032,-0.165l0.031,-0.166l0.031,-0.166l0.029,-0.166l0.028,-0.167l0.027,-0.167l0.026,-0.168l0.026,-0.168l0.024,-0.168l0.023,-0.168l0.022,-0.169l0.021,-0.169l0.02,-0.17l0.019,-0.169l0.017,-0.171l0.017,-0.17l0.016,-0.171l0.015,-0.171l0.013,-0.171l0.013,-0.172l0.011,-0.171l0.011,-0.173l0.009,-0.172l0.008,-0.173l0.007,-0.173l0.006,-0.173l0.005,-0.174l0.004,-0.174l0.003,-0.174l0.002,-0.174l0,-0.175l0,-0.174l-0.002,-0.175l-0.003,-0.174l-0.004,-0.174l-0.005,-0.173l-0.006,-0.174l-0.007,-0.173l-0.008,-0.172l-0.009,-0.173l-0.011,-0.172l-0.011,-0.172l-0.013,-0.172l-0.013,-0.171l-0.015,-0.171l-0.016,-0.171l-0.017,-0.17l-0.017,-0.17l-0.019,-0.17l-0.02,-0.169l-0.021,-0.169l-0.022,-0.169l-0.023,-0.169l-0.024,-0.168l-0.026,-0.168l-0.026,-0.167l-0.027,-0.167l-0.028,-0.167l-0.029,-0.167l-0.031,-0.166l-0.031,-0.165l-0.032,-0.166l-0.033,-0.165l-0.035,-0.164l-0.035,-0.165l-0.036,-0.164l-0.037,-0.163l-0.039,-0.163l-0.039,-0.163l-0.04,-0.163l-0.041,-0.162l-0.042,-0.161l-0.044,-0.162l-0.044,-0.16l-0.045,-0.161l-0.046,-0.16l-0.047,-0.16l-0.048,-0.159l-0.049,-0.159l-0.05,-0.158l-0.05,-0.158l-0.052,-0.158l-0.053,-0.157l-0.053,-0.156l-0.055,-0.157l-0.055,-0.155l-0.057,-0.156l-0.057,-0.155l-0.058,-0.154l-0.059,-0.154l-0.061,-0.154l-0.061,-0.153l-0.061,-0.153l-0.063,-0.152l-0.064,-0.152l-0.064,-0.151l-0.066,-0.151l-0.066,-0.15l-0.068,-0.15l-0.068,-0.149l-0.069,-0.149l-0.07,-0.149l-0.07,-0.148l-0.072,-0.147l-0.072,-0.147l-0.074,-0.146l-0.074,-0.146l-0.075,-0.146l-0.076,-0.144l-0.077,-0.145l-0.077,-0.144l-0.079,-0.143l-0.079,-0.143l-0.08,-0.142l-0.081,-0.142l-0.082,-0.141l-0.083,-0.141l-0.083,-0.14l-0.084,-0.139l-0.085,-0.139l-0.086,-0.139l-0.087,-0.138l-0.087,-0.137l-0.089,-0.137l-0.089,-0.136l-0.09,-0.136l-0.091,-0.135l-0.091,-0.134l-0.092,-0.134l-0.093,-0.133l-0.094,-0.133l-0.095,-0.132l-0.095,-0.132l-0.096,-0.131l-0.097,-0.13l-0.098,-0.13l-0.098,-0.129l-0.099,-0.129l-0.1,-0.128l-0.101,-0.127l-0.102,-0.127l-0.102,-0.126l-0.103,-0.125l-0.103,-0.125l-0.105,-0.124l-0.105,-0.124l-0.106,-0.123l-0.106,-0.122l-0.108,-0.121l-0.108,-0.121l-0.108,-0.121l-0.11,-0.119l-0.11,-0.119l-0.111,-0.119l-0.111,-0.117l-0.112,-0.117l-0.113,-0.117l-0.114,-0.115l-0.114,-0.115l-0.115,-0.115l-0.116,-0.113l-0.116,-0.113l-0.117,-0.113l-0.118,-0.111l-0.118,-0.111l-0.119,-0.11l-0.12,-0.109l-0.12,-0.109l-0.121,-0.108l-0.122,-0.107l-0.122,-0.107l-0.123,-0.106l-0.124,-0.105l-0.124,-0.104l-0.125,-0.104l-0.125,-0.103l-0.126,-0.102l-0.127,-0.102l-0.127,-0.1l-0.128,-0.1l-0.129,-0.099l-0.129,-0.099l-0.13,-0.098l-0.13,-0.096l-0.131,-0.097l-0.131,-0.095l-0.133,-0.095l-0.132,-0.093l-0.134,-0.093l-0.134,-0.093l-0.134,-0.091l-0.135,-0.091l-0.136,-0.09l-0.136,-0.089l-0.137,-0.088l-0.137,-0.088l-0.138,-0.086l-0.138,-0.086l-0.139,-0.085l-0.14,-0.085l-0.14,-0.083l-0.141,-0.083l-0.141,-0.082l-0.142,-0.08l-0.142,-0.081l-0.143,-0.079l-0.143,-0.078l-0.144,-0.078l-0.144,-0.077l-0.145,-0.076l-0.146,-0.075l-0.145,-0.074l-0.147,-0.073l-0.147,-0.073l-0.147,-0.071l-0.148,-0.071l-0.148,-0.07l-0.149,-0.069l-0.15,-0.068l-0.15,-0.067l-0.15,-0.067l-0.151,-0.065l-0.151,-0.065l-0.152,-0.064l-0.152,-0.062l-0.153,-0.062l-0.153,-0.061l-0.153,-0.06l-0.154,-0.059l-0.155,-0.059l-0.155,-0.057l-0.155,-0.056l-0.156,-0.056l-0.156,-0.054l-0.157,-0.054l-0.157,-0.053l-0.158,-0.051l-0.158,-0.051l-0.158,-0.05l-0.159,-0.049l-0.159,-0.048l-0.16,-0.047l-0.16,-0.046l-0.16,-0.045l-0.161,-0.044l-0.161,-0.043l-0.162,-0.042l-0.162,-0.042l-0.163,-0.04l-0.162,-0.039l-0.163,-0.038l-0.164,-0.038l-0.164,-0.036l-0.164,-0.035l-0.165,-0.034l-0.165,-0.034l-0.165,-0.032l-0.166,-0.031l-0.166,-0.03l-0.167,-0.03l-0.166,-0.028l-0.168,-0.027l-0.167,-0.026l-0.168,-0.025l-0.168,-0.024l-0.169,-0.023l-0.168,-0.023l-0.169,-0.02l-0.17,-0.02l-0.17,-0.019l-0.17,-0.018l-0.17,-0.017l-0.171,-0.016l-0.171,-0.014l-0.171,-0.014l-0.172,-0.012l-0.172,-0.012l-0.172,-0.01l-0.172,-0.01l-0.173,-0.008l-0.173,-0.007l-0.173,-0.006l-0.174,-0.005l-0.174,-0.004l-0.174,-0.003l-0.174,-0.001l-0.175,-0.001l-0.175,0.001Z" style="fill:#662d91;"/><path d="M334.865,159.169l0.013,0.014l0.833,2.159l-0.924,2.122l-0.008,0.007l-0.207,0.198l-0.197,0.192l-0.196,0.192l-0.193,0.192l-0.19,0.191l-0.188,0.192l-0.185,0.191l-0.183,0.191l-0.18,0.191l-0.179,0.191l-0.175,0.191l-0.173,0.19l-0.171,0.191l-0.169,0.19l-0.166,0.19l-0.164,0.19l-0.162,0.189l-0.159,0.19l-0.157,0.189l-0.155,0.189l-0.152,0.189l-0.151,0.189l-0.148,0.188l-0.146,0.188l-0.143,0.188l-0.142,0.188l-0.139,0.187l-0.137,0.188l-0.136,0.187l-0.133,0.186l-0.131,0.187l-0.129,0.186l-0.126,0.186l-0.125,0.185l-0.123,0.186l-0.121,0.185l-0.119,0.184l-0.117,0.185l-0.115,0.184l-0.112,0.184l-0.112,0.183l-0.109,0.184l-0.107,0.182l-0.105,0.183l-0.104,0.182l-0.101,0.182l-0.1,0.182l-0.098,0.181l-0.096,0.181l-0.095,0.18l-0.092,0.18l-0.091,0.18l-0.089,0.18l-0.088,0.179l-0.085,0.178l-0.084,0.179l-0.083,0.178l-0.08,0.177l-0.079,0.177l-0.078,0.177l-0.075,0.177l-0.075,0.176l-0.072,0.175l-0.071,0.175l-0.069,0.175l-0.068,0.174l-0.067,0.174l-0.064,0.174l-0.064,0.173l-0.061,0.173l-0.061,0.172l-0.058,0.172l-0.058,0.171l-0.056,0.171l-0.054,0.171l-0.053,0.17l-0.052,0.169l-0.05,0.169l-0.049,0.169l-0.048,0.168l-0.046,0.168l-0.045,0.167l-0.043,0.167l-0.043,0.166l-0.041,0.166l-0.039,0.165l-0.039,0.165l-0.037,0.165l-0.036,0.163l-0.034,0.164l-0.034,0.163l-0.032,0.162l-0.031,0.162l-0.03,0.161l-0.029,0.161l-0.028,0.16l-0.026,0.16l-0.025,0.159l-0.024,0.158l-0.024,0.158l-0.022,0.158l-0.021,0.157l-0.019,0.156l-0.019,0.156l-0.018,0.155l-0.017,0.155l-0.015,0.154l-0.015,0.153l-0.014,0.153l-0.013,0.153l-0.011,0.151l-0.011,0.151l-0.01,0.151l-0.009,0.15l-0.008,0.149l-0.007,0.148l-0.006,0.148l-0.006,0.148l-0.004,0.146l-0.004,0.146l-0.003,0.146l-0.002,0.144l-0.001,0.145l0,0.143l0.001,0.143l0.001,0.142l0.002,0.141l0.003,0.14l0.003,0.14l0.005,0.14l0.005,0.138l0.006,0.138l0.006,0.137l0.007,0.136l0.008,0.136l0.009,0.134l0.009,0.134l0.009,0.134l0.011,0.132l0.011,0.128l0.024,0.265l0.026,0.258l0.029,0.255l0.03,0.252l0.033,0.248l0.035,0.245l0.036,0.241l0.038,0.238l0.04,0.234l0.042,0.231l0.042,0.227l0.045,0.223l0.045,0.22l0.001,0.007l0.046,0.209l0.047,0.212l0.049,0.208l0.049,0.204l0.05,0.2l0.051,0.196l0.052,0.191l0.052,0.188l0.052,0.183l0.052,0.179l0.053,0.174l0.052,0.17l0.053,0.166l0.052,0.161l0.052,0.156l0.052,0.152l0.051,0.147l0.051,0.142l0.05,0.137l0.049,0.133l0.048,0.127l0.048,0.122l0.046,0.118l0.045,0.112l0.043,0.107l0.043,0.101l0.039,0.093l0.078,0.181l0.069,0.154l0.061,0.132l0.051,0.11l0.042,0.086l0.031,0.062l0.018,0.035l0.024,0.045l0.206,2.305l-1.474,1.785l-0.017,0.009l-2.306,0.206l-1.784,-1.474l-0.005,-0.008l-0.036,-0.069l-0.048,-0.094l-0.059,-0.117l-0.069,-0.143l-0.08,-0.169l-0.089,-0.193l-0.097,-0.218l-0.103,-0.237l-0.056,-0.134l-0.056,-0.135l-0.058,-0.142l-0.059,-0.147l-0.06,-0.153l-0.062,-0.159l-0.062,-0.164l-0.063,-0.17l-0.064,-0.175l-0.064,-0.181l-0.065,-0.186l-0.066,-0.192l-0.065,-0.197l-0.066,-0.202l-0.066,-0.208l-0.066,-0.213l-0.066,-0.217l-0.065,-0.223l-0.065,-0.228l-0.064,-0.233l-0.064,-0.238l-0.063,-0.243l-0.062,-0.248l-0.061,-0.252l-0.061,-0.258l-0.058,-0.262l-0.056,-0.258l-0.002,-0.008l-0.056,-0.272l-0.055,-0.275l-0.053,-0.281l-0.051,-0.284l-0.049,-0.289l-0.047,-0.294l-0.045,-0.298l-0.043,-0.302l-0.04,-0.306l-0.038,-0.31l-0.035,-0.315l-0.032,-0.318l-0.029,-0.319l-0.014,-0.166l-0.013,-0.164l-0.012,-0.164l-0.012,-0.166l-0.01,-0.167l-0.01,-0.167l-0.009,-0.168l-0.008,-0.17l-0.007,-0.17l-0.006,-0.171l-0.006,-0.172l-0.004,-0.173l-0.004,-0.174l-0.002,-0.175l-0.002,-0.176l0,-0.176l0,-0.178l0.001,-0.178l0.003,-0.179l0.003,-0.18l0.005,-0.181l0.005,-0.182l0.007,-0.182l0.008,-0.184l0.008,-0.184l0.01,-0.185l0.011,-0.185l0.013,-0.187l0.013,-0.187l0.015,-0.188l0.015,-0.189l0.017,-0.189l0.019,-0.19l0.019,-0.191l0.021,-0.192l0.022,-0.193l0.023,-0.193l0.025,-0.194l0.026,-0.194l0.027,-0.195l0.029,-0.196l0.03,-0.197l0.031,-0.197l0.033,-0.198l0.034,-0.198l0.036,-0.199l0.037,-0.2l0.038,-0.2l0.04,-0.201l0.042,-0.202l0.043,-0.202l0.044,-0.203l0.046,-0.203l0.047,-0.204l0.05,-0.204l0.05,-0.205l0.052,-0.206l0.054,-0.206l0.056,-0.206l0.057,-0.207l0.058,-0.208l0.061,-0.208l0.062,-0.208l0.063,-0.209l0.066,-0.209l0.067,-0.21l0.068,-0.21l0.071,-0.211l0.072,-0.211l0.074,-0.212l0.076,-0.212l0.078,-0.212l0.079,-0.213l0.081,-0.213l0.083,-0.213l0.085,-0.214l0.087,-0.214l0.088,-0.214l0.091,-0.215l0.092,-0.215l0.094,-0.215l0.096,-0.216l0.098,-0.216l0.1,-0.216l0.102,-0.217l0.104,-0.216l0.106,-0.217l0.108,-0.217l0.11,-0.218l0.112,-0.218l0.114,-0.217l0.116,-0.218l0.118,-0.219l0.12,-0.218l0.122,-0.219l0.124,-0.218l0.127,-0.219l0.128,-0.219l0.131,-0.22l0.132,-0.219l0.135,-0.219l0.137,-0.22l0.139,-0.22l0.142,-0.219l0.143,-0.22l0.146,-0.22l0.148,-0.22l0.15,-0.22l0.152,-0.22l0.155,-0.22l0.157,-0.22l0.159,-0.22l0.162,-0.221l0.163,-0.22l0.166,-0.22l0.169,-0.22l0.17,-0.22l0.173,-0.22l0.176,-0.22l0.177,-0.221l0.181,-0.22l0.182,-0.219l0.185,-0.22l0.187,-0.22l0.19,-0.22l0.192,-0.22l0.194,-0.219l0.197,-0.22l0.2,-0.219l0.202,-0.219l0.204,-0.219l0.207,-0.219l0.209,-0.219l0.212,-0.219l0.215,-0.218l0.217,-0.219l0.219,-0.218l0.222,-0.218l0.225,-0.218l0.221,-0.211l0.007,-0.007l2.159,-0.833l2.122,0.925Z" style="fill:#662d91;"/></g></g><rect x="435.433" y="186.644" width="567.011" height="116.711" style="fill:#eaaacc;"/></g></g></svg>