<?xml version="1.0" encoding="UTF-8" standalone="no"?><!DOCTYPE svg PUBLIC "-//W3C//DTD SVG 1.1//EN" "http://www.w3.org/Graphics/SVG/1.1/DTD/svg11.dtd"><svg width="100%" height="100%" viewBox="0 0 2857 707" version="1.1" xmlns="http://www.w3.org/2000/svg" xmlns:xlink="http://www.w3.org/1999/xlink" xml:space="preserve" xmlns:serif="http://www.serif.com/" style="fill-rule:evenodd;clip-rule:evenodd;stroke-linejoin:round;stroke-miterlimit:2;"><rect id="Artboard1" x="-601" y="-2446" width="4000" height="4000" style="fill:none;"/><g id="Artboard11" serif:id="Artboard1"><g><path d="M1212.8,95.546c-131.661,-4.007 -149.364,-10.396 -382.116,64.878c-232.752,75.273 -344.693,181.043 -582.697,257.746c-325.277,104.829 -160.962,259.986 426.488,191.042c532.395,-62.482 479.873,-111.458 885.208,-99.585c405.336,11.873 705.831,36.408 866.72,-10.572c160.889,-46.981 406.906,-92.392 222.627,-161.386c-184.278,-68.994 52.198,-132.642 -438.775,-137.554c-364.46,-3.646 -440.428,40.239 -589.605,-15.653c-148.266,-55.549 -276.189,-84.91 -407.85,-88.916Z" style="fill:#fff4eb;"/><rect x="270.733" y="232.942" width="2119.13" height="262.006" style="fill:#f2c6dd;"/><path d="M2393.31,213.371l3.346,0.896l3.14,1.464l2.837,1.987l2.45,2.45l1.987,2.837l1.464,3.14l0.896,3.346l0.302,3.451l0,262.006l-0.302,3.451l-0.896,3.346l-1.464,3.14l-1.987,2.837l-2.45,2.45l-2.837,1.987l-3.14,1.464l-3.346,0.896l-3.451,0.302l-2119.13,0l-3.451,-0.302l-3.346,-0.896l-3.14,-1.464l-2.837,-1.987l-2.45,-2.45l-1.987,-2.837l-1.464,-3.14l-0.896,-3.346l-0.302,-3.451l0,-262.006l0.302,-3.451l0.896,-3.346l1.464,-3.14l1.987,-2.837l2.45,-2.45l2.837,-1.987l3.14,-1.464l3.346,-0.896l3.451,-0.302l2119.13,0l3.451,0.302Zm-2122.58,19.571l0,262.006l2119.13,0l0,-262.006l-2119.13,0Z" style="fill:#662d91;"/><g><path d="M403.098,326.144l64.716,132.972l-129.432,0l64.716,-132.972Z" style="fill:#edce9e;"/><clipPath id="_clip1"><path d="M403.098,326.144l64.716,132.972l-129.432,0l64.716,-132.972Z"/></clipPath><g clip-path="url(#_clip1)"><path d="M403.098,326.144l18.437,132.972l-36.874,0l18.437,-132.972Z" style="fill:#fff3db;"/><path d="M404.79,319.596l1.075,0.376l0.996,0.552l0.89,0.711l0.758,0.851l0.604,0.965l0.434,1.053l0.251,1.111l18.436,132.973l0.061,1.152l-0.137,1.146l-0.329,1.107l-0.513,1.034l-0.681,0.932l-0.829,0.802l-0.954,0.65l-1.051,0.478l-1.116,0.293l-1.15,0.098l-36.874,0l-1.15,-0.098l-1.117,-0.293l-1.05,-0.478l-0.954,-0.65l-0.83,-0.802l-0.681,-0.932l-0.512,-1.034l-0.33,-1.107l-0.136,-1.146l0.06,-1.152l18.437,-132.973l0.251,-1.111l0.434,-1.053l0.604,-0.965l0.758,-0.851l0.889,-0.711l0.997,-0.552l1.075,-0.376l1.122,-0.191l1.139,0l1.123,0.191Zm-20.129,139.52l36.874,0l-18.437,-132.972l-18.437,132.972Z" style="fill:#662d91;"/></g><path d="M405.038,318.79l1.23,0.441l1.136,0.644l1.01,0.83l0.852,0.99l0.671,1.121l64.716,132.972l0.461,1.195l0.255,1.256l0.04,1.28l-0.176,1.269l-0.385,1.222l-0.586,1.14l-0.768,1.025l-0.93,0.881l-1.064,0.713l-1.169,0.525l-1.241,0.32l-1.276,0.108l-129.432,0l-1.277,-0.108l-1.24,-0.32l-1.169,-0.525l-1.064,-0.713l-0.93,-0.881l-0.768,-1.025l-0.586,-1.14l-0.386,-1.222l-0.175,-1.269l0.04,-1.28l0.254,-1.256l0.462,-1.195l64.716,-132.972l0.671,-1.121l0.852,-0.99l1.009,-0.83l1.137,-0.644l1.23,-0.441l1.287,-0.223l1.306,0l1.287,0.223Zm-66.656,140.326l129.432,0l-64.716,-132.972l-64.716,132.972Z" style="fill:#662d91;"/><g><circle cx="403.098" cy="330.617" r="33.343" style="fill:#ff9eb1;"/><path d="M403.361,289.779l0.263,0.003l0.262,0.004l0.262,0.006l0.262,0.007l0.261,0.009l0.261,0.011l0.261,0.012l0.26,0.015l0.26,0.015l0.259,0.017l0.259,0.019l0.259,0.021l0.258,0.022l0.258,0.024l0.257,0.025l0.257,0.027l0.257,0.029l0.256,0.03l0.255,0.032l0.256,0.033l0.254,0.035l0.255,0.036l0.253,0.038l0.254,0.04l0.252,0.041l0.253,0.042l0.251,0.045l0.252,0.045l0.25,0.048l0.251,0.049l0.249,0.05l0.25,0.052l0.248,0.053l0.248,0.055l0.248,0.056l0.247,0.058l0.246,0.06l0.246,0.06l0.245,0.063l0.245,0.064l0.244,0.065l0.243,0.067l0.243,0.068l0.242,0.07l0.242,0.071l0.241,0.072l0.241,0.074l0.239,0.076l0.239,0.077l0.239,0.078l0.238,0.08l0.237,0.081l0.236,0.082l0.236,0.084l0.235,0.086l0.235,0.086l0.234,0.089l0.233,0.089l0.232,0.091l0.232,0.092l0.231,0.094l0.23,0.095l0.23,0.096l0.229,0.098l0.228,0.099l0.228,0.1l0.226,0.102l0.226,0.103l0.225,0.105l0.225,0.105l0.224,0.107l0.222,0.109l0.223,0.109l0.221,0.111l0.221,0.112l0.219,0.114l0.22,0.115l0.218,0.116l0.217,0.117l0.217,0.119l0.216,0.12l0.215,0.121l0.214,0.122l0.213,0.124l0.213,0.125l0.212,0.126l0.211,0.127l0.21,0.129l0.209,0.129l0.208,0.131l0.208,0.133l0.206,0.133l0.206,0.135l0.205,0.135l0.204,0.137l0.203,0.139l0.203,0.139l0.201,0.141l0.2,0.141l0.2,0.143l0.199,0.144l0.197,0.145l0.197,0.147l0.196,0.147l0.195,0.149l0.194,0.15l0.193,0.151l0.193,0.152l0.191,0.153l0.19,0.154l0.19,0.155l0.188,0.157l0.188,0.157l0.186,0.159l0.186,0.16l0.184,0.161l0.184,0.162l0.182,0.163l0.182,0.164l0.181,0.165l0.179,0.166l0.179,0.167l0.177,0.169l0.177,0.169l0.176,0.171l0.174,0.171l0.174,0.173l0.172,0.173l0.172,0.175l0.17,0.175l0.169,0.177l0.169,0.177l0.167,0.179l0.166,0.18l0.165,0.18l0.165,0.182l0.163,0.182l0.162,0.184l0.16,0.185l0.16,0.185l0.159,0.187l0.157,0.187l0.157,0.189l0.155,0.189l0.155,0.19l0.153,0.192l0.152,0.192l0.151,0.193l0.149,0.194l0.149,0.195l0.147,0.196l0.147,0.197l0.145,0.198l0.144,0.198l0.143,0.2l0.142,0.2l0.14,0.202l0.14,0.202l0.138,0.203l0.137,0.204l0.136,0.205l0.134,0.206l0.134,0.206l0.132,0.208l0.131,0.208l0.13,0.21l0.128,0.21l0.127,0.211l0.127,0.211l0.124,0.213l0.124,0.213l0.122,0.214l0.122,0.215l0.119,0.216l0.119,0.217l0.117,0.217l0.116,0.219l0.115,0.219l0.114,0.22l0.112,0.22l0.111,0.222l0.11,0.222l0.108,0.223l0.107,0.223l0.106,0.225l0.104,0.225l0.103,0.226l0.102,0.227l0.1,0.227l0.099,0.228l0.098,0.229l0.096,0.23l0.095,0.23l0.094,0.231l0.092,0.232l0.091,0.232l0.09,0.233l0.088,0.234l0.086,0.235l0.086,0.235l0.084,0.236l0.082,0.236l0.081,0.237l0.08,0.238l0.079,0.239l0.076,0.239l0.076,0.24l0.074,0.24l0.072,0.241l0.072,0.242l0.069,0.242l0.069,0.243l0.066,0.243l0.066,0.244l0.063,0.245l0.063,0.245l0.061,0.246l0.059,0.246l0.058,0.247l0.056,0.248l0.055,0.248l0.054,0.249l0.051,0.249l0.051,0.25l0.049,0.25l0.047,0.251l0.046,0.251l0.044,0.252l0.042,0.252l0.042,0.253l0.039,0.253l0.038,0.254l0.037,0.254l0.034,0.255l0.034,0.255l0.031,0.255l0.031,0.256l0.028,0.257l0.027,0.257l0.025,0.257l0.024,0.258l0.022,0.258l0.021,0.259l0.019,0.259l0.017,0.26l0.016,0.259l0.014,0.261l0.012,0.26l0.011,0.261l0.009,0.262l0.007,0.261l0.006,0.262l0.004,0.263l0.003,0.262l0.001,0.263l-0.001,0.263l-0.003,0.263l-0.004,0.263l-0.006,0.262l-0.007,0.261l-0.009,0.262l-0.011,0.261l-0.012,0.26l-0.014,0.26l-0.016,0.26l-0.017,0.26l-0.019,0.259l-0.021,0.258l-0.022,0.259l-0.024,0.257l-0.025,0.258l-0.027,0.257l-0.028,0.256l-0.031,0.256l-0.031,0.256l-0.034,0.255l-0.034,0.255l-0.037,0.254l-0.038,0.254l-0.039,0.253l-0.042,0.253l-0.042,0.252l-0.044,0.252l-0.046,0.251l-0.047,0.251l-0.049,0.25l-0.051,0.25l-0.051,0.249l-0.054,0.249l-0.055,0.248l-0.056,0.247l-0.058,0.247l-0.059,0.247l-0.061,0.245l-0.063,0.246l-0.063,0.244l-0.066,0.244l-0.066,0.244l-0.069,0.243l-0.069,0.242l-0.072,0.242l-0.072,0.241l-0.074,0.24l-0.076,0.24l-0.076,0.239l-0.079,0.238l-0.08,0.238l-0.081,0.237l-0.082,0.237l-0.084,0.236l-0.086,0.235l-0.086,0.235l-0.088,0.233l-0.09,0.233l-0.091,0.233l-0.092,0.232l-0.094,0.231l-0.095,0.23l-0.096,0.23l-0.098,0.229l-0.099,0.228l-0.1,0.227l-0.102,0.227l-0.103,0.226l-0.104,0.225l-0.106,0.224l-0.107,0.224l-0.108,0.223l-0.11,0.222l-0.111,0.222l-0.112,0.22l-0.114,0.22l-0.115,0.219l-0.116,0.218l-0.117,0.218l-0.119,0.216l-0.119,0.216l-0.122,0.215l-0.122,0.215l-0.124,0.213l-0.124,0.213l-0.127,0.211l-0.127,0.211l-0.128,0.21l-0.13,0.209l-0.131,0.209l-0.132,0.207l-0.134,0.207l-0.134,0.206l-0.136,0.205l-0.137,0.204l-0.138,0.203l-0.14,0.202l-0.14,0.201l-0.142,0.201l-0.143,0.2l-0.144,0.198l-0.145,0.198l-0.147,0.197l-0.147,0.196l-0.149,0.195l-0.149,0.194l-0.151,0.193l-0.152,0.192l-0.153,0.192l-0.155,0.19l-0.155,0.189l-0.157,0.189l-0.157,0.187l-0.159,0.187l-0.16,0.185l-0.16,0.185l-0.162,0.183l-0.163,0.183l-0.165,0.182l-0.165,0.18l-0.166,0.18l-0.167,0.178l-0.169,0.178l-0.169,0.177l-0.17,0.175l-0.172,0.175l-0.172,0.173l-0.174,0.173l-0.174,0.171l-0.176,0.171l-0.177,0.169l-0.177,0.168l-0.179,0.168l-0.179,0.166l-0.181,0.165l-0.182,0.164l-0.182,0.163l-0.184,0.162l-0.184,0.161l-0.186,0.16l-0.186,0.158l-0.188,0.158l-0.188,0.156l-0.19,0.156l-0.19,0.154l-0.191,0.153l-0.193,0.152l-0.193,0.151l-0.194,0.15l-0.195,0.149l-0.196,0.147l-0.197,0.146l-0.197,0.146l-0.199,0.144l-0.2,0.143l-0.2,0.141l-0.201,0.141l-0.203,0.139l-0.203,0.138l-0.204,0.137l-0.205,0.136l-0.206,0.135l-0.206,0.133l-0.208,0.132l-0.208,0.131l-0.209,0.13l-0.21,0.129l-0.211,0.127l-0.212,0.126l-0.213,0.125l-0.213,0.124l-0.214,0.122l-0.215,0.121l-0.216,0.12l-0.217,0.119l-0.217,0.117l-0.218,0.116l-0.22,0.115l-0.219,0.113l-0.221,0.113l-0.221,0.11l-0.223,0.11l-0.222,0.108l-0.224,0.107l-0.225,0.106l-0.225,0.105l-0.226,0.103l-0.226,0.101l-0.228,0.101l-0.228,0.099l-0.229,0.097l-0.23,0.097l-0.23,0.095l-0.231,0.093l-0.232,0.093l-0.232,0.091l-0.233,0.089l-0.234,0.088l-0.235,0.087l-0.235,0.085l-0.236,0.084l-0.236,0.083l-0.237,0.081l-0.238,0.08l-0.239,0.078l-0.239,0.077l-0.239,0.075l-0.241,0.074l-0.241,0.073l-0.242,0.071l-0.242,0.07l-0.243,0.068l-0.243,0.067l-0.244,0.065l-0.245,0.064l-0.245,0.062l-0.246,0.061l-0.246,0.06l-0.247,0.057l-0.248,0.057l-0.248,0.055l-0.248,0.053l-0.25,0.052l-0.249,0.05l-0.251,0.049l-0.25,0.047l-0.252,0.046l-0.251,0.044l-0.253,0.043l-0.252,0.041l-0.254,0.04l-0.253,0.038l-0.255,0.036l-0.254,0.035l-0.256,0.033l-0.255,0.032l-0.256,0.03l-0.257,0.029l-0.257,0.027l-0.257,0.025l-0.258,0.024l-0.258,0.022l-0.259,0.02l-0.259,0.019l-0.259,0.018l-0.26,0.015l-0.26,0.014l-0.261,0.013l-0.261,0.01l-0.261,0.01l-0.262,0.007l-0.262,0.006l-0.262,0.004l-0.263,0.003l-0.263,0l-0.263,0l-0.263,-0.003l-0.262,-0.004l-0.262,-0.006l-0.262,-0.007l-0.261,-0.01l-0.261,-0.01l-0.261,-0.013l-0.26,-0.014l-0.26,-0.015l-0.259,-0.018l-0.259,-0.019l-0.259,-0.02l-0.258,-0.022l-0.258,-0.024l-0.258,-0.025l-0.257,-0.027l-0.256,-0.029l-0.256,-0.03l-0.256,-0.032l-0.255,-0.033l-0.255,-0.035l-0.254,-0.036l-0.254,-0.038l-0.253,-0.04l-0.253,-0.041l-0.252,-0.043l-0.252,-0.044l-0.251,-0.046l-0.251,-0.047l-0.25,-0.049l-0.25,-0.05l-0.249,-0.052l-0.249,-0.053l-0.248,-0.055l-0.247,-0.057l-0.247,-0.057l-0.246,-0.06l-0.246,-0.061l-0.246,-0.062l-0.244,-0.064l-0.244,-0.065l-0.244,-0.067l-0.243,-0.068l-0.242,-0.07l-0.241,-0.071l-0.241,-0.073l-0.241,-0.074l-0.24,-0.075l-0.239,-0.077l-0.238,-0.078l-0.238,-0.08l-0.237,-0.081l-0.237,-0.083l-0.236,-0.084l-0.235,-0.085l-0.234,-0.087l-0.234,-0.088l-0.233,-0.089l-0.233,-0.091l-0.231,-0.093l-0.231,-0.093l-0.231,-0.095l-0.229,-0.097l-0.229,-0.097l-0.228,-0.099l-0.228,-0.101l-0.227,-0.101l-0.226,-0.103l-0.225,-0.105l-0.224,-0.106l-0.224,-0.107l-0.223,-0.108l-0.222,-0.11l-0.221,-0.11l-0.221,-0.113l-0.22,-0.113l-0.219,-0.115l-0.218,-0.116l-0.218,-0.117l-0.216,-0.119l-0.216,-0.12l-0.215,-0.121l-0.214,-0.122l-0.214,-0.124l-0.212,-0.125l-0.212,-0.126l-0.211,-0.127l-0.21,-0.129l-0.209,-0.13l-0.209,-0.131l-0.207,-0.132l-0.207,-0.133l-0.206,-0.135l-0.204,-0.136l-0.204,-0.137l-0.204,-0.138l-0.202,-0.139l-0.201,-0.141l-0.201,-0.141l-0.199,-0.143l-0.199,-0.144l-0.198,-0.146l-0.197,-0.146l-0.196,-0.147l-0.195,-0.149l-0.194,-0.15l-0.193,-0.151l-0.192,-0.152l-0.191,-0.153l-0.191,-0.154l-0.189,-0.156l-0.188,-0.156l-0.188,-0.158l-0.186,-0.158l-0.186,-0.16l-0.185,-0.161l-0.183,-0.162l-0.183,-0.163l-0.181,-0.164l-0.181,-0.165l-0.18,-0.166l-0.178,-0.168l-0.178,-0.168l-0.176,-0.169l-0.176,-0.171l-0.175,-0.171l-0.173,-0.173l-0.173,-0.173l-0.171,-0.175l-0.17,-0.175l-0.17,-0.177l-0.168,-0.178l-0.167,-0.178l-0.167,-0.18l-0.165,-0.18l-0.164,-0.182l-0.163,-0.183l-0.162,-0.183l-0.161,-0.185l-0.16,-0.185l-0.158,-0.187l-0.158,-0.187l-0.156,-0.189l-0.156,-0.189l-0.154,-0.19l-0.153,-0.192l-0.152,-0.192l-0.151,-0.193l-0.15,-0.194l-0.148,-0.195l-0.148,-0.196l-0.146,-0.197l-0.145,-0.198l-0.144,-0.198l-0.143,-0.2l-0.142,-0.201l-0.141,-0.201l-0.139,-0.202l-0.138,-0.203l-0.137,-0.204l-0.136,-0.205l-0.135,-0.206l-0.133,-0.207l-0.132,-0.207l-0.131,-0.209l-0.13,-0.209l-0.128,-0.21l-0.128,-0.211l-0.126,-0.211l-0.125,-0.213l-0.123,-0.213l-0.123,-0.215l-0.121,-0.215l-0.12,-0.216l-0.118,-0.216l-0.118,-0.218l-0.116,-0.218l-0.115,-0.219l-0.113,-0.22l-0.112,-0.22l-0.111,-0.222l-0.11,-0.222l-0.108,-0.223l-0.107,-0.224l-0.106,-0.224l-0.104,-0.225l-0.103,-0.226l-0.102,-0.227l-0.1,-0.227l-0.1,-0.228l-0.097,-0.229l-0.097,-0.23l-0.095,-0.23l-0.093,-0.231l-0.093,-0.232l-0.09,-0.233l-0.09,-0.233l-0.088,-0.233l-0.087,-0.235l-0.085,-0.235l-0.084,-0.236l-0.083,-0.237l-0.081,-0.237l-0.08,-0.238l-0.078,-0.238l-0.077,-0.239l-0.075,-0.24l-0.074,-0.24l-0.073,-0.241l-0.071,-0.242l-0.07,-0.242l-0.068,-0.243l-0.067,-0.244l-0.065,-0.244l-0.064,-0.244l-0.062,-0.246l-0.061,-0.245l-0.059,-0.247l-0.058,-0.247l-0.057,-0.247l-0.054,-0.248l-0.054,-0.249l-0.052,-0.249l-0.05,-0.25l-0.049,-0.25l-0.047,-0.251l-0.046,-0.251l-0.044,-0.252l-0.043,-0.252l-0.041,-0.253l-0.039,-0.253l-0.038,-0.254l-0.037,-0.254l-0.035,-0.255l-0.033,-0.255l-0.032,-0.256l-0.03,-0.256l-0.028,-0.256l-0.027,-0.257l-0.026,-0.258l-0.023,-0.257l-0.023,-0.259l-0.02,-0.258l-0.019,-0.259l-0.017,-0.26l-0.016,-0.26l-0.014,-0.26l-0.012,-0.26l-0.011,-0.261l-0.009,-0.262l-0.008,-0.261l-0.006,-0.262l-0.004,-0.263l-0.002,-0.263l-0.001,-0.263l0.001,-0.263l0.002,-0.262l0.004,-0.263l0.006,-0.262l0.008,-0.261l0.009,-0.262l0.011,-0.261l0.012,-0.26l0.014,-0.261l0.016,-0.259l0.017,-0.26l0.019,-0.259l0.02,-0.259l0.023,-0.258l0.023,-0.258l0.026,-0.257l0.027,-0.257l0.028,-0.257l0.03,-0.256l0.032,-0.255l0.033,-0.255l0.035,-0.255l0.037,-0.254l0.038,-0.254l0.039,-0.253l0.041,-0.253l0.043,-0.252l0.044,-0.252l0.046,-0.251l0.047,-0.251l0.049,-0.25l0.05,-0.25l0.052,-0.249l0.054,-0.249l0.054,-0.248l0.057,-0.248l0.058,-0.247l0.059,-0.246l0.061,-0.246l0.062,-0.245l0.064,-0.245l0.065,-0.244l0.067,-0.243l0.068,-0.243l0.07,-0.242l0.071,-0.242l0.073,-0.241l0.074,-0.24l0.075,-0.24l0.077,-0.239l0.078,-0.239l0.08,-0.238l0.081,-0.237l0.083,-0.236l0.084,-0.236l0.085,-0.235l0.087,-0.235l0.088,-0.234l0.09,-0.233l0.09,-0.232l0.093,-0.232l0.093,-0.231l0.095,-0.23l0.097,-0.23l0.097,-0.229l0.1,-0.228l0.1,-0.227l0.102,-0.227l0.103,-0.226l0.104,-0.225l0.106,-0.225l0.107,-0.223l0.108,-0.223l0.11,-0.222l0.111,-0.222l0.112,-0.22l0.113,-0.22l0.115,-0.219l0.116,-0.219l0.118,-0.217l0.118,-0.217l0.12,-0.216l0.121,-0.215l0.123,-0.214l0.123,-0.213l0.125,-0.213l0.126,-0.211l0.128,-0.211l0.128,-0.21l0.13,-0.21l0.131,-0.208l0.132,-0.208l0.133,-0.206l0.135,-0.206l0.136,-0.205l0.137,-0.204l0.138,-0.203l0.139,-0.202l0.141,-0.202l0.142,-0.2l0.143,-0.2l0.144,-0.198l0.145,-0.198l0.146,-0.197l0.148,-0.196l0.148,-0.195l0.15,-0.194l0.151,-0.193l0.152,-0.192l0.153,-0.192l0.154,-0.19l0.156,-0.189l0.156,-0.189l0.158,-0.187l0.158,-0.187l0.16,-0.185l0.161,-0.185l0.162,-0.184l0.163,-0.182l0.164,-0.182l0.165,-0.18l0.167,-0.18l0.167,-0.179l0.168,-0.177l0.17,-0.177l0.17,-0.175l0.171,-0.175l0.173,-0.173l0.173,-0.173l0.175,-0.171l0.176,-0.171l0.176,-0.169l0.178,-0.169l0.178,-0.167l0.18,-0.166l0.181,-0.165l0.181,-0.164l0.183,-0.163l0.183,-0.162l0.185,-0.161l0.186,-0.16l0.186,-0.159l0.188,-0.157l0.188,-0.157l0.189,-0.155l0.191,-0.154l0.191,-0.153l0.192,-0.152l0.193,-0.151l0.194,-0.15l0.195,-0.149l0.196,-0.147l0.197,-0.147l0.198,-0.145l0.199,-0.144l0.199,-0.143l0.201,-0.141l0.201,-0.141l0.202,-0.139l0.204,-0.139l0.204,-0.137l0.204,-0.135l0.206,-0.135l0.207,-0.133l0.207,-0.133l0.209,-0.131l0.209,-0.129l0.21,-0.129l0.211,-0.127l0.212,-0.126l0.212,-0.125l0.214,-0.124l0.214,-0.122l0.215,-0.121l0.216,-0.12l0.216,-0.119l0.218,-0.117l0.218,-0.116l0.219,-0.115l0.22,-0.114l0.221,-0.112l0.221,-0.111l0.222,-0.109l0.223,-0.109l0.224,-0.107l0.224,-0.105l0.225,-0.105l0.226,-0.103l0.227,-0.102l0.228,-0.1l0.228,-0.099l0.229,-0.098l0.229,-0.096l0.231,-0.095l0.231,-0.094l0.231,-0.092l0.233,-0.091l0.233,-0.089l0.234,-0.089l0.234,-0.086l0.235,-0.086l0.236,-0.084l0.237,-0.082l0.237,-0.081l0.238,-0.08l0.238,-0.078l0.239,-0.077l0.24,-0.076l0.241,-0.074l0.241,-0.072l0.241,-0.071l0.242,-0.07l0.243,-0.068l0.244,-0.067l0.244,-0.065l0.244,-0.064l0.246,-0.063l0.246,-0.06l0.246,-0.06l0.247,-0.058l0.247,-0.056l0.248,-0.055l0.249,-0.053l0.249,-0.052l0.25,-0.05l0.25,-0.049l0.251,-0.048l0.251,-0.045l0.252,-0.045l0.252,-0.042l0.253,-0.041l0.253,-0.04l0.254,-0.038l0.254,-0.036l0.255,-0.035l0.255,-0.033l0.256,-0.032l0.256,-0.03l0.256,-0.029l0.257,-0.027l0.258,-0.025l0.258,-0.024l0.258,-0.022l0.259,-0.021l0.259,-0.019l0.259,-0.017l0.26,-0.015l0.26,-0.015l0.261,-0.012l0.261,-0.011l0.261,-0.009l0.262,-0.007l0.262,-0.006l0.262,-0.004l0.263,-0.003l0.263,-0.001l0.263,0.001Zm-0.479,7.497l-0.215,0.002l-0.215,0.003l-0.214,0.005l-0.214,0.006l-0.214,0.007l-0.214,0.009l-0.213,0.01l-0.213,0.012l-0.212,0.013l-0.212,0.014l-0.212,0.015l-0.211,0.017l-0.211,0.018l-0.211,0.019l-0.21,0.021l-0.21,0.022l-0.21,0.023l-0.209,0.025l-0.208,0.026l-0.209,0.027l-0.208,0.029l-0.207,0.029l-0.207,0.031l-0.207,0.033l-0.206,0.033l-0.206,0.035l-0.205,0.036l-0.205,0.037l-0.205,0.039l-0.204,0.04l-0.203,0.041l-0.203,0.042l-0.203,0.044l-0.203,0.044l-0.201,0.046l-0.202,0.047l-0.201,0.049l-0.2,0.05l-0.2,0.05l-0.199,0.052l-0.199,0.054l-0.199,0.054l-0.198,0.056l-0.197,0.056l-0.197,0.058l-0.197,0.06l-0.196,0.06l-0.195,0.061l-0.195,0.063l-0.194,0.064l-0.194,0.065l-0.194,0.066l-0.192,0.067l-0.193,0.069l-0.192,0.069l-0.191,0.071l-0.19,0.072l-0.19,0.073l-0.19,0.074l-0.189,0.075l-0.188,0.077l-0.188,0.077l-0.187,0.079l-0.187,0.08l-0.186,0.08l-0.186,0.082l-0.185,0.083l-0.184,0.084l-0.184,0.085l-0.183,0.087l-0.182,0.087l-0.182,0.088l-0.181,0.09l-0.181,0.09l-0.18,0.092l-0.179,0.092l-0.179,0.094l-0.178,0.095l-0.178,0.096l-0.177,0.096l-0.176,0.098l-0.175,0.099l-0.175,0.1l-0.174,0.101l-0.174,0.102l-0.173,0.103l-0.172,0.104l-0.172,0.105l-0.17,0.106l-0.171,0.107l-0.169,0.108l-0.169,0.109l-0.168,0.11l-0.167,0.111l-0.167,0.112l-0.166,0.112l-0.165,0.114l-0.165,0.115l-0.163,0.116l-0.163,0.117l-0.163,0.117l-0.161,0.119l-0.161,0.119l-0.16,0.121l-0.16,0.121l-0.158,0.123l-0.158,0.123l-0.157,0.124l-0.157,0.126l-0.155,0.126l-0.155,0.127l-0.154,0.128l-0.153,0.128l-0.153,0.13l-0.151,0.131l-0.151,0.131l-0.15,0.133l-0.15,0.133l-0.148,0.134l-0.148,0.135l-0.147,0.136l-0.146,0.137l-0.145,0.137l-0.144,0.139l-0.144,0.139l-0.142,0.14l-0.142,0.141l-0.141,0.142l-0.14,0.143l-0.14,0.143l-0.138,0.145l-0.138,0.145l-0.137,0.146l-0.136,0.147l-0.135,0.148l-0.134,0.148l-0.133,0.149l-0.132,0.15l-0.132,0.151l-0.13,0.152l-0.13,0.152l-0.129,0.154l-0.128,0.154l-0.127,0.154l-0.126,0.156l-0.125,0.156l-0.124,0.157l-0.124,0.158l-0.122,0.159l-0.122,0.159l-0.12,0.16l-0.12,0.161l-0.118,0.162l-0.118,0.162l-0.117,0.163l-0.116,0.164l-0.114,0.165l-0.114,0.165l-0.113,0.166l-0.112,0.166l-0.111,0.168l-0.11,0.168l-0.109,0.169l-0.108,0.169l-0.107,0.17l-0.106,0.171l-0.105,0.172l-0.104,0.172l-0.103,0.173l-0.102,0.173l-0.101,0.174l-0.099,0.175l-0.099,0.176l-0.098,0.176l-0.097,0.177l-0.096,0.177l-0.094,0.178l-0.094,0.179l-0.093,0.18l-0.091,0.18l-0.091,0.18l-0.089,0.182l-0.089,0.181l-0.087,0.183l-0.086,0.183l-0.085,0.184l-0.084,0.184l-0.083,0.185l-0.082,0.185l-0.081,0.187l-0.08,0.186l-0.078,0.187l-0.078,0.188l-0.076,0.189l-0.075,0.189l-0.075,0.189l-0.072,0.19l-0.072,0.191l-0.071,0.191l-0.07,0.192l-0.068,0.192l-0.067,0.193l-0.067,0.193l-0.065,0.194l-0.063,0.195l-0.063,0.194l-0.062,0.196l-0.06,0.196l-0.059,0.196l-0.058,0.197l-0.057,0.198l-0.056,0.198l-0.054,0.198l-0.053,0.199l-0.052,0.2l-0.051,0.2l-0.05,0.2l-0.048,0.201l-0.047,0.201l-0.046,0.202l-0.045,0.202l-0.043,0.203l-0.043,0.203l-0.041,0.204l-0.04,0.204l-0.038,0.204l-0.038,0.205l-0.036,0.206l-0.034,0.206l-0.034,0.206l-0.032,0.206l-0.031,0.208l-0.03,0.207l-0.028,0.208l-0.028,0.208l-0.025,0.209l-0.025,0.209l-0.023,0.209l-0.022,0.21l-0.021,0.211l-0.02,0.21l-0.018,0.211l-0.016,0.212l-0.016,0.211l-0.014,0.212l-0.013,0.213l-0.011,0.213l-0.01,0.213l-0.009,0.213l-0.008,0.214l-0.006,0.214l-0.005,0.215l-0.003,0.215l-0.002,0.215l-0.001,0.215l0.001,0.216l0.002,0.215l0.003,0.215l0.005,0.214l0.006,0.215l0.008,0.213l0.009,0.214l0.01,0.213l0.011,0.213l0.013,0.212l0.014,0.212l0.016,0.212l0.016,0.212l0.018,0.211l0.02,0.21l0.021,0.21l0.022,0.21l0.023,0.21l0.025,0.209l0.025,0.209l0.028,0.208l0.028,0.208l0.03,0.207l0.031,0.207l0.032,0.207l0.034,0.206l0.034,0.206l0.036,0.205l0.038,0.205l0.038,0.205l0.04,0.204l0.041,0.204l0.043,0.203l0.043,0.202l0.045,0.203l0.046,0.202l0.047,0.201l0.048,0.201l0.05,0.2l0.051,0.2l0.052,0.2l0.053,0.198l0.054,0.199l0.056,0.198l0.057,0.197l0.058,0.197l0.059,0.197l0.06,0.196l0.062,0.195l0.063,0.195l0.063,0.195l0.065,0.194l0.067,0.193l0.067,0.193l0.068,0.192l0.07,0.192l0.071,0.191l0.072,0.191l0.072,0.19l0.075,0.189l0.075,0.189l0.076,0.189l0.078,0.187l0.078,0.188l0.08,0.186l0.081,0.186l0.082,0.186l0.083,0.185l0.084,0.184l0.085,0.184l0.086,0.183l0.087,0.182l0.089,0.182l0.089,0.182l0.091,0.18l0.091,0.18l0.093,0.18l0.094,0.178l0.094,0.178l0.096,0.178l0.097,0.177l0.098,0.176l0.099,0.176l0.099,0.174l0.101,0.175l0.102,0.173l0.103,0.173l0.104,0.172l0.105,0.172l0.106,0.171l0.107,0.17l0.108,0.169l0.109,0.169l0.11,0.168l0.111,0.167l0.112,0.167l0.113,0.166l0.114,0.165l0.114,0.165l0.116,0.164l0.117,0.163l0.118,0.162l0.118,0.162l0.12,0.16l0.12,0.161l0.122,0.159l0.122,0.159l0.124,0.157l0.124,0.158l0.125,0.156l0.126,0.155l0.127,0.155l0.128,0.154l0.129,0.153l0.13,0.153l0.13,0.152l0.132,0.15l0.132,0.151l0.133,0.149l0.134,0.148l0.135,0.148l0.136,0.147l0.137,0.146l0.138,0.145l0.138,0.144l0.14,0.144l0.14,0.143l0.141,0.141l0.142,0.142l0.142,0.14l0.144,0.139l0.144,0.139l0.145,0.137l0.146,0.137l0.147,0.136l0.148,0.135l0.148,0.134l0.15,0.133l0.15,0.133l0.151,0.131l0.151,0.131l0.153,0.129l0.153,0.129l0.154,0.128l0.155,0.127l0.155,0.126l0.157,0.125l0.157,0.125l0.158,0.123l0.158,0.122l0.16,0.122l0.16,0.12l0.161,0.12l0.161,0.119l0.163,0.117l0.163,0.117l0.163,0.116l0.165,0.115l0.165,0.113l0.166,0.113l0.167,0.112l0.167,0.111l0.168,0.11l0.169,0.109l0.169,0.108l0.171,0.107l0.17,0.106l0.172,0.105l0.172,0.104l0.173,0.103l0.174,0.102l0.174,0.101l0.175,0.1l0.175,0.099l0.176,0.097l0.177,0.097l0.178,0.096l0.178,0.095l0.179,0.093l0.179,0.093l0.18,0.092l0.181,0.09l0.181,0.089l0.182,0.089l0.182,0.087l0.183,0.086l0.184,0.086l0.184,0.084l0.185,0.083l0.186,0.081l0.186,0.081l0.187,0.08l0.187,0.079l0.188,0.077l0.188,0.076l0.189,0.076l0.19,0.074l0.19,0.073l0.19,0.072l0.191,0.07l0.192,0.07l0.193,0.068l0.192,0.068l0.194,0.066l0.194,0.065l0.194,0.064l0.195,0.062l0.195,0.062l0.196,0.06l0.197,0.059l0.197,0.058l0.197,0.057l0.198,0.056l0.199,0.054l0.199,0.053l0.199,0.052l0.2,0.051l0.2,0.05l0.201,0.048l0.202,0.047l0.201,0.046l0.203,0.045l0.203,0.044l0.203,0.042l0.203,0.041l0.204,0.04l0.205,0.038l0.205,0.038l0.205,0.036l0.206,0.035l0.206,0.033l0.207,0.032l0.207,0.031l0.207,0.03l0.208,0.029l0.209,0.027l0.208,0.026l0.209,0.024l0.21,0.024l0.21,0.022l0.21,0.02l0.211,0.02l0.211,0.018l0.211,0.017l0.212,0.015l0.212,0.014l0.212,0.013l0.213,0.011l0.213,0.011l0.214,0.008l0.214,0.008l0.214,0.006l0.214,0.005l0.215,0.003l0.215,0.002l0.216,0.001l0.215,-0.001l0.215,-0.002l0.215,-0.003l0.215,-0.005l0.214,-0.006l0.214,-0.008l0.213,-0.008l0.214,-0.011l0.212,-0.011l0.213,-0.013l0.212,-0.014l0.212,-0.015l0.211,-0.017l0.211,-0.018l0.211,-0.02l0.21,-0.02l0.21,-0.022l0.209,-0.024l0.209,-0.024l0.209,-0.026l0.208,-0.027l0.208,-0.029l0.208,-0.03l0.207,-0.031l0.206,-0.032l0.207,-0.033l0.205,-0.035l0.206,-0.036l0.205,-0.038l0.204,-0.038l0.204,-0.04l0.204,-0.041l0.203,-0.042l0.203,-0.044l0.202,-0.045l0.202,-0.046l0.201,-0.047l0.201,-0.048l0.201,-0.05l0.2,-0.051l0.199,-0.052l0.199,-0.053l0.198,-0.054l0.198,-0.056l0.198,-0.057l0.197,-0.058l0.196,-0.059l0.196,-0.06l0.196,-0.062l0.195,-0.062l0.194,-0.064l0.194,-0.065l0.193,-0.066l0.193,-0.068l0.192,-0.068l0.192,-0.07l0.191,-0.07l0.191,-0.072l0.19,-0.073l0.19,-0.074l0.189,-0.076l0.188,-0.076l0.188,-0.077l0.187,-0.079l0.187,-0.08l0.186,-0.081l0.185,-0.081l0.185,-0.083l0.184,-0.084l0.184,-0.086l0.183,-0.086l0.183,-0.087l0.182,-0.089l0.181,-0.089l0.181,-0.09l0.18,-0.092l0.179,-0.093l0.179,-0.093l0.178,-0.095l0.177,-0.096l0.177,-0.097l0.176,-0.097l0.176,-0.099l0.175,-0.1l0.174,-0.101l0.174,-0.102l0.172,-0.103l0.173,-0.104l0.171,-0.105l0.171,-0.106l0.17,-0.107l0.17,-0.108l0.168,-0.109l0.168,-0.11l0.168,-0.111l0.167,-0.112l0.165,-0.113l0.166,-0.113l0.164,-0.115l0.164,-0.116l0.163,-0.117l0.162,-0.117l0.162,-0.119l0.161,-0.12l0.16,-0.12l0.159,-0.122l0.159,-0.122l0.158,-0.123l0.157,-0.125l0.156,-0.125l0.156,-0.126l0.155,-0.127l0.154,-0.128l0.153,-0.129l0.152,-0.129l0.152,-0.131l0.151,-0.131l0.15,-0.133l0.149,-0.133l0.149,-0.134l0.147,-0.135l0.147,-0.136l0.146,-0.137l0.145,-0.137l0.145,-0.139l0.143,-0.139l0.143,-0.14l0.142,-0.142l0.141,-0.141l0.14,-0.143l0.139,-0.144l0.139,-0.144l0.138,-0.145l0.136,-0.146l0.136,-0.147l0.135,-0.148l0.134,-0.148l0.134,-0.149l0.132,-0.151l0.132,-0.15l0.13,-0.152l0.13,-0.153l0.129,-0.153l0.128,-0.154l0.127,-0.155l0.126,-0.155l0.125,-0.156l0.124,-0.158l0.123,-0.157l0.123,-0.159l0.121,-0.159l0.121,-0.161l0.119,-0.16l0.119,-0.162l0.118,-0.162l0.116,-0.163l0.116,-0.164l0.115,-0.165l0.114,-0.165l0.113,-0.166l0.112,-0.167l0.111,-0.167l0.109,-0.168l0.109,-0.169l0.108,-0.169l0.107,-0.17l0.106,-0.171l0.105,-0.172l0.104,-0.172l0.103,-0.173l0.102,-0.173l0.101,-0.175l0.1,-0.174l0.099,-0.176l0.098,-0.176l0.097,-0.177l0.095,-0.178l0.095,-0.178l0.094,-0.178l0.092,-0.18l0.092,-0.18l0.09,-0.18l0.09,-0.182l0.088,-0.182l0.088,-0.182l0.086,-0.183l0.085,-0.184l0.084,-0.184l0.083,-0.185l0.082,-0.186l0.081,-0.186l0.079,-0.186l0.079,-0.188l0.077,-0.187l0.077,-0.189l0.075,-0.189l0.074,-0.189l0.073,-0.19l0.072,-0.191l0.071,-0.191l0.069,-0.192l0.069,-0.192l0.067,-0.193l0.066,-0.193l0.065,-0.194l0.064,-0.195l0.063,-0.195l0.061,-0.195l0.061,-0.196l0.059,-0.197l0.058,-0.197l0.057,-0.197l0.055,-0.198l0.055,-0.199l0.053,-0.198l0.052,-0.2l0.051,-0.2l0.049,-0.2l0.049,-0.201l0.047,-0.201l0.046,-0.202l0.045,-0.203l0.043,-0.202l0.042,-0.203l0.041,-0.204l0.04,-0.204l0.039,-0.205l0.037,-0.205l0.036,-0.205l0.035,-0.206l0.034,-0.206l0.032,-0.207l0.031,-0.207l0.03,-0.207l0.028,-0.208l0.027,-0.208l0.026,-0.209l0.025,-0.209l0.023,-0.21l0.022,-0.21l0.021,-0.21l0.019,-0.21l0.018,-0.211l0.017,-0.212l0.015,-0.212l0.015,-0.212l0.012,-0.212l0.012,-0.213l0.01,-0.213l0.009,-0.214l0.007,-0.213l0.006,-0.215l0.005,-0.214l0.004,-0.215l0.002,-0.215l0,-0.216l0,-0.215l-0.002,-0.215l-0.004,-0.215l-0.005,-0.215l-0.006,-0.214l-0.007,-0.214l-0.009,-0.213l-0.01,-0.213l-0.012,-0.213l-0.012,-0.213l-0.015,-0.212l-0.015,-0.211l-0.017,-0.212l-0.018,-0.211l-0.019,-0.21l-0.021,-0.211l-0.022,-0.21l-0.023,-0.209l-0.025,-0.209l-0.026,-0.209l-0.027,-0.208l-0.028,-0.208l-0.03,-0.207l-0.031,-0.208l-0.032,-0.206l-0.034,-0.206l-0.035,-0.206l-0.036,-0.206l-0.037,-0.205l-0.039,-0.204l-0.04,-0.204l-0.041,-0.204l-0.042,-0.203l-0.043,-0.203l-0.045,-0.202l-0.046,-0.202l-0.047,-0.201l-0.049,-0.201l-0.049,-0.2l-0.051,-0.2l-0.052,-0.2l-0.053,-0.199l-0.055,-0.198l-0.055,-0.198l-0.057,-0.198l-0.058,-0.197l-0.059,-0.196l-0.061,-0.196l-0.061,-0.196l-0.063,-0.194l-0.064,-0.195l-0.065,-0.194l-0.066,-0.193l-0.067,-0.193l-0.069,-0.192l-0.069,-0.192l-0.071,-0.191l-0.072,-0.191l-0.073,-0.19l-0.074,-0.189l-0.075,-0.189l-0.077,-0.189l-0.077,-0.188l-0.079,-0.187l-0.079,-0.186l-0.081,-0.187l-0.082,-0.185l-0.083,-0.185l-0.084,-0.184l-0.085,-0.184l-0.086,-0.183l-0.088,-0.183l-0.088,-0.181l-0.09,-0.182l-0.09,-0.18l-0.092,-0.18l-0.092,-0.18l-0.094,-0.179l-0.095,-0.178l-0.095,-0.177l-0.097,-0.177l-0.098,-0.176l-0.099,-0.176l-0.1,-0.175l-0.101,-0.174l-0.102,-0.173l-0.103,-0.173l-0.104,-0.172l-0.105,-0.172l-0.106,-0.171l-0.107,-0.17l-0.108,-0.169l-0.109,-0.169l-0.109,-0.168l-0.111,-0.168l-0.112,-0.166l-0.113,-0.166l-0.114,-0.165l-0.115,-0.165l-0.116,-0.164l-0.116,-0.163l-0.118,-0.162l-0.119,-0.162l-0.119,-0.161l-0.121,-0.16l-0.121,-0.159l-0.123,-0.159l-0.123,-0.158l-0.124,-0.157l-0.125,-0.156l-0.126,-0.156l-0.127,-0.154l-0.128,-0.154l-0.129,-0.154l-0.13,-0.152l-0.13,-0.152l-0.132,-0.151l-0.132,-0.15l-0.134,-0.149l-0.134,-0.148l-0.135,-0.148l-0.136,-0.147l-0.136,-0.146l-0.138,-0.145l-0.139,-0.145l-0.139,-0.143l-0.14,-0.143l-0.141,-0.142l-0.142,-0.141l-0.143,-0.14l-0.143,-0.139l-0.145,-0.139l-0.145,-0.137l-0.146,-0.137l-0.147,-0.136l-0.147,-0.135l-0.149,-0.134l-0.149,-0.133l-0.15,-0.133l-0.151,-0.131l-0.152,-0.131l-0.152,-0.13l-0.153,-0.128l-0.154,-0.128l-0.155,-0.127l-0.156,-0.126l-0.156,-0.126l-0.157,-0.124l-0.158,-0.123l-0.159,-0.123l-0.159,-0.121l-0.16,-0.121l-0.161,-0.119l-0.162,-0.119l-0.162,-0.117l-0.163,-0.117l-0.164,-0.116l-0.164,-0.115l-0.166,-0.114l-0.165,-0.112l-0.167,-0.112l-0.168,-0.111l-0.168,-0.11l-0.168,-0.109l-0.17,-0.108l-0.17,-0.107l-0.171,-0.106l-0.171,-0.105l-0.173,-0.104l-0.172,-0.103l-0.174,-0.102l-0.174,-0.101l-0.175,-0.1l-0.176,-0.099l-0.176,-0.098l-0.177,-0.096l-0.177,-0.096l-0.178,-0.095l-0.179,-0.094l-0.179,-0.092l-0.18,-0.092l-0.181,-0.09l-0.181,-0.09l-0.182,-0.088l-0.183,-0.087l-0.183,-0.087l-0.184,-0.085l-0.184,-0.084l-0.185,-0.083l-0.185,-0.082l-0.186,-0.08l-0.187,-0.08l-0.187,-0.079l-0.188,-0.077l-0.188,-0.077l-0.189,-0.075l-0.19,-0.074l-0.19,-0.073l-0.191,-0.072l-0.191,-0.071l-0.192,-0.069l-0.192,-0.069l-0.193,-0.067l-0.193,-0.066l-0.194,-0.065l-0.194,-0.064l-0.195,-0.063l-0.196,-0.061l-0.196,-0.06l-0.196,-0.06l-0.197,-0.058l-0.198,-0.056l-0.198,-0.056l-0.198,-0.054l-0.199,-0.054l-0.199,-0.052l-0.2,-0.05l-0.201,-0.05l-0.201,-0.049l-0.201,-0.047l-0.202,-0.046l-0.202,-0.044l-0.203,-0.044l-0.203,-0.042l-0.204,-0.041l-0.204,-0.04l-0.204,-0.039l-0.205,-0.037l-0.206,-0.036l-0.205,-0.035l-0.207,-0.033l-0.206,-0.033l-0.207,-0.031l-0.208,-0.029l-0.208,-0.029l-0.208,-0.027l-0.209,-0.026l-0.209,-0.025l-0.209,-0.023l-0.21,-0.022l-0.21,-0.021l-0.211,-0.019l-0.211,-0.018l-0.211,-0.017l-0.212,-0.015l-0.212,-0.014l-0.213,-0.013l-0.212,-0.012l-0.214,-0.01l-0.213,-0.009l-0.214,-0.007l-0.214,-0.006l-0.215,-0.005l-0.215,-0.003l-0.215,-0.002l-0.215,-0.001l-0.216,0.001Z" style="fill:#662d91;"/><path d="M401.391,262.302l0.014,0.015l1.029,2.666l-1.142,2.619l-0.008,0.007l-0.255,0.245l-0.244,0.237l-0.241,0.236l-0.238,0.237l-0.235,0.236l-0.232,0.236l-0.228,0.236l-0.226,0.236l-0.223,0.236l-0.219,0.235l-0.217,0.236l-0.214,0.235l-0.211,0.235l-0.208,0.235l-0.205,0.234l-0.202,0.234l-0.2,0.234l-0.196,0.234l-0.194,0.234l-0.191,0.233l-0.188,0.233l-0.185,0.233l-0.183,0.232l-0.18,0.232l-0.178,0.232l-0.174,0.232l-0.172,0.231l-0.17,0.231l-0.166,0.231l-0.165,0.23l-0.161,0.23l-0.159,0.23l-0.157,0.229l-0.154,0.229l-0.151,0.229l-0.15,0.228l-0.146,0.228l-0.144,0.228l-0.142,0.227l-0.139,0.227l-0.137,0.226l-0.135,0.226l-0.132,0.226l-0.13,0.225l-0.128,0.225l-0.126,0.225l-0.123,0.224l-0.121,0.223l-0.118,0.223l-0.117,0.223l-0.114,0.222l-0.112,0.222l-0.11,0.222l-0.108,0.221l-0.106,0.22l-0.103,0.22l-0.102,0.22l-0.099,0.219l-0.098,0.218l-0.095,0.218l-0.094,0.218l-0.091,0.217l-0.09,0.217l-0.087,0.216l-0.086,0.216l-0.084,0.215l-0.081,0.215l-0.08,0.214l-0.078,0.213l-0.077,0.213l-0.074,0.213l-0.073,0.212l-0.07,0.211l-0.069,0.211l-0.068,0.211l-0.065,0.209l-0.064,0.21l-0.062,0.208l-0.06,0.209l-0.059,0.207l-0.057,0.207l-0.055,0.206l-0.054,0.206l-0.052,0.205l-0.051,0.205l-0.049,0.204l-0.047,0.203l-0.046,0.203l-0.044,0.202l-0.043,0.202l-0.041,0.201l-0.04,0.2l-0.039,0.2l-0.036,0.199l-0.036,0.198l-0.034,0.198l-0.033,0.197l-0.031,0.196l-0.03,0.196l-0.028,0.195l-0.027,0.194l-0.026,0.194l-0.025,0.193l-0.023,0.192l-0.022,0.192l-0.02,0.19l-0.02,0.19l-0.018,0.19l-0.017,0.188l-0.016,0.188l-0.014,0.188l-0.014,0.186l-0.012,0.186l-0.011,0.184l-0.01,0.185l-0.008,0.183l-0.008,0.183l-0.007,0.181l-0.005,0.181l-0.005,0.18l-0.003,0.18l-0.002,0.178l-0.002,0.178l0,0.177l0,0.176l0.002,0.175l0.003,0.175l0.003,0.173l0.004,0.173l0.006,0.171l0.006,0.171l0.007,0.17l0.008,0.169l0.009,0.168l0.01,0.168l0.01,0.166l0.011,0.165l0.013,0.165l0.012,0.163l0.014,0.163l0.015,0.162l0.015,0.16l0.015,0.16l0.017,0.159l0.017,0.157l0.018,0.157l0.019,0.156l0.019,0.154l0.02,0.154l0.02,0.153l0.021,0.151l0.022,0.151l0.022,0.149l0.023,0.148l0.023,0.148l0.024,0.146l0.024,0.145l0.025,0.14l0.051,0.289l0.053,0.28l0.055,0.276l0.056,0.271l0.002,0.008l0.055,0.258l0.059,0.262l0.06,0.256l0.061,0.252l0.062,0.247l0.063,0.241l0.063,0.237l0.064,0.231l0.065,0.226l0.064,0.221l0.065,0.215l0.065,0.21l0.065,0.204l0.065,0.199l0.064,0.193l0.064,0.187l0.063,0.181l0.062,0.176l0.062,0.169l0.061,0.164l0.059,0.157l0.059,0.151l0.057,0.144l0.055,0.139l0.054,0.132l0.052,0.125l0.05,0.119l0.048,0.112l0.044,0.101l0.088,0.196l0.075,0.163l0.064,0.135l0.051,0.106l0.039,0.077l0.022,0.043l0.028,0.054l0.255,2.846l-1.82,2.204l-0.018,0.009l-2.846,0.255l-2.204,-1.821l-0.004,-0.009l-0.044,-0.084l-0.06,-0.116l-0.072,-0.145l-0.086,-0.176l-0.098,-0.208l-0.11,-0.238l-0.118,-0.264l-0.065,-0.15l-0.066,-0.153l-0.068,-0.16l-0.069,-0.167l-0.071,-0.175l-0.073,-0.182l-0.074,-0.188l-0.076,-0.196l-0.077,-0.203l-0.078,-0.209l-0.079,-0.217l-0.079,-0.223l-0.08,-0.23l-0.081,-0.236l-0.081,-0.243l-0.081,-0.25l-0.081,-0.256l-0.082,-0.263l-0.081,-0.268l-0.08,-0.276l-0.08,-0.281l-0.08,-0.287l-0.079,-0.294l-0.077,-0.3l-0.077,-0.305l-0.076,-0.312l-0.074,-0.317l-0.072,-0.324l-0.069,-0.318l-0.002,-0.011l-0.07,-0.334l-0.067,-0.34l-0.065,-0.346l-0.063,-0.347l-0.031,-0.182l-0.03,-0.179l-0.029,-0.181l-0.029,-0.181l-0.028,-0.183l-0.028,-0.185l-0.026,-0.185l-0.026,-0.187l-0.025,-0.189l-0.025,-0.189l-0.024,-0.191l-0.023,-0.192l-0.022,-0.193l-0.021,-0.195l-0.02,-0.196l-0.02,-0.197l-0.019,-0.198l-0.017,-0.2l-0.017,-0.201l-0.016,-0.202l-0.015,-0.203l-0.014,-0.204l-0.013,-0.206l-0.012,-0.206l-0.011,-0.208l-0.01,-0.209l-0.009,-0.21l-0.007,-0.211l-0.007,-0.213l-0.005,-0.213l-0.005,-0.215l-0.003,-0.216l-0.002,-0.216l-0.001,-0.218l0.001,-0.219l0.001,-0.22l0.003,-0.221l0.005,-0.222l0.005,-0.223l0.007,-0.225l0.008,-0.225l0.01,-0.226l0.011,-0.227l0.012,-0.228l0.014,-0.229l0.015,-0.23l0.016,-0.231l0.018,-0.232l0.02,-0.233l0.021,-0.234l0.022,-0.235l0.024,-0.236l0.026,-0.236l0.027,-0.238l0.029,-0.238l0.03,-0.239l0.032,-0.24l0.034,-0.241l0.035,-0.242l0.037,-0.242l0.039,-0.244l0.04,-0.244l0.042,-0.245l0.044,-0.245l0.046,-0.247l0.048,-0.247l0.049,-0.248l0.051,-0.249l0.053,-0.249l0.055,-0.25l0.057,-0.251l0.058,-0.252l0.061,-0.252l0.062,-0.253l0.065,-0.253l0.066,-0.254l0.068,-0.255l0.071,-0.255l0.072,-0.256l0.075,-0.257l0.076,-0.257l0.079,-0.258l0.08,-0.258l0.083,-0.259l0.085,-0.26l0.087,-0.26l0.089,-0.26l0.091,-0.261l0.094,-0.262l0.096,-0.261l0.097,-0.263l0.101,-0.263l0.102,-0.263l0.105,-0.264l0.107,-0.264l0.109,-0.264l0.112,-0.265l0.114,-0.266l0.116,-0.266l0.118,-0.266l0.121,-0.266l0.124,-0.267l0.126,-0.267l0.128,-0.267l0.131,-0.268l0.133,-0.268l0.135,-0.268l0.138,-0.269l0.141,-0.269l0.143,-0.269l0.146,-0.269l0.148,-0.27l0.151,-0.269l0.153,-0.27l0.156,-0.27l0.158,-0.271l0.161,-0.27l0.164,-0.271l0.166,-0.27l0.169,-0.271l0.172,-0.271l0.175,-0.272l0.177,-0.271l0.179,-0.271l0.183,-0.271l0.185,-0.272l0.188,-0.271l0.191,-0.272l0.194,-0.272l0.196,-0.271l0.199,-0.272l0.202,-0.272l0.205,-0.271l0.208,-0.272l0.211,-0.272l0.213,-0.271l0.216,-0.272l0.22,-0.271l0.222,-0.272l0.225,-0.271l0.228,-0.272l0.231,-0.271l0.234,-0.271l0.237,-0.271l0.24,-0.271l0.243,-0.271l0.247,-0.27l0.249,-0.271l0.252,-0.27l0.255,-0.27l0.259,-0.27l0.261,-0.27l0.265,-0.27l0.267,-0.269l0.271,-0.27l0.274,-0.269l0.277,-0.268l0.273,-0.261l0.007,-0.007l2.666,-1.029l2.619,1.142Z" style="fill:#662d91;"/></g></g><rect x="561.903" y="305.589" width="1754.75" height="116.711" style="fill:#eaaacc;"/></g></g></svg>